<?xml version="1.0" standalone="no"?>
<!DOCTYPE svg PUBLIC "-//W3C//DTD SVG 20010904//EN"
 "http://www.w3.org/TR/2001/REC-SVG-20010904/DTD/svg10.dtd">
<svg version="1.0" xmlns="http://www.w3.org/2000/svg"
 width="400.000000pt" height="400.000000pt" viewBox="0 0 720.000000 735.000000"
 preserveAspectRatio="xMidYMid meet">

<g transform="translate(0.000000,735.000000) scale(0.100000,-0.100000)"
fill="#000000" stroke="none">
<path d="M0 6975 c0 -372 0 -375 20 -363 17 11 23 9 41 -9 l22 -21 -23 -46
c-19 -40 -24 -44 -41 -36 -18 10 -19 7 -19 -49 0 -55 4 -65 40 -113 22 -29 39
-60 38 -68 -2 -8 -20 -18 -41 -23 -44 -11 -47 -27 -13 -71 64 -85 78 -156 31
-156 -59 0 -55 46 -55 -651 0 -351 4 -639 8 -639 5 0 16 16 25 35 10 20 24 35
34 35 10 0 28 3 41 6 18 5 22 3 19 -12 -1 -11 -6 -24 -10 -31 -5 -7 4 -18 22
-29 l29 -17 -31 -17 c-45 -25 -46 -40 0 -40 21 0 45 -5 53 -11 13 -9 12 -10
-2 -5 -10 3 -20 1 -24 -5 -3 -6 -11 -8 -17 -6 -7 2 -19 -1 -27 -9 -8 -7 -28
-14 -45 -16 -27 -3 -30 0 -33 28 -2 18 -12 40 -23 50 -19 17 -19 15 -19 -116
0 -122 1 -132 18 -125 47 19 89 26 125 21 58 -10 149 -66 106 -66 -6 0 -9 -6
-6 -13 3 -9 -17 -13 -87 -15 -122 -3 -156 -15 -156 -53 0 -33 -2 -32 54 -18
81 20 185 -33 200 -103 6 -27 5 -28 -38 -28 -48 0 -146 -28 -146 -42 0 -4 -9
-8 -20 -8 -11 0 -20 -7 -20 -15 0 -8 -7 -15 -15 -15 -13 0 -15 -118 -15 -1005
0 -553 2 -1005 6 -1005 3 0 10 13 15 30 6 17 16 30 23 30 16 0 81 79 91 110
10 32 27 47 55 52 16 2 24 11 26 30 3 32 -16 51 -56 52 -23 1 -30 6 -30 22 0
12 -9 33 -20 47 -18 23 -19 27 -5 40 8 9 15 18 15 21 0 13 82 84 110 96 42 17
32 23 -19 11 -36 -8 -42 -7 -37 6 3 8 6 18 6 23 0 12 82 89 101 95 9 3 19 14
22 25 3 11 0 17 -7 14 -7 -3 -12 6 -14 20 -1 20 4 26 29 31 36 8 44 2 44 -33
0 -21 5 -28 25 -30 14 -2 29 -10 33 -18 5 -8 13 -12 18 -8 10 6 49 -27 49 -41
0 -3 -11 -5 -25 -5 -37 0 -55 -48 -25 -70 17 -13 18 -18 8 -30 -11 -12 -10
-12 5 0 10 8 36 13 57 12 38 -3 76 20 64 39 -3 5 13 26 35 47 49 46 52 88 7
110 l-28 14 24 12 c12 7 43 13 68 14 29 2 50 9 58 20 7 9 22 16 32 14 11 -2
34 4 52 12 18 8 49 18 68 21 64 11 68 36 6 38 -20 1 -36 4 -36 7 0 3 -13 11
-30 17 -34 13 -50 41 -29 53 18 12 29 3 29 -22 0 -17 3 -18 14 -8 11 8 20 9
33 1 13 -7 23 -5 35 6 16 15 18 15 18 0 0 -10 5 -17 10 -17 6 0 10 4 10 8 0 4
9 8 20 9 11 1 18 -2 15 -8 -4 -5 -13 -9 -21 -9 -8 0 -14 -7 -14 -15 0 -9 6
-12 16 -8 14 5 15 3 5 -16 -12 -21 -11 -21 10 -9 12 7 31 20 41 28 10 8 28 15
40 15 17 0 23 6 22 23 0 12 3 22 8 22 4 0 8 -5 8 -11 0 -6 8 -8 19 -4 10 3 52
-2 92 -11 41 -9 82 -16 91 -16 10 1 20 -3 23 -9 4 -5 15 -9 26 -9 19 0 101
-30 141 -51 25 -13 27 -12 21 10 -3 11 2 21 13 25 16 6 16 8 4 16 -12 7 -7 11
18 16 17 4 32 11 32 16 0 5 7 2 16 -6 8 -9 12 -21 8 -28 -5 -8 -2 -9 9 -5 12
4 18 0 23 -17 3 -12 18 -30 34 -39 16 -10 32 -26 35 -37 4 -11 13 -20 21 -20
8 0 14 -6 14 -12 0 -37 115 -227 138 -228 6 0 12 -7 12 -15 0 -8 5 -15 10 -15
6 0 10 -7 10 -15 0 -8 3 -15 8 -15 4 0 38 -29 76 -65 70 -65 176 -127 276
-161 91 -31 374 -21 473 16 29 11 58 20 65 20 7 0 34 10 60 21 26 12 62 28 81
36 23 10 38 27 50 54 9 21 21 37 28 35 6 -3 14 5 17 17 8 31 0 187 -13 232 -5
22 -13 57 -16 78 -3 21 -10 35 -14 32 -9 -5 -26 23 -23 38 1 4 -3 7 -8 7 -6 0
-10 7 -10 15 0 8 -4 15 -10 15 -5 0 -10 6 -10 14 0 8 -11 27 -24 43 -13 15
-27 39 -31 52 -11 35 -144 164 -191 185 -21 10 -52 25 -69 33 -41 21 -243 28
-374 14 -57 -6 -135 -22 -174 -36 -47 -16 -75 -21 -81 -15 -15 15 -71 12 -133
-6 -37 -11 -72 -14 -104 -10 -43 6 -106 -4 -186 -30 -15 -5 -16 -4 -3 5 12 10
9 12 -15 10 -16 0 -36 -1 -42 0 -16 1 -17 31 -2 31 5 0 7 -4 4 -10 -3 -5 -2
-10 4 -10 13 0 23 33 15 54 -7 18 -44 22 -44 5 0 -8 -5 -8 -15 1 -12 10 -18
10 -29 1 -21 -18 -26 -1 -11 42 11 31 10 37 -1 37 -8 0 -14 6 -14 14 0 12 49
35 110 51 39 10 70 27 64 36 -2 5 -12 5 -22 2 -15 -6 -15 -5 -3 10 12 15 11
17 -7 17 -20 0 -20 1 4 25 14 14 29 25 33 25 5 0 14 7 21 15 10 12 7 15 -17
20 -55 13 -60 16 -33 27 14 6 39 10 55 11 17 0 22 2 12 4 -28 7 -9 23 29 23
36 0 47 15 17 23 -10 3 -40 5 -68 6 -89 2 -118 12 -108 37 5 13 19 15 80 11
79 -5 97 -12 73 -27 -12 -8 -11 -10 5 -11 60 -5 118 0 128 10 8 8 5 11 -14 11
-21 1 -22 2 -6 11 10 6 31 8 46 4 16 -3 32 -2 35 3 7 12 -88 42 -141 44 -60 2
-64 6 -51 58 14 55 25 64 50 40 19 -18 104 -37 115 -26 4 3 -9 12 -27 20 -34
14 -50 53 -23 53 8 0 11 -7 8 -15 -3 -10 0 -12 10 -8 9 3 15 0 15 -9 0 -9 6
-12 15 -9 8 4 15 1 15 -7 0 -7 3 -9 6 -6 4 3 16 1 27 -5 20 -10 20 -10 -1 23
-12 19 -26 33 -31 32 -6 -2 -29 6 -53 16 -46 21 -38 29 9 10 15 -7 42 -13 58
-15 45 -4 160 -30 174 -39 9 -5 10 -2 2 11 -5 11 -12 27 -15 37 -3 9 -15 17
-28 17 -13 0 -18 4 -13 8 17 11 16 59 0 72 -8 7 -15 21 -15 31 0 10 -9 24 -20
32 -19 13 -18 14 10 14 17 0 30 -4 30 -9 0 -9 9 -21 40 -55 13 -15 13 -16 -2
-10 -10 3 -18 3 -18 -2 0 -5 10 -11 23 -15 16 -4 19 -8 9 -14 -10 -7 -10 -11
3 -22 13 -11 15 -10 9 4 -3 9 -1 16 6 16 6 0 8 6 5 13 -4 6 -1 5 7 -4 16 -19
56 -31 64 -18 3 5 -4 18 -15 30 -11 12 -17 28 -14 35 4 10 0 13 -13 8 -11 -3
-8 1 6 10 14 8 20 15 13 16 -7 0 -10 7 -7 15 4 8 1 15 -5 15 -6 0 -11 9 -11
20 0 11 -7 20 -15 20 -8 0 -22 14 -30 30 -9 17 -20 28 -25 25 -6 -4 -10 1 -10
9 0 9 -5 16 -12 16 -6 0 -9 2 -6 5 6 7 58 -15 58 -25 0 -3 17 -24 37 -46 20
-21 46 -57 58 -79 13 -24 30 -41 43 -43 12 -2 28 -12 36 -23 7 -11 19 -19 26
-17 7 2 16 -6 19 -17 10 -36 35 -61 61 -61 14 0 34 -4 45 -9 14 -6 11 2 -12
26 -18 19 -33 41 -33 49 0 8 -14 30 -30 49 -45 50 -36 57 20 16 27 -20 54 -34
58 -31 5 3 17 -1 28 -8 10 -8 24 -12 31 -9 17 7 62 -29 63 -49 0 -10 6 -18 13
-19 6 0 28 -20 47 -44 19 -24 39 -44 43 -44 5 -1 15 -8 23 -16 9 -8 23 -15 32
-15 30 -1 55 -28 56 -60 1 -31 2 -31 41 -25 26 3 46 1 56 -7 23 -19 68 -83 79
-112 5 -14 14 -26 19 -26 8 0 7 19 -4 55 -1 6 -3 14 -3 19 0 5 -6 13 -14 17
-8 6 -5 8 12 5 14 -3 29 -5 33 -5 4 -1 15 -18 23 -38 14 -32 17 -35 26 -19 7
12 7 21 -1 29 -6 6 -11 19 -11 29 0 22 27 14 34 -10 2 -10 2 1 -1 22 -6 39 -6
39 14 20 11 -10 24 -29 27 -41 4 -13 12 -23 18 -23 7 0 9 37 6 116 -3 66 -2
110 3 103 5 -8 9 -52 10 -99 l1 -85 19 63 c11 34 24 62 29 62 6 0 10 -21 10
-47 0 -29 4 -43 9 -38 12 13 19 125 8 118 -5 -3 -7 4 -5 16 4 31 22 27 28 -7
4 -25 8 -28 26 -22 17 7 21 15 18 40 -3 21 0 29 7 24 8 -4 9 -28 5 -70 -5 -45
-3 -64 5 -64 7 0 9 9 6 22 -4 12 -1 29 6 37 8 9 13 64 14 165 1 151 7 254 15
262 3 2 5 -2 6 -8 1 -12 1 -265 0 -343 -1 -46 5 -75 15 -75 5 0 5 10 2 21 -5
14 -3 19 3 15 16 -10 35 69 27 113 -4 24 -1 47 9 66 9 17 16 47 16 67 0 63 14
79 21 23 5 -47 6 -48 16 -25 16 34 16 8 1 -81 -7 -47 -14 -66 -20 -57 -7 9 -8
7 -6 -7 2 -11 7 -18 12 -17 5 2 13 -2 17 -10 6 -9 9 -8 9 8 0 11 7 29 15 40 8
10 15 36 15 57 0 32 2 36 14 25 15 -15 7 -109 -12 -144 -15 -29 -19 -87 -5
-91 7 -3 14 13 18 44 6 48 41 137 61 157 5 6 27 36 47 66 32 48 37 62 37 115
0 33 4 66 9 74 5 8 8 -29 7 -90 0 -57 -5 -107 -10 -111 -6 -3 -18 -26 -28 -50
-17 -40 -18 -41 -15 -11 5 44 -8 33 -27 -24 -17 -51 -22 -108 -7 -84 7 11 9
11 14 0 3 -8 6 -4 6 9 1 12 6 22 12 22 5 0 7 -5 4 -11 -11 -16 -12 -89 -2 -89
10 0 29 18 46 45 12 19 12 18 6 -5 -15 -65 -17 -85 -8 -75 14 16 35 84 28 95
-3 5 3 30 15 54 11 25 20 52 20 60 0 9 5 16 11 16 6 0 7 6 2 12 -4 7 -6 26 -4
43 3 33 -7 30 -14 -4 -9 -47 -51 -167 -62 -179 -7 -7 -13 -18 -13 -23 0 -5 -4
-9 -10 -9 -12 0 -14 27 -2 32 4 2 20 37 34 78 21 64 25 89 22 168 -1 51 0 91
4 88 4 -2 7 12 6 32 0 26 -4 36 -13 34 -11 -2 -12 7 -8 40 3 23 11 44 16 46 6
2 8 9 5 14 -4 6 -3 8 3 5 5 -3 8 -19 5 -35 -2 -16 1 -33 7 -36 6 -4 11 -17 12
-29 0 -21 1 -21 8 -2 4 11 5 31 1 44 -4 16 1 40 13 64 13 27 16 48 11 66 l-8
26 -5 -30 c-6 -28 -41 -50 -41 -25 0 6 4 9 9 6 13 -8 20 68 10 111 -15 64 -12
93 10 93 23 0 29 26 20 88 -3 23 -2 42 3 42 4 0 8 12 8 28 1 26 1 26 15 8 14
-19 15 -18 15 17 0 20 -6 40 -14 44 -7 4 -16 26 -20 48 -5 34 -4 37 7 21 6
-11 20 -28 30 -38 9 -10 17 -22 17 -28 0 -5 7 -10 15 -10 9 0 27 -12 40 -26
l24 -25 11 22 c7 12 9 34 6 50 -3 15 -1 31 4 34 6 4 10 -9 10 -29 0 -19 4 -37
9 -40 5 -3 12 -22 15 -41 4 -19 16 -39 26 -45 11 -6 25 -29 31 -53 6 -23 21
-61 31 -84 17 -37 22 -41 39 -33 23 13 23 14 5 43 -8 12 -17 33 -21 47 -6 20
-5 23 6 13 20 -19 27 -16 31 15 3 26 4 26 26 -16 13 -24 29 -45 37 -49 8 -3
15 -12 15 -20 0 -8 4 -12 10 -8 5 3 15 -22 22 -55 11 -56 13 -59 24 -38 8 15
9 29 3 40 -5 9 -9 31 -9 49 0 26 2 29 14 20 8 -7 18 -27 21 -44 11 -56 16 -67
28 -64 7 1 15 9 19 17 5 11 7 10 7 -5 1 -27 41 -62 51 -45 4 6 5 23 2 37 -3
18 -1 24 7 19 6 -4 11 -14 11 -22 0 -8 4 -22 9 -32 5 -9 17 -43 26 -74 9 -32
19 -58 22 -58 3 0 3 7 -1 15 -3 8 1 29 9 47 l14 33 1 -40 c1 -32 3 -36 10 -20
8 18 9 18 9 -5 1 -14 6 -32 11 -40 8 -13 11 -13 19 -1 5 7 13 11 19 7 6 -3 13
2 15 11 4 15 5 14 6 -3 1 -25 35 -59 50 -49 6 3 14 -1 17 -9 5 -12 10 -13 25
-5 16 8 19 6 19 -10 0 -11 -7 -27 -16 -36 -17 -17 -16 -29 2 -17 16 11 62 98
69 133 5 20 10 27 15 20 9 -15 1 -61 -14 -80 -8 -11 -8 -13 1 -7 9 5 13 0 14
-16 0 -22 1 -22 9 -3 12 28 12 8 -1 -59 -7 -42 -7 -62 0 -69 8 -8 11 -8 11 1
0 6 11 28 25 48 15 22 23 45 20 58 -3 11 1 39 9 61 9 23 15 31 15 20 1 -11 -3
-26 -8 -34 -6 -10 -5 -18 4 -25 12 -9 12 -17 -1 -51 -7 -22 -12 -46 -9 -53 3
-7 1 -11 -3 -8 -8 5 -35 -75 -47 -139 -6 -29 -6 -29 10 5 18 39 36 87 64 170
36 105 40 113 54 101 25 -20 7 -154 -24 -184 -11 -10 -19 -26 -19 -37 0 -10
-4 -22 -10 -25 -5 -3 -15 -15 -21 -27 -9 -16 -8 -19 1 -13 10 6 11 -2 7 -31
-6 -33 -5 -35 4 -14 6 14 11 29 12 35 1 5 12 19 24 32 11 12 33 46 48 75 45
89 63 119 83 142 10 11 36 50 57 86 48 80 190 293 208 312 7 7 39 43 70 80 31
37 71 82 89 101 112 116 141 149 126 144 -10 -4 -18 -2 -18 3 0 6 -8 10 -17
10 -15 0 -16 -2 -3 -10 14 -9 10 -9 -83 -12 -15 0 -25 -3 -23 -6 7 -6 -20 -32
-33 -32 -6 0 -11 4 -11 8 0 5 -20 6 -45 2 -44 -7 -69 2 -43 14 11 5 11 7 0 12
-19 9 -4 24 24 24 13 0 23 5 21 11 -2 12 55 20 87 12 15 -4 16 -7 5 -14 -11
-7 -11 -9 3 -9 9 0 23 6 30 14 23 22 58 30 58 12 0 -20 61 -31 89 -17 34 19
24 31 -20 26 -23 -3 -46 -8 -50 -11 -16 -9 -9 19 9 39 17 20 16 20 -13 12 -46
-14 -91 -10 -109 8 -15 14 -10 15 56 12 46 -2 64 -1 48 4 -22 7 -20 9 15 10
73 3 85 5 85 12 0 7 74 19 122 20 14 0 31 6 37 13 9 11 -8 14 -91 18 -57 3
-112 9 -123 13 l-20 8 20 -16 c18 -15 18 -16 3 -17 -10 0 -18 -4 -18 -10 0 -6
-30 -10 -71 -10 -69 0 -115 -13 -104 -30 3 -4 -5 -6 -17 -3 -19 4 -20 3 -8 -6
13 -9 12 -11 -5 -12 -94 -7 -126 -12 -142 -22 -20 -13 -26 14 -7 28 11 9 14
14 7 15 -7 0 -13 9 -13 20 0 12 -7 20 -17 21 -16 0 -16 1 1 12 11 7 34 26 52
44 18 17 42 34 54 38 11 3 20 11 20 16 0 12 -82 -21 -96 -39 -6 -8 -13 -11
-17 -6 -3 5 0 16 6 25 17 22 93 60 109 54 8 -3 22 1 33 9 14 10 23 11 36 3 13
-8 24 -8 42 2 15 8 38 11 58 7 24 -4 28 -3 14 3 -16 7 -12 10 27 16 25 4 57 7
70 6 12 0 32 -1 43 -1 57 -3 95 5 95 18 0 11 -9 13 -35 9 -24 -4 -34 -2 -32 6
1 7 -4 11 -12 9 -7 -1 -19 2 -26 8 -10 8 -25 8 -49 2 -19 -6 -37 -7 -40 -4 -8
7 -86 -19 -86 -30 0 -4 -16 -8 -35 -8 -23 0 -35 -5 -35 -14 0 -10 -7 -12 -21
-9 -21 6 -21 7 -4 20 25 17 8 17 -45 -2 -60 -21 -62 -19 -10 12 25 14 48 32
52 38 4 7 21 18 38 25 16 7 27 16 24 21 -3 5 1 9 9 9 14 0 23 9 83 78 38 44
36 51 -8 28 -16 -8 -28 -12 -28 -8 1 16 50 62 72 66 30 6 108 41 132 60 24 20
12 35 -14 18 -23 -14 -84 -16 -75 -3 3 5 1 12 -5 16 -5 3 -10 10 -10 14 0 11
115 61 139 61 9 0 31 20 49 45 17 25 37 45 43 45 6 0 22 9 36 20 23 18 23 20
6 20 -10 0 -24 -5 -30 -11 -8 -8 -14 -5 -23 11 -12 23 -4 43 9 21 6 -10 11 -9
24 3 8 9 39 22 69 30 29 8 69 20 88 25 43 13 43 13 35 1 -3 -5 3 -10 14 -10
14 0 19 -5 15 -15 -4 -8 -10 -12 -15 -10 -5 3 -22 -1 -39 -10 -32 -17 -42 -32
-12 -20 30 11 141 15 147 5 3 -6 2 -10 -3 -10 -5 0 -9 -7 -9 -15 0 -9 18 -18
51 -25 65 -13 127 6 137 42 12 42 10 45 -36 46 -29 2 -45 -2 -45 -10 0 -9 -3
-9 -12 0 -7 7 -17 8 -28 2 -19 -10 -120 -9 -120 1 0 9 33 19 111 34 79 15 164
0 164 -29 0 -9 13 -32 29 -52 l28 -36 -21 -22 c-12 -13 -26 -40 -32 -60 -10
-37 -29 -49 -29 -18 0 13 -2 14 -9 3 -7 -10 -13 -11 -30 -1 -18 9 -27 8 -47
-5 -31 -20 -31 -39 1 -53 28 -13 35 -39 8 -27 -33 14 -92 22 -103 15 -7 -4 -9
-16 -6 -28 6 -17 3 -19 -14 -15 -14 4 -20 1 -20 -11 0 -20 7 -20 58 -2 38 14
62 8 62 -16 0 -4 9 -17 21 -29 27 -27 16 -38 -14 -13 -22 20 -73 22 -61 2 4
-6 -1 -8 -14 -4 -49 16 -246 -48 -212 -69 8 -5 8 -11 -1 -21 -10 -12 -10 -15
1 -12 8 2 15 -4 17 -13 4 -14 -2 -15 -42 -6 -25 6 -45 14 -45 18 0 4 -13 2
-30 -4 -16 -6 -30 -14 -30 -18 0 -3 32 -9 72 -12 41 -4 75 -12 80 -19 6 -10
10 -10 17 2 6 8 13 11 17 7 4 -4 -1 -13 -11 -21 -17 -12 -16 -13 10 -20 20 -5
33 -2 44 8 14 15 14 16 -1 16 -19 0 -60 48 -52 61 3 5 -2 6 -10 3 -9 -3 -16
-1 -16 6 0 6 10 10 23 8 12 -2 22 -9 22 -17 0 -8 9 -19 20 -25 60 -32 67 -38
55 -46 -8 -5 -3 -9 14 -12 14 -3 23 -1 20 4 -7 11 97 -1 110 -13 5 -4 23 -6
40 -3 l31 6 -25 -20 c-29 -24 -90 -35 -83 -15 6 15 2 15 -137 17 -73 1 -94 4
-92 14 1 8 -2 11 -9 6 -9 -5 -10 -2 -6 9 9 24 -10 21 -23 -2 -14 -27 -13 -30
10 -24 14 4 20 0 20 -10 0 -18 59 -33 86 -23 8 3 22 0 30 -8 11 -11 22 -12 46
-5 43 12 51 11 45 -3 -2 -7 2 -20 10 -29 12 -15 9 -16 -36 -17 -30 -1 -66 -10
-92 -23 -38 -21 -40 -23 -24 -36 10 -7 33 -16 52 -19 34 -7 46 -24 16 -24 -15
0 -16 -2 -3 -10 21 -14 30 -12 30 4 0 8 4 18 10 21 6 3 7 -1 4 -9 -6 -16 7
-19 86 -18 23 0 23 0 3 -5 -13 -2 -23 -9 -23 -14 0 -5 -8 -9 -17 -9 -14 -1
-11 -6 12 -26 l30 -26 -93 6 c-85 6 -172 -6 -172 -23 0 -7 -40 -25 -80 -37
-22 -6 -23 -5 -12 9 10 12 10 16 0 20 -7 3 -2 6 12 8 14 1 30 3 37 3 6 1 15 5
19 9 4 4 18 7 31 7 13 0 31 9 40 20 10 11 25 20 35 20 37 0 25 18 -17 24 -54
9 -134 -2 -155 -19 -8 -7 -28 -20 -45 -29 l-30 -17 33 4 c39 4 41 0 7 -13 -18
-7 -32 -6 -45 2 -14 9 -22 9 -34 -1 -20 -17 -21 -31 -1 -31 8 0 15 5 15 10 0
6 5 10 11 10 5 0 7 -4 4 -10 -8 -14 18 -13 32 1 6 6 17 8 24 3 19 -12 -59 -35
-95 -28 -27 4 -41 -2 -96 -46 -124 -99 -315 -311 -411 -456 -121 -182 -286
-461 -277 -469 11 -12 73 75 84 119 3 14 13 26 21 26 8 0 12 4 8 10 -3 5 3 18
13 28 11 11 22 26 24 33 3 8 8 12 10 9 3 -3 -8 -33 -25 -68 -22 -46 -33 -60
-39 -50 -6 9 -7 6 -3 -8 3 -12 1 -33 -5 -48 -5 -15 -6 -25 -1 -21 5 3 15 22
21 41 9 27 15 33 21 23 7 -11 9 -11 9 2 0 9 7 22 15 29 13 11 15 8 15 -14 0
-15 -9 -44 -20 -65 -10 -21 -31 -65 -44 -97 l-26 -59 40 44 c22 24 40 51 40
60 1 14 3 13 15 -3 13 -17 11 -23 -17 -58 -17 -21 -27 -42 -23 -46 4 -4 10 -1
12 6 3 6 9 10 14 6 5 -3 8 0 7 8 -2 7 3 12 10 10 8 -1 11 2 7 7 -7 12 61 117
80 125 7 2 16 -2 19 -10 3 -9 1 -12 -4 -9 -9 6 -14 -8 -11 -27 0 -5 -4 -8 -9
-8 -6 0 -10 -7 -10 -15 0 -15 20 -22 20 -7 1 19 100 106 100 86 0 -7 -111
-152 -139 -181 -12 -12 -21 -25 -21 -28 0 -5 96 61 118 82 15 15 52 36 52 30
0 -2 -11 -17 -26 -33 -41 -47 -52 -74 -15 -40 17 17 31 26 31 21 0 -4 8 -1 18
7 9 9 33 23 52 32 28 14 31 14 15 1 -35 -27 -105 -99 -100 -103 2 -2 10 2 18
9 8 8 40 34 70 59 31 25 59 53 62 63 4 9 11 17 17 17 6 0 17 8 25 18 10 12 9
7 -2 -16 -9 -19 -58 -74 -108 -124 -80 -79 -98 -103 -47 -63 8 6 33 22 55 35
36 21 38 22 23 4 -10 -12 -18 -24 -18 -27 0 -7 101 52 110 64 3 3 16 9 30 13
24 7 24 6 -5 -18 -16 -14 -48 -41 -70 -60 -22 -20 -43 -36 -47 -36 -5 0 -8 -7
-8 -15 0 -12 10 -10 50 10 62 31 66 31 41 -2 -26 -31 -22 -37 13 -23 18 6 25
6 21 0 -8 -13 1 -13 27 1 25 13 78 29 78 24 0 -3 -12 -11 -27 -19 -16 -8 -41
-26 -57 -40 -16 -14 -33 -26 -38 -26 -5 0 -17 -8 -26 -17 -16 -16 -16 -16 3
-10 76 23 117 42 122 53 3 8 17 14 32 14 15 0 35 6 46 14 11 7 31 17 45 21
l25 7 -27 -21 c-14 -11 -31 -21 -37 -21 -6 0 -11 -4 -11 -8 0 -4 -47 -32 -105
-62 -58 -30 -116 -65 -128 -78 l-22 -24 40 7 c22 3 59 13 83 22 24 8 46 12 49
9 4 -3 0 -6 -8 -6 -20 0 -60 -30 -54 -40 4 -7 66 2 105 16 13 4 13 6 0 14 -8
6 -10 10 -5 10 6 0 27 4 47 9 47 11 41 -2 -13 -29 -21 -11 -39 -22 -39 -23 0
-2 42 -1 93 1 50 2 89 1 85 -3 -3 -3 -41 -15 -84 -26 -43 -11 -80 -22 -83 -25
-6 -6 92 0 174 11 22 3 36 2 30 -2 -5 -5 -10 -15 -10 -23 0 -13 -69 -26 -215
-40 -8 -1 0 -6 19 -12 27 -7 31 -12 20 -19 -9 -7 6 -9 48 -8 35 2 66 -1 70 -4
3 -4 36 -7 72 -8 36 0 60 -3 53 -6 -25 -10 -11 -23 26 -23 27 0 33 -3 22 -10
-8 -5 -28 -10 -45 -11 -16 0 -46 -6 -65 -14 l-35 -13 45 -8 c43 -8 44 -8 15
-14 l-30 -6 42 -14 c23 -7 40 -17 37 -21 -2 -4 -51 -6 -107 -4 -70 3 -91 2
-67 -4 56 -14 234 -46 248 -45 20 3 14 -17 -7 -23 -26 -7 -16 -31 18 -46 26
-11 26 -11 -12 -15 -30 -3 -37 -7 -33 -19 5 -13 1 -14 -25 -9 -17 3 -37 6 -43
6 -6 0 -5 4 3 9 14 9 -12 15 -114 27 -27 3 -54 9 -60 13 -5 4 -32 9 -59 10
-59 3 -55 -14 7 -24 23 -4 60 -16 81 -26 22 -11 46 -19 54 -19 8 0 20 -7 26
-16 6 -8 19 -16 29 -18 16 -2 25 -15 12 -17 -8 -1 -56 10 -170 37 -55 13 -127
26 -160 28 -33 2 -87 9 -120 15 -136 25 -282 5 -392 -52 -34 -18 -129 -109
-164 -155 -13 -19 -29 -39 -34 -45 -30 -34 -93 -137 -103 -167 -7 -19 -13
-103 -14 -187 -3 -144 -2 -153 18 -172 12 -11 24 -25 26 -31 2 -6 33 -18 69
-25 36 -8 96 -26 134 -40 165 -62 208 -74 290 -80 75 -6 90 -4 125 14 46 24
64 27 37 7 -35 -27 1 -25 59 4 102 49 184 143 235 270 33 82 85 170 100 170 4
0 11 -5 15 -11 3 -6 19 -9 35 -5 22 4 29 2 29 -9 0 -21 7 -19 51 16 21 17 42
28 47 25 5 -3 28 13 51 35 24 21 51 39 60 39 9 0 25 7 35 15 10 8 23 12 28 9
5 -3 17 1 26 9 19 15 52 29 52 21 0 -3 -11 -16 -25 -30 -14 -14 -23 -30 -19
-35 3 -5 0 -16 -6 -24 -16 -20 -3 -19 16 0 9 8 27 18 42 21 15 4 38 15 52 24
52 35 63 29 18 -10 -32 -28 -45 -45 -41 -59 4 -18 6 -18 43 3 21 11 42 17 47
13 4 -5 0 -13 -9 -18 -17 -9 -42 -78 -33 -88 3 -2 33 5 68 17 34 12 83 23 110
24 26 1 47 5 47 10 0 5 5 6 10 3 6 -4 16 -2 23 3 7 5 23 12 37 15 31 7 75 -27
84 -65 7 -31 1 -35 -23 -14 -21 18 -88 30 -96 16 -3 -5 -14 -10 -24 -10 -11 0
-29 -9 -42 -20 -13 -11 -19 -20 -14 -19 6 1 20 1 33 0 26 -1 30 -21 5 -21 -10
-1 -29 -8 -43 -16 l-25 -15 25 4 c14 3 33 8 43 12 17 7 18 6 6 -13 -17 -27
-13 -30 41 -36 25 -3 60 -8 79 -12 26 -5 37 -3 47 11 19 25 7 46 -22 39 -28
-7 -30 3 -8 34 15 22 17 23 35 6 11 -10 17 -24 15 -31 -3 -7 -1 -15 4 -18 4
-3 7 -16 6 -29 -2 -19 3 -26 22 -31 34 -8 39 4 36 88 -2 61 0 69 11 54 8 -12
15 -14 20 -8 10 17 -4 31 -28 31 -16 0 -26 9 -34 31 -11 28 -10 30 10 29 37
-3 48 0 41 11 -3 6 -15 9 -25 6 -11 -3 -19 -1 -19 4 0 5 7 9 15 9 8 0 12 6 9
14 -6 16 41 56 66 56 11 0 20 10 23 29 3 16 13 35 21 42 40 36 42 37 64 19 29
-24 28 -30 -10 -91 -20 -32 -33 -69 -36 -100 -2 -27 -8 -47 -12 -44 -11 7 -21
-37 -11 -49 5 -6 17 -46 26 -90 10 -43 25 -87 34 -97 32 -35 41 -48 41 -59 0
-5 11 -31 25 -57 35 -68 114 -239 137 -298 25 -64 29 -68 60 -56 21 8 29 6 44
-11 18 -19 18 -20 0 -33 -10 -8 -24 -11 -32 -8 -8 3 -14 -1 -14 -8 0 -7 3 -10
6 -6 4 3 19 0 35 -8 15 -8 30 -15 33 -15 2 0 5 138 6 306 l1 306 -33 -5 c-18
-3 -46 -8 -63 -11 -26 -5 -26 -4 -5 3 22 7 21 8 -17 12 -23 2 -50 2 -60 -2
-43 -16 -58 52 -25 110 33 58 126 78 172 36 20 -18 30 -19 30 -2 0 20 -65 47
-112 47 -47 0 -96 -27 -133 -73 l-25 -32 6 45 c16 114 106 165 219 125 21 -8
41 -12 44 -9 2 2 -8 18 -24 34 -25 26 -36 30 -81 30 -29 0 -54 5 -56 11 -2 6
-39 -24 -81 -66 l-78 -77 4 39 c7 63 37 113 86 140 80 45 164 41 199 -9 24
-33 32 -19 32 57 l0 75 -30 -2 c-20 -2 -29 -7 -26 -15 3 -7 1 -13 -4 -13 -9 0
-14 15 -11 33 1 4 -8 3 -19 -3 -16 -9 -22 -8 -27 6 -3 9 -1 19 4 23 5 3 15 22
22 41 6 19 21 44 33 57 24 25 16 32 -9 8 -26 -26 -28 -7 -3 27 15 21 18 29 8
26 -11 -5 -14 0 -12 19 2 21 -1 24 -19 19 -12 -3 -25 -6 -29 -6 -14 0 4 -30
18 -30 8 0 11 -6 8 -15 -5 -13 -9 -13 -22 -3 -13 11 -15 10 -9 -10 5 -21 3
-23 -18 -18 l-24 6 24 -24 c30 -31 43 -75 24 -87 -8 -4 -19 -3 -28 4 -12 10
-13 6 -7 -28 5 -31 4 -36 -4 -22 -6 9 -21 17 -34 17 -13 0 -38 3 -55 6 -27 6
-31 10 -31 41 0 35 15 72 34 85 6 4 25 8 41 8 29 1 29 2 7 11 -13 5 -35 6 -48
3 -43 -11 -28 22 17 36 32 11 45 11 60 2 10 -7 22 -12 26 -12 5 0 0 5 -9 11
-25 14 -22 29 6 29 13 0 26 7 30 15 3 8 12 15 21 15 8 0 15 7 15 15 0 8 9 15
21 15 11 0 17 4 14 10 -3 5 5 15 19 22 24 10 26 16 25 77 0 50 -2 61 -9 43 -5
-12 -16 -25 -24 -28 -9 -3 -18 -13 -21 -22 -5 -18 -92 -69 -101 -60 -3 3 8 25
24 49 81 124 66 281 -38 387 -18 17 -38 32 -45 32 -6 0 -27 8 -46 17 -24 13
-58 18 -121 18 -80 0 -86 1 -77 18 6 9 14 15 20 12 5 -4 9 -1 9 4 0 6 19 11
43 11 59 0 84 9 90 31 7 27 70 26 96 -2 12 -13 26 -19 36 -16 8 4 31 -2 50
-13 20 -11 40 -20 46 -20 15 0 47 -33 58 -60 9 -21 10 -16 8 30 -2 51 -4 56
-42 81 -22 15 -43 25 -47 23 -4 -3 -22 10 -39 28 l-32 33 7 -28 7 -29 -43 8
c-24 4 -55 7 -70 6 -41 -2 -35 21 12 47 22 12 40 26 40 31 0 5 14 22 30 38 17
17 30 38 30 46 0 9 8 16 20 16 11 0 20 7 20 16 0 11 -6 14 -21 9 -16 -6 -20
-3 -17 11 1 9 9 19 17 22 9 3 11 0 6 -8 -6 -10 -4 -12 8 -7 16 6 82 -32 105
-61 10 -13 12 70 12 422 0 289 -3 435 -10 431 -5 -3 -10 -13 -10 -21 0 -8 -4
-12 -10 -9 -15 9 -12 19 10 45 23 27 26 60 5 60 -8 0 -19 -9 -25 -20 -6 -11
-17 -20 -25 -20 -8 0 -15 -5 -15 -11 0 -5 -4 -8 -9 -5 -12 8 20 76 35 76 7 0
14 7 18 15 3 8 12 12 21 9 10 -4 15 0 15 15 0 12 -6 21 -15 21 -10 0 -15 7
-13 18 3 14 -4 17 -42 14 -24 -2 -47 -8 -51 -13 -4 -7 -16 -8 -29 -4 -21 7
-22 5 -15 -21 5 -16 8 -44 7 -62 -1 -20 2 -31 8 -27 6 4 10 -5 10 -19 0 -27
-15 -35 -23 -13 -4 9 -6 9 -6 -1 -1 -7 -5 -10 -11 -7 -6 3 -10 -1 -10 -9 0
-18 -16 -22 -22 -5 -3 9 -14 8 -43 -1 l-40 -13 30 -13 30 -12 -49 -7 c-32 -5
-56 -4 -68 4 -27 17 -40 14 -33 -9 3 -11 2 -20 -4 -20 -5 0 -11 7 -13 16 -2
13 -8 11 -33 -10 -32 -28 -45 -32 -45 -15 0 6 -7 3 -16 -5 -8 -9 -18 -16 -20
-16 -17 0 -65 67 -79 112 -10 29 -22 59 -27 65 -7 9 -5 23 5 45 8 18 18 49 22
68 11 54 30 84 84 132 97 88 241 103 337 37 60 -40 144 -124 144 -143 0 -8 7
-16 15 -20 13 -5 15 19 15 175 0 177 0 180 -20 169 -11 -6 -20 -7 -20 -3 0 4
-5 2 -12 -5 -7 -7 -18 -12 -25 -12 -24 0 -13 25 21 47 25 16 33 29 34 51 0 17
6 40 12 51 6 13 10 89 9 205 -1 181 -1 185 -20 173 -17 -10 -23 -8 -39 13 -11
14 -20 33 -20 44 0 20 31 52 61 61 18 6 19 20 19 215 0 172 -3 211 -15 224
-15 14 -11 46 6 46 5 0 9 20 9 45 0 40 -4 48 -29 62 -60 35 -61 70 -2 108 24
16 31 27 31 54 0 29 -2 32 -16 20 -20 -17 -34 2 -34 48 0 53 -38 139 -85 191
-62 69 -146 106 -228 100 -43 -3 -64 -10 -76 -24 -15 -18 -97 -31 -86 -13 3 4
-6 9 -20 11 l-26 3 23 30 c39 50 79 85 122 104 l41 19 -84 1 c-73 1 -88 -2
-107 -20 l-23 -21 -13 21 c-11 18 -23 21 -75 21 -70 0 -65 7 -83 -109 -11 -66
-10 -75 4 -83 21 -12 20 -27 -5 -54 -22 -24 -41 -126 -34 -184 3 -19 7 -57 9
-85 3 -27 8 -60 12 -73 l7 -23 14 21 c14 20 16 20 62 -29 27 -28 51 -48 55
-44 3 3 6 1 6 -5 0 -11 -20 -17 -43 -13 -4 0 -7 -6 -7 -14 0 -8 -8 -15 -17
-15 -14 0 -15 -2 -4 -9 10 -6 10 -10 1 -16 -9 -6 -9 -10 1 -16 16 -10 73 -12
82 -3 13 13 -5 32 -26 27 -22 -4 -22 -4 -2 12 12 9 21 11 23 5 2 -5 13 -10 23
-10 11 0 17 -5 14 -10 -3 -6 2 -13 12 -17 10 -4 24 -13 31 -20 17 -16 48 -17
58 -1 4 7 7 27 6 46 -2 21 1 31 8 27 5 -3 10 1 10 9 0 10 -9 16 -24 16 -21 0
-24 5 -24 36 0 35 28 74 54 74 25 0 62 -23 67 -41 3 -11 2 -17 -2 -14 -4 2
-17 -2 -28 -10 -19 -14 -20 -22 -16 -152 2 -76 7 -145 10 -153 4 -8 7 -17 7
-20 1 -3 7 -14 13 -26 7 -12 8 -25 2 -35 -7 -11 -9 -9 -9 9 0 13 -4 21 -9 17
-6 -3 -8 -22 -7 -43 2 -20 -2 -52 -10 -69 -7 -18 -10 -34 -6 -34 4 -1 -6 -4
-23 -8 -23 -5 -29 -12 -28 -29 2 -12 -2 -22 -8 -22 -13 0 -57 -49 -65 -73 -4
-14 -12 -17 -31 -12 -23 5 -24 5 -9 -10 20 -20 21 -36 2 -29 -20 8 -29 -12
-16 -36 6 -12 7 -20 1 -20 -5 0 -12 8 -15 18 -3 9 -18 25 -33 35 l-28 17 30
-2 c24 -2 29 1 27 15 -2 10 2 25 9 34 15 18 12 98 -4 124 -7 11 -18 19 -25 19
-8 0 -19 13 -25 29 -10 26 -12 28 -23 13 -7 -9 -16 -13 -20 -9 -5 4 -2 12 6
17 12 8 9 10 -10 10 -15 0 -31 -9 -38 -21 l-14 -21 -29 28 c-35 33 -37 69 -7
101 18 20 19 23 5 23 -14 0 -16 6 -11 25 5 19 2 25 -10 25 -9 0 -16 6 -16 14
0 9 -8 12 -25 8 -14 -2 -25 -11 -25 -18 0 -8 -7 -14 -15 -14 -8 0 -15 -6 -15
-14 0 -9 -18 -16 -51 -20 -42 -6 -58 -14 -92 -49 -23 -23 -60 -55 -82 -70 -22
-15 -58 -43 -80 -63 -38 -33 -39 -34 -10 -23 80 32 375 63 360 39 -3 -5 4 -11
15 -15 11 -3 20 -11 20 -16 0 -5 5 -9 11 -9 5 0 7 5 4 10 -3 6 3 10 14 10 12
0 21 -6 21 -12 0 -10 3 -9 9 1 6 9 10 4 13 -18 l5 -31 -58 0 c-61 0 -139 -32
-139 -57 0 -7 -6 -10 -15 -7 -8 4 -23 3 -32 -1 -17 -6 -17 -7 1 -21 22 -16 60
-19 51 -4 -3 6 1 10 10 10 12 0 14 -4 6 -19 -11 -20 -99 -40 -110 -24 -9 11
-116 9 -181 -4 -96 -20 -140 -24 -140 -13 0 6 18 17 40 26 22 9 40 20 40 26 0
5 6 8 13 7 6 -1 19 1 27 4 8 4 35 13 60 21 41 13 43 14 15 16 -29 1 -29 2 -7
11 13 5 28 7 33 4 5 -4 26 -1 46 4 24 7 41 7 47 1 15 -15 67 -12 100 5 15 8
35 15 43 15 8 0 11 5 8 10 -4 6 -21 8 -40 4 -19 -3 -49 0 -69 7 -27 10 -48 10
-93 2 -45 -9 -63 -8 -78 1 -17 11 -25 10 -50 -5 -16 -10 -38 -18 -47 -18 -10
-1 -24 -12 -33 -24 -8 -13 -26 -30 -40 -37 -13 -7 -22 -17 -19 -22 3 -4 -2 -8
-11 -8 -26 0 -48 -27 -37 -46 5 -9 12 -15 15 -15 19 3 21 0 7 -9 -25 -16 -39
-12 -33 10 6 23 -12 27 -21 5 -3 -8 -10 -15 -15 -15 -6 0 -8 7 -5 15 7 17 -7
20 -23 4 -8 -8 -13 -8 -17 0 -4 6 0 11 8 11 9 0 16 4 16 9 0 5 9 13 20 16 11
3 20 13 20 20 0 25 -22 28 -52 5 -37 -28 -46 -21 -13 10 14 13 25 28 25 35 0
10 22 33 47 48 14 9 45 -2 37 -14 -3 -5 1 -9 8 -9 15 0 61 40 93 81 11 14 28
28 38 32 10 4 17 17 17 31 0 29 -34 40 -119 37 -71 -2 -125 -27 -183 -86 -47
-46 -58 -65 -38 -65 6 0 10 7 10 16 0 9 5 12 12 8 6 -4 16 -1 22 7 43 55 196
109 196 69 0 -7 -69 -55 -131 -90 -15 -8 -43 -28 -64 -45 -83 -68 -99 -79
-111 -81 -8 -1 -14 3 -15 9 -2 42 -8 79 -13 84 -8 8 -296 9 -296 1 0 -14 -48
-20 -69 -8 -26 14 -26 29 0 85 38 81 130 118 226 90 62 -18 109 -60 144 -127
15 -29 25 -38 45 -38 20 0 25 4 21 18 -2 9 -6 24 -8 32 -2 8 -18 25 -34 36
-17 12 -56 47 -88 77 -40 39 -69 58 -94 63 -41 8 -179 -11 -198 -26 -7 -5 -15
-7 -18 -3 -4 3 -7 0 -7 -8 -1 -10 -3 -9 -11 4 -5 9 -19 17 -29 17 -51 0 -25
49 55 101 40 27 64 49 63 59 -4 21 -48 40 -108 47 -44 5 -54 3 -71 -16 -21
-22 -39 -20 -39 5 0 8 -4 14 -10 14 -5 0 -10 10 -10 22 0 12 -8 30 -17 40 -16
18 -16 20 12 43 36 29 48 30 66 9 15 -19 73 -14 151 12 44 14 49 14 91 -6 24
-11 56 -34 72 -50 25 -26 26 -31 15 -57 -11 -25 -18 -28 -57 -29 -44 0 -81
-23 -69 -42 3 -6 29 -15 56 -21 57 -12 125 -44 157 -73 14 -13 28 -18 42 -13
l21 6 -20 29 c-11 15 -20 32 -20 37 0 13 -44 53 -58 53 -13 0 -15 10 -6 34 3
9 18 16 33 16 36 1 66 24 48 38 -9 7 -12 38 -11 101 3 124 12 137 163 215 34
17 39 18 86 3 67 -22 97 -30 115 -32 33 -4 101 -39 116 -59 14 -20 16 -20 29
-3 7 10 26 22 41 26 18 5 30 16 34 31 9 36 35 48 59 26 18 -16 23 -17 38 -5
28 23 93 89 93 94 0 3 9 15 20 27 24 26 25 32 4 49 -12 10 -22 10 -50 0 -20
-7 -38 -10 -41 -7 -4 3 -3 6 2 6 4 0 2 6 -4 13 -8 11 -2 19 28 39 37 24 40 25
44 7 3 -11 12 -19 20 -19 28 0 47 30 47 72 0 32 -6 46 -31 69 -19 18 -41 29
-58 28 -20 -1 -21 -2 -6 -6 66 -14 94 -60 71 -114 -7 -18 -15 -26 -18 -19 -2
7 -14 14 -27 15 -12 1 -26 6 -29 12 -4 5 -19 13 -35 17 -23 5 -26 10 -21 30 7
27 -20 76 -42 76 -8 0 -14 5 -14 10 0 6 -84 10 -232 10 l-232 0 -28 -27 -27
-26 -40 26 -41 27 -570 0 c-313 0 -570 -3 -570 -7 0 -5 7 -16 14 -26 8 -10 12
-26 9 -37 -4 -16 3 -20 44 -26 87 -12 110 -38 46 -50 -52 -9 -82 -26 -121 -67
-30 -31 -32 -37 -20 -56 7 -11 20 -21 29 -21 9 0 22 -7 29 -15 7 -8 18 -15 25
-15 20 0 105 -124 93 -136 -2 -2 -16 0 -31 4 -39 10 -137 2 -137 -11 0 -7 23
-34 50 -60 28 -27 50 -54 50 -61 0 -8 7 -19 16 -27 9 -7 14 -22 11 -36 -2 -13
0 -26 4 -29 12 -7 12 -51 0 -58 -5 -3 -12 5 -15 19 -4 14 -13 25 -21 25 -7 0
-16 8 -19 18 -7 20 -62 55 -94 58 l-23 3 20 -28 c11 -15 28 -34 37 -42 9 -8
25 -32 35 -54 22 -47 26 -145 7 -145 -27 0 -62 -127 -60 -219 0 -28 -19 -51
-42 -51 -16 0 -40 35 -32 48 2 4 0 43 -5 87 -5 44 -11 111 -15 150 -3 38 -13
77 -20 86 -8 8 -14 21 -14 28 0 7 -6 11 -14 8 -8 -3 -16 -2 -18 4 -2 5 -19 0
-38 -10 -58 -33 -95 -50 -99 -46 -2 2 7 25 19 50 24 49 72 88 137 110 48 17
54 39 13 53 -16 6 -33 18 -36 27 -3 8 -12 15 -20 15 -17 0 -17 1 0 36 10 19
12 33 5 45 -6 13 -3 28 13 56 21 35 23 49 22 199 -1 88 -5 170 -8 182 l-7 22
-475 0 c-441 0 -474 -1 -474 -17 0 -33 -33 -104 -46 -99 -6 2 -19 -3 -28 -13
-18 -20 -21 -51 -6 -51 6 0 10 -13 10 -28 0 -40 -46 -82 -83 -75 -15 3 -27 11
-27 18 0 6 -12 17 -26 24 l-26 11 46 45 c25 24 46 46 46 48 0 26 -29 71 -56
88 -22 13 -33 27 -30 35 5 12 -46 14 -312 14 -234 0 -321 -3 -330 -12 -9 -9
-15 -9 -24 0 -9 9 -102 12 -355 12 -324 0 -343 -1 -334 -17 8 -16 4 -18 -36
-17 -31 0 -50 6 -58 17 -16 23 -32 21 -40 -2 -10 -32 -77 -47 -194 -42 -20 1
-23 5 -19 31 l5 30 -489 0 c-268 0 -488 -4 -488 -8 0 -5 14 -21 30 -36 34 -30
32 -39 -12 -62 -27 -14 -31 -14 -49 2 -20 18 -25 49 -10 58 5 3 11 15 14 26 5
19 1 20 -149 20 l-154 0 0 -375z m1110 313 c24 -13 46 -28 48 -35 6 -21 -37
-34 -111 -35 -130 -2 -157 23 -81 73 39 25 90 24 144 -3z m5010 3 c5 -11 10
-32 10 -47 0 -23 -2 -25 -15 -14 -20 17 -29 7 -16 -18 10 -20 4 -62 -9 -62 -4
0 -11 16 -14 36 -4 19 -10 42 -13 50 -3 8 1 14 11 14 9 0 16 4 16 9 0 11 -25
21 -53 21 -27 0 -11 17 23 23 45 8 49 7 60 -12z m-3092 -17 c14 -4 22 -14 22
-28 -1 -19 -1 -20 -11 -3 -6 10 -20 22 -32 27 -26 10 -12 12 21 4z m-2466 -21
c23 -21 23 -36 -1 -57 -35 -31 -82 14 -55 53 18 25 31 26 56 4z m5478 -14 c0
-5 -7 -9 -15 -9 -15 0 -20 12 -9 23 8 8 24 -1 24 -14z m-2116 -29 c19 -17 40
-29 46 -28 7 2 15 -3 18 -11 3 -10 0 -12 -12 -8 -10 4 -16 1 -16 -6 0 -7 -14
-26 -30 -42 l-30 -29 -20 22 c-14 15 -33 22 -56 22 -19 0 -44 5 -54 10 -14 7
-31 6 -60 -4 -37 -13 -43 -12 -63 4 -18 15 -20 21 -9 31 6 7 12 21 12 31 0 27
20 22 57 -14 l33 -32 38 36 c60 58 95 62 146 18z m2601 -46 c-15 -48 -35 -73
-35 -43 0 5 -4 7 -10 4 -18 -11 -11 11 10 30 11 10 17 22 14 27 -3 5 2 21 12
36 25 38 30 12 9 -54z m-1766 -1 l41 -37 -31 -13 c-26 -11 -30 -17 -25 -37 4
-18 2 -25 -11 -28 -27 -6 -62 20 -56 41 2 9 -3 23 -11 30 -9 8 -16 17 -16 22
0 10 51 59 62 59 3 0 25 -17 47 -37z m-4269 12 c7 -8 20 -15 30 -15 11 0 20
-10 24 -25 4 -14 11 -23 16 -20 6 3 10 2 10 -3 0 -5 13 -9 29 -9 26 0 36 -5
76 -40 15 -14 66 -37 77 -35 4 1 16 -14 28 -33 12 -19 25 -35 28 -35 4 0 21
-21 37 -45 17 -25 33 -45 36 -45 18 0 127 -124 196 -223 12 -18 29 -39 36 -47
8 -8 38 -50 67 -93 28 -43 58 -81 66 -84 8 -3 14 -11 14 -19 0 -8 4 -14 8 -14
4 0 18 -19 30 -42 12 -24 37 -62 55 -84 29 -38 55 -78 82 -126 6 -11 19 -17
35 -16 20 2 26 -2 28 -22 2 -14 10 -29 18 -33 8 -4 14 -15 14 -22 0 -8 5 -15
10 -15 6 0 10 -7 10 -15 0 -8 14 -28 30 -45 17 -17 30 -36 31 -43 1 -7 5 -1 9
13 8 25 8 25 10 -5 1 -16 2 -34 1 -39 -1 -4 1 -17 4 -27 7 -20 46 -21 53 -1 2
7 8 12 14 12 6 0 7 -7 4 -15 -3 -9 1 -18 10 -22 9 -3 26 -29 40 -58 13 -30 27
-55 31 -57 15 -6 43 -70 43 -96 0 -21 -2 -24 -10 -12 -9 13 -11 13 -20 0 -5
-8 -6 -26 -3 -40 9 -37 56 -110 70 -110 7 0 13 -10 13 -22 0 -19 2 -20 10 -8
6 10 10 11 10 3 0 -15 36 -53 50 -53 6 0 10 -4 10 -10 0 -5 6 -10 14 -10 14 0
31 -29 22 -38 -3 -2 -13 -1 -23 3 -22 10 -39 14 -76 20 -35 5 -47 13 -47 30 0
9 -6 12 -15 9 -16 -7 -13 -32 11 -96 19 -51 3 -56 -46 -17 -22 18 -43 29 -46
26 -4 -4 5 -40 20 -81 30 -86 32 -106 10 -148 l-16 -31 -19 24 c-16 20 -19 21
-19 6 0 -10 11 -30 25 -45 27 -29 30 -38 15 -47 -6 -3 -10 0 -10 8 0 8 -6 17
-14 20 -16 6 -46 -32 -46 -58 0 -19 -28 -50 -37 -41 -3 3 2 25 11 49 20 52 20
74 2 93 -13 13 -76 21 -76 9 0 -15 38 -45 58 -45 31 0 26 -34 -6 -38 -12 -2
-22 -10 -22 -19 0 -14 -2 -14 -19 1 -11 10 -31 19 -45 20 -14 0 -26 4 -26 9 0
11 -93 8 -110 -3 -13 -9 -13 -11 0 -20 8 -5 33 -10 55 -10 22 0 53 -7 69 -15
15 -8 38 -12 51 -9 26 7 44 -14 24 -27 -8 -5 -28 -9 -45 -9 -26 0 -33 -5 -36
-24 -7 -34 6 -51 28 -41 29 12 48 15 63 10 11 -4 10 -10 -3 -30 -9 -14 -14
-30 -11 -34 3 -5 -1 -12 -7 -14 -7 -3 5 -6 27 -7 l40 -2 -30 -10 c-16 -6 -36
-17 -43 -25 -7 -7 -19 -13 -27 -13 -7 0 -16 -6 -18 -12 -4 -10 -8 -9 -16 2 -7
10 -11 11 -11 3 0 -7 10 -23 23 -35 18 -19 32 -23 79 -22 54 1 57 0 56 -22 -2
-21 -38 -43 -38 -23 0 17 -20 9 -21 -8 -1 -17 -2 -17 -6 0 -7 28 -23 20 -23
-12 0 -17 -5 -33 -11 -37 -8 -5 -10 1 -7 20 3 14 1 29 -3 32 -5 3 -10 -1 -10
-8 -1 -7 -3 -24 -4 -38 -2 -14 2 -31 7 -37 7 -9 7 -13 -1 -13 -6 0 -11 5 -11
11 0 6 -8 8 -19 4 -14 -4 -21 0 -26 16 -6 17 -9 19 -16 8 -10 -15 -12 -7 -9
29 1 18 -3 23 -17 20 -13 -2 -19 -14 -21 -40 -2 -25 -11 -43 -25 -53 -12 -8
-16 -15 -9 -15 6 0 12 -4 12 -10 0 -5 -7 -6 -17 -3 -11 4 -14 3 -9 -5 8 -13
-20 -6 -41 11 -7 5 -13 6 -13 2 0 -5 -10 0 -21 11 -15 13 -23 15 -26 7 -3 -8
-12 -9 -28 -3 -20 8 -27 6 -36 -12 -8 -14 -8 -18 0 -14 20 13 12 -5 -16 -35
-33 -34 -43 -36 -43 -10 0 11 -4 23 -10 26 -5 3 -10 -3 -10 -14 0 -19 -1 -19
-29 -3 -35 19 -40 17 -43 -25 -2 -25 -5 -29 -23 -24 -37 12 -94 52 -100 72 -4
10 -13 19 -21 19 -8 0 -14 10 -14 26 0 14 4 23 9 20 10 -7 21 17 21 45 0 21
19 27 21 7 0 -10 2 -10 6 0 2 6 14 12 24 12 11 0 17 4 14 10 -3 6 1 7 10 4 9
-4 13 -13 10 -24 -11 -33 26 -62 83 -64 32 -2 52 2 52 8 0 6 5 4 10 -4 7 -11
8 -9 6 10 -2 14 -7 33 -10 42 -4 9 -3 25 3 37 22 41 7 55 -28 25 -23 -20 -94
-25 -86 -6 5 14 -11 17 -20 2 -3 -5 -12 -7 -20 -3 -9 3 -21 1 -28 -5 -6 -5
-29 -15 -49 -21 -20 -7 -42 -19 -48 -27 -7 -7 -17 -14 -22 -14 -6 0 -6 6 1 14
9 11 6 15 -16 19 -33 6 -43 1 -43 -19 0 -8 4 -12 10 -9 6 3 7 -1 4 -9 -4 -11
0 -16 11 -16 14 0 15 -3 6 -14 -16 -19 6 -56 33 -56 16 0 17 -3 8 -12 -7 -7
-12 -21 -12 -32 0 -18 -1 -18 -18 -3 -25 23 -32 21 -32 -8 0 -41 27 -85 47
-78 10 4 14 2 10 -4 -4 -6 0 -16 8 -23 8 -7 15 -19 15 -26 0 -8 16 -34 35 -60
49 -64 47 -80 -7 -53 -23 12 -48 28 -56 35 -20 20 -21 18 -19 -26 1 -23 6 -40
13 -40 7 0 10 -8 6 -22 -4 -18 -2 -20 16 -16 12 4 22 2 22 -3 0 -5 -7 -9 -15
-9 -9 0 -12 -6 -8 -16 5 -13 2 -15 -14 -10 -13 4 -25 1 -33 -9 -10 -12 -23
-15 -51 -10 -46 8 -57 -7 -27 -34 12 -12 18 -21 14 -21 -5 0 -3 -6 3 -14 9
-11 1 -13 -48 -14 -55 -1 -62 -4 -100 -41 -23 -22 -41 -45 -41 -52 0 -6 -25
-35 -55 -64 -30 -29 -55 -60 -55 -69 0 -9 -5 -16 -11 -16 -12 0 -39 -25 -39
-37 0 -4 -26 -20 -57 -35 -53 -25 -59 -26 -75 -11 -22 20 -23 37 -3 53 25 21
42 65 37 101 -5 45 39 144 68 152 14 3 20 13 20 31 0 16 6 26 15 26 8 0 15 3
15 8 1 4 3 34 6 67 3 33 6 76 7 95 2 19 6 40 9 45 4 6 2 29 -4 51 -6 23 -8 50
-4 60 5 10 8 94 9 187 1 151 7 199 20 150 3 -11 5 -7 6 10 0 15 -3 27 -9 27
-12 0 -13 73 -1 114 12 43 41 155 48 189 3 17 -1 37 -12 53 -15 23 -17 50 -15
208 3 199 -13 505 -30 576 -14 55 -16 188 -5 375 9 167 9 153 -5 240 -17 106
-23 242 -11 250 6 3 11 1 11 -4 0 -6 7 -11 15 -11 8 0 15 -7 15 -16 0 -8 4
-13 9 -9 14 8 34 -33 28 -55 -5 -20 11 -30 48 -30 20 0 26 8 35 41 9 32 9 44
0 49 -9 6 -9 9 -1 14 17 11 3 25 -19 19 -15 -4 -20 0 -20 14 0 22 -50 63 -78
63 -10 0 -24 -6 -30 -12 -20 -20 -29 5 -36 96 -4 45 -9 102 -12 127 -5 42 -3
46 23 58 24 11 26 14 10 22 -21 12 -22 33 -2 52 13 14 12 18 -10 39 -14 12
-25 26 -25 31 0 13 27 8 40 -8z m5490 -55 c-30 -42 -34 -42 -64 -11 -29 31
-27 53 7 68 17 8 28 6 50 -9 l27 -20 -20 -28z m-1456 41 c31 -26 19 -41 -31
-40 -27 1 -60 -2 -74 -6 -19 -5 -28 -3 -32 9 -5 11 4 21 30 35 42 21 83 22
107 2z m2110 -7 c13 -5 13 -8 1 -20 -13 -13 -35 -19 -35 -10 0 8 12 36 15 36
2 0 10 -3 19 -6z m333 -15 c53 -26 108 -88 120 -138 6 -21 11 -77 12 -124 2
-80 1 -87 -17 -87 -11 0 -22 -7 -26 -15 -7 -20 -36 -19 -51 2 -10 14 -28 18
-74 18 -55 0 -60 1 -44 13 13 10 14 16 5 19 -7 3 -19 11 -26 19 -18 17 -43 18
-48 2 -3 -9 -12 -8 -31 5 -25 16 -99 24 -137 16 -9 -3 -14 2 -11 11 2 8 3 37
3 63 -1 64 7 83 59 137 76 79 178 102 266 59z m-2443 -35 c24 -9 21 -54 -3
-54 -11 0 -23 5 -26 10 -3 6 -15 10 -26 10 -22 0 -24 11 -7 28 13 13 37 15 62
6z m2083 -16 c-3 -8 -6 -5 -6 6 -1 11 2 17 5 13 3 -3 4 -12 1 -19z m-1097 -97
c0 -5 7 -11 16 -13 14 -3 13 -7 -6 -30 -26 -34 -46 -36 -54 -5 -12 44 -7 57
19 57 14 0 25 -4 25 -9z m-3845 -41 l29 -30 -26 -26 -26 -26 -36 28 -35 29 26
27 c15 16 30 28 33 28 3 0 19 -14 35 -30z m-657 -54 c-2 -13 -10 -21 -23 -21
-23 0 -33 34 -14 45 20 13 40 -1 37 -24z m1793 -25 c23 -19 24 -19 5 -40 -23
-25 -43 -27 -68 -4 -18 16 -18 17 4 40 26 28 29 28 59 4z m3985 -35 c23 -23
17 -26 -45 -26 -38 0 -61 -4 -64 -12 -2 -7 -8 -9 -13 -5 -5 5 3 19 19 33 32
27 81 32 103 10z m-2893 -44 c15 -17 15 -21 -1 -55 -9 -20 -21 -36 -26 -37 -4
0 -26 14 -47 31 l-39 31 32 23 c41 29 60 30 81 7z m190 -21 c-5 -19 -43 -37
-43 -21 0 7 38 40 46 40 1 0 0 -9 -3 -19z m2913 -31 c12 -35 8 -62 -6 -41 -3
7 -30 13 -58 14 -56 2 -69 15 -51 48 8 16 19 19 57 17 44 -3 48 -5 58 -38z
m-4709 -12 c29 -27 29 -39 -2 -68 l-25 -23 -27 24 c-16 13 -30 25 -32 27 -5 3
50 62 58 62 2 0 15 -10 28 -22z m1468 -42 c28 -7 64 -20 81 -29 48 -25 57 -65
10 -48 -37 15 -116 -5 -116 -28 0 -4 20 -7 44 -7 49 -1 122 -37 129 -65 3 -13
-4 -21 -27 -29 -17 -7 -76 -34 -131 -61 -55 -27 -112 -49 -126 -49 -24 0 -26
3 -24 33 2 17 3 40 4 50 1 10 24 41 52 69 42 42 48 53 37 64 -17 17 -67 -6
-110 -52 -30 -32 -31 -32 -51 -13 -12 10 -24 19 -29 19 -14 0 -9 32 12 65 27
43 88 83 136 88 22 2 44 4 49 5 6 1 33 -4 60 -12z m-2000 -26 c17 -19 17 -21
0 -40 -22 -24 -24 -24 -55 -1 -24 19 -24 20 -6 40 24 26 38 26 61 1z m2800 9
c11 -16 1 -19 -13 -3 -7 8 -8 14 -3 14 5 0 13 -5 16 -11z m2585 -29 c0 -5 -7
-10 -15 -10 -8 0 -15 5 -15 10 0 6 7 10 15 10 8 0 15 -4 15 -10z m21 -33 c-10
-9 -11 -8 -5 6 3 10 9 15 12 12 3 -3 0 -11 -7 -18z m-44 -19 c-3 -8 -6 -5 -6
6 -1 11 2 17 5 13 3 -3 4 -12 1 -19z m-5101 -43 c7 -18 -13 -45 -33 -45 -17 0
-27 24 -19 45 7 20 45 19 52 0z m2728 -112 c-21 -34 -40 -37 -74 -13 l-32 23
33 29 32 30 26 -26 c20 -21 24 -30 15 -43z m-2244 17 c28 -28 32 -60 7 -60 -5
0 -3 -8 6 -18 38 -42 9 -96 -46 -86 -18 3 -44 6 -59 6 -35 1 -44 25 -20 52 11
12 19 35 19 54 0 30 34 82 54 82 5 0 22 -13 39 -30z m3753 -71 c12 -6 28 -19
35 -30 11 -17 9 -19 -18 -20 -38 -2 -43 -3 -56 -11 -6 -4 -30 -10 -52 -14 -40
-6 -42 -5 -42 19 0 50 76 82 133 56z m-3685 -27 c2 -7 -2 -10 -12 -6 -9 3 -16
11 -16 16 0 13 23 5 28 -10z m604 -19 c23 -21 23 -36 -1 -57 -20 -18 -31 -16
-64 12 -16 15 -16 17 5 39 26 27 35 28 60 6z m825 -5 c30 -28 29 -38 -5 -71
l-28 -27 -33 34 -34 35 29 25 c36 31 42 32 71 4z m-351 -63 c35 -27 37 -45 5
-45 -10 0 -31 -11 -46 -25 l-29 -24 -28 31 c-15 17 -28 33 -28 35 0 19 25 43
50 48 24 5 30 12 31 33 l2 27 4 -27 c2 -15 19 -37 39 -53z m2237 29 c-8 -21
-62 -74 -76 -74 -11 0 7 25 48 62 34 33 36 33 28 12z m-1283 -12 c37 -30 16
-41 -62 -33 -12 1 -9 26 4 39 17 17 32 15 58 -6z m-2540 -61 c0 -17 -18 -41
-30 -41 -16 0 -51 40 -45 50 21 34 75 27 75 -9z m2546 -19 c18 -23 18 -53 0
-46 -9 3 -16 -5 -21 -23 -7 -26 -8 -26 -15 -8 -5 11 -9 15 -9 8 -1 -6 -4 -19
-8 -29 -4 -12 -3 -15 5 -10 7 4 17 -3 24 -20 12 -25 10 -29 -25 -58 -20 -17
-42 -46 -48 -63 -6 -18 -15 -30 -20 -27 -5 3 -9 -3 -9 -13 -1 -27 -25 -53 -50
-53 -19 0 -21 -4 -16 -26 8 -29 45 -84 58 -84 4 0 8 -10 8 -22 0 -17 3 -19 9
-10 6 11 10 10 15 -3 3 -10 1 -24 -5 -31 -6 -8 -8 -14 -4 -14 4 0 2 -6 -4 -14
-9 -11 -9 -15 1 -19 10 -4 11 -7 1 -18 -7 -7 -13 -20 -13 -29 0 -9 -13 -24
-30 -33 -39 -23 -47 -40 -54 -112 -3 -33 -3 -54 0 -47 3 6 10 12 15 12 6 0 7
-5 3 -11 -4 -7 17 7 46 30 61 48 111 76 155 85 49 10 55 -1 46 -74 -5 -37 -9
-52 -11 -35 -2 27 -3 26 -14 -15 -10 -37 -13 -42 -20 -25 -8 19 -8 19 -17 -2
-4 -13 -13 -23 -19 -23 -21 0 -124 -54 -112 -58 14 -4 -49 -72 -68 -72 -5 0
-10 -4 -10 -10 0 -5 -9 -10 -20 -10 -11 0 -20 4 -20 9 0 5 -8 11 -17 13 -16 3
-20 33 -34 307 -15 290 -17 305 -37 322 -27 21 -27 37 -1 68 l20 24 45 -21
c31 -15 50 -19 62 -13 9 4 24 6 32 3 12 -4 12 -1 -1 19 -11 16 -13 33 -8 52 6
21 3 29 -12 37 -31 17 -22 47 27 95 25 25 43 45 40 45 -2 0 12 18 32 41 31 35
41 40 66 35 16 -3 35 -14 42 -24z m-2781 -28 c63 -7 103 -22 124 -48 11 -13 9
-17 -12 -25 -14 -5 -42 -10 -64 -9 -21 0 -56 -8 -78 -17 -47 -21 -125 -25
-143 -8 -10 10 -10 18 2 42 20 39 74 83 95 77 9 -3 43 -8 76 -12z m728 -17
c41 -25 83 -78 70 -91 -3 -3 -2 -6 4 -6 8 0 8 -8 0 -25 -12 -24 -37 -35 -37
-15 0 6 -7 10 -15 10 -8 0 -15 5 -15 10 0 6 -3 9 -7 8 -5 -1 -30 8 -57 20 -63
29 -122 28 -198 -3 -73 -30 -68 -29 -68 -10 0 8 4 15 9 15 5 0 14 12 20 28 13
31 35 47 101 74 59 24 136 18 193 -15z m1767 14 c0 -21 -13 -41 -26 -41 -8 0
-14 10 -14 25 0 18 5 25 20 25 11 0 20 -4 20 -9z m-910 -26 c0 -8 -7 -15 -15
-15 -8 0 -15 7 -15 15 0 8 7 15 15 15 8 0 15 -7 15 -15z m-3065 -65 c-3 -5
-12 -10 -19 -10 -8 0 -13 -7 -12 -17 1 -17 -49 -37 -66 -27 -12 7 20 44 47 55
28 11 57 11 50 -1z m6334 -11 c-24 -15 -45 -11 -24 5 11 8 24 12 28 9 5 -3 3
-9 -4 -14z m-2372 -5 c-3 -3 -12 -4 -19 -1 -8 3 -5 6 6 6 11 1 17 -2 13 -5z
m1288 -44 c-22 -22 -44 -40 -49 -40 -6 0 10 20 34 45 24 24 46 42 49 40 2 -3
-13 -23 -34 -45z m-3958 18 c-3 -8 -6 -5 -6 6 -1 11 2 17 5 13 3 -3 4 -12 1
-19z m5126 -20 c43 -41 50 -63 33 -111 l-15 -42 -1 35 c-1 57 -20 74 -20 18 0
-50 -12 -67 -34 -49 -8 7 -49 12 -91 13 l-77 2 -24 37 c-13 21 -32 40 -44 44
-34 11 -24 35 14 35 33 0 67 -27 79 -63 2 -7 18 1 42 21 35 31 42 33 82 27 34
-5 43 -4 38 5 -5 8 -26 11 -61 8 -58 -5 -67 2 -32 26 33 23 83 20 111 -6z
m294 11 c6 -6 9 -18 6 -27 -4 -10 -2 -13 5 -8 7 4 12 1 12 -10 0 -24 58 -136
81 -156 23 -19 25 -48 4 -48 -11 0 -15 -11 -15 -38 0 -38 -24 -102 -38 -102
-4 0 -24 16 -45 35 -21 19 -45 35 -53 35 -8 0 -14 6 -14 14 0 8 -10 18 -22 22
-13 4 -25 9 -28 13 -8 10 -42 30 -79 47 -32 15 -33 17 -28 60 2 24 1 44 -4 44
-5 0 -8 -3 -8 -7 3 -19 -2 -33 -11 -33 -6 0 -8 11 -3 28 4 15 7 45 7 67 1 34
4 40 21 38 11 -1 45 7 75 17 62 22 121 25 137 9z m-4559 -33 c42 -28 66 -65
75 -111 5 -29 4 -31 -26 -34 -18 -1 -43 -4 -57 -6 -14 -2 -32 -4 -42 -4 -14
-1 -38 -47 -38 -73 0 -5 14 -22 32 -38 l31 -29 -42 -41 -43 -42 -34 37 c-36
40 -43 62 -20 71 35 13 39 103 5 111 -10 3 -19 10 -19 15 0 5 -4 7 -9 4 -5 -4
-23 2 -40 11 -24 14 -33 15 -39 6 -6 -9 -13 -7 -26 8 -17 20 -16 22 20 66 51
62 103 85 177 79 41 -3 69 -12 95 -30z m-868 -13 c-11 -17 -11 -17 -6 0 3 10
6 24 7 30 0 9 2 9 5 0 3 -7 0 -20 -6 -30z m325 17 c39 -14 105 -79 105 -102 0
-11 -5 -15 -14 -12 -22 8 -30 -16 -10 -30 17 -13 16 -15 -11 -40 -33 -31 -25
-29 -63 -10 -20 9 -34 26 -38 42 -12 48 -21 52 -101 49 -41 -2 -76 0 -79 4 -2
5 -12 5 -20 2 -14 -5 -15 -3 -1 23 40 78 139 109 232 74z m-1641 -16 c-14 -8
-30 -11 -36 -8 -14 9 23 32 44 26 16 -4 15 -6 -8 -18z m3088 8 c-1 -7 10 -24
25 -37 l28 -24 -34 -35 c-19 -20 -39 -36 -44 -36 -12 0 -69 59 -65 68 23 49
53 83 72 80 11 -2 20 -9 18 -16z m2193 -42 c-3 -5 -12 -10 -18 -10 -7 0 -6 4
3 10 19 12 23 12 15 0z m-1600 -20 c18 -20 18 -21 -3 -43 -18 -17 -26 -19 -40
-11 -24 16 -27 45 -6 61 24 17 28 17 49 -7z m-418 4 c-3 -3 -12 -4 -19 -1 -8
3 -5 6 6 6 11 1 17 -2 13 -5z m2086 -11 c-7 -2 -9 -11 -6 -20 4 -11 2 -14 -5
-9 -7 4 -12 2 -12 -3 0 -6 -6 -11 -14 -11 -8 0 -16 -6 -19 -12 -2 -7 -8 -9
-13 -5 -5 5 -1 13 10 19 10 5 27 21 39 34 11 13 23 21 26 18 3 -4 1 -9 -6 -11z
m-3913 -53 c0 -5 -4 -10 -10 -10 -5 0 -10 5 -10 10 0 6 5 10 10 10 6 0 10 -4
10 -10z m3195 -40 c8 -13 -5 -13 -25 0 -13 8 -13 10 2 10 9 0 20 -4 23 -10z
m-4799 -74 c8 -8 14 -19 14 -24 0 -5 13 -15 30 -22 l30 -12 -50 -51 c-49 -49
-50 -50 -70 -32 -11 10 -20 24 -20 32 0 7 -4 13 -9 13 -5 0 -12 9 -16 20 -4
14 4 30 27 54 37 40 43 42 64 22z m6559 3 c6 0 33 1 62 1 62 2 93 -6 93 -25 0
-8 15 -21 33 -30 17 -8 64 -43 103 -78 39 -34 81 -70 93 -79 25 -21 28 -58 4
-58 -9 0 -30 10 -47 23 -37 27 -106 61 -161 79 -124 41 -395 -22 -395 -91 0
-16 -54 -41 -89 -41 -16 0 -14 45 3 59 8 7 12 21 9 31 -3 11 2 31 10 44 9 13
20 39 24 57 7 24 16 35 31 37 15 2 22 -2 22 -12 0 -9 6 -16 13 -16 7 0 22 -8
33 -18 23 -22 44 -18 44 8 0 10 7 20 15 24 25 9 18 36 -10 36 -15 0 -25 6 -25
14 0 8 -3 22 -7 31 -5 16 1 17 63 11 38 -4 74 -7 79 -7z m-1297 -12 c-7 -7
-22 -16 -33 -20 -17 -6 -17 -4 4 13 26 22 50 28 29 7z m-368 -62 c13 -14 29
-25 37 -25 7 0 -4 -15 -24 -34 -33 -30 -40 -32 -56 -21 -10 7 -26 23 -34 35
-14 19 -13 23 9 45 30 30 40 30 68 0z m-3191 -17 c0 -31 -1 -31 -10 -10 -5 13
-7 28 -3 33 10 16 14 9 13 -23z m4198 10 c-3 -8 -6 -5 -6 6 -1 11 2 17 5 13 3
-3 4 -12 1 -19z m138 11 c10 -15 2 -19 -24 -12 -17 4 -19 8 -9 14 18 12 26 11
33 -2z m-705 -13 c0 -2 -9 -6 -20 -9 -11 -3 -18 -1 -14 4 5 9 34 13 34 5z
m-2354 -36 c16 0 39 -7 51 -15 18 -12 20 -20 13 -44 -4 -16 -16 -37 -27 -48
-14 -14 -18 -29 -15 -65 4 -44 5 -46 25 -36 12 5 39 37 60 69 48 73 119 119
185 119 45 0 82 -14 82 -30 0 -6 -6 -10 -13 -10 -7 0 -19 -6 -25 -12 -7 -7
-18 -13 -25 -13 -7 0 -12 -7 -12 -15 0 -8 -12 -17 -27 -20 -39 -7 -126 -87
-134 -123 -11 -54 12 -56 64 -5 53 53 85 68 143 68 72 0 131 -49 71 -58 -23
-4 -30 -18 -10 -24 12 -4 -69 -68 -88 -68 -6 0 -40 -9 -74 -20 -79 -25 -80
-25 -80 5 0 18 -5 25 -20 25 -11 0 -20 -3 -20 -8 0 -4 -12 -20 -26 -35 -24
-27 -27 -27 -44 -12 -15 14 -22 14 -40 5 -20 -10 -26 -9 -44 12 -11 14 -34 33
-49 42 -29 18 -29 18 -9 39 22 25 36 83 22 92 -6 3 -10 15 -10 27 0 17 2 18
15 8 8 -7 15 -19 15 -27 0 -8 5 -11 10 -8 15 9 1 46 -25 66 -12 10 -27 36 -35
58 -12 39 -12 43 10 66 21 22 25 23 40 10 9 -8 30 -15 46 -15z m2024 -84 c-15
-15 -34 9 -26 31 7 17 8 17 22 -1 9 -13 11 -23 4 -30z m1611 0 c19 -7 39 -11
46 -9 12 4 69 -13 133 -41 19 -8 58 -38 85 -66 28 -29 64 -58 81 -66 20 -8 36
-25 42 -44 6 -16 9 -30 7 -30 -12 0 -75 35 -75 41 0 5 -17 11 -37 15 -21 4
-49 12 -63 20 -14 7 -57 15 -95 19 -127 12 -236 -48 -325 -180 l-50 -74 7
-107 c5 -81 3 -105 -6 -100 -6 4 -9 12 -6 17 4 5 -1 12 -10 15 -34 13 -56 80
-55 167 0 45 -1 96 -3 112 -1 17 0 45 4 64 5 21 3 41 -4 52 -15 24 -27 24 -27
2 -1 -17 -1 -17 -11 0 -12 21 -9 69 6 79 14 11 67 10 84 -1 11 -7 33 6 83 50
38 32 79 61 91 64 12 2 31 6 42 8 11 3 21 5 21 6 1 0 17 -5 35 -13z m409 -116
c0 -11 -7 -20 -15 -20 -8 0 -15 9 -15 20 0 11 7 20 15 20 8 0 15 -9 15 -20z
m-1923 -10 c-47 -25 -56 -25 -26 0 13 10 33 19 44 20 14 0 8 -6 -18 -20z m830
14 c-3 -3 -12 -4 -19 -1 -8 3 -5 6 6 6 11 1 17 -2 13 -5z m-5969 -64 c27 -36
27 -38 0 -67 -28 -30 -42 -29 -67 2 l-20 26 22 34 c27 42 37 43 65 5z m5129
-56 c-3 -3 -12 -4 -19 -1 -8 3 -5 6 6 6 11 1 17 -2 13 -5z m870 -30 c-3 -3
-12 -4 -19 -1 -8 3 -5 6 6 6 11 1 17 -2 13 -5z m-1427 -49 c-7 -9 -19 -14 -27
-11 -7 3 -13 1 -13 -4 0 -6 -9 -10 -20 -10 -12 0 -38 -18 -59 -40 -39 -41 -63
-49 -85 -27 -25 25 -14 45 31 56 24 6 43 16 43 21 0 6 12 10 28 11 15 0 36 4
47 9 11 5 31 9 44 9 20 1 22 -1 11 -14z m-2570 -61 c0 -8 -4 -12 -10 -9 -5 3
-10 10 -10 16 0 5 5 9 10 9 6 0 10 -7 10 -16z m70 -55 c0 -7 -6 -4 -15 7 -19
25 -19 40 0 20 8 -8 15 -20 15 -27z m2097 5 c-3 -18 3 -33 19 -51 28 -30 30
-46 9 -63 -13 -11 -23 -11 -54 0 -58 19 -68 27 -54 41 6 6 22 12 35 13 18 1
24 9 31 44 4 23 11 42 14 42 3 0 3 -12 0 -26z m704 -14 c-13 -11 -17 -20 -10
-20 7 0 9 -3 6 -7 -4 -3 -2 -12 4 -20 9 -10 8 -13 -5 -13 -13 0 -16 -5 -11
-21 5 -15 4 -19 -4 -15 -6 4 -11 2 -11 -5 0 -12 -29 -38 -42 -39 -5 0 -8 11
-8 23 0 31 -30 59 -50 47 -23 -14 -30 -12 -23 8 10 30 46 62 67 61 21 0 21 0
0 -9 -25 -10 -39 -28 -29 -38 4 -4 12 0 18 9 7 9 30 22 52 30 22 7 44 17 50
21 5 4 11 8 15 8 3 -1 -6 -10 -19 -20z m1364 10 c3 -5 1 -10 -4 -10 -6 0 -11
5 -11 10 0 6 2 10 4 10 3 0 8 -4 11 -10z m-1255 -10 c0 -5 -2 -10 -4 -10 -3 0
-8 5 -11 10 -3 6 -1 10 4 10 6 0 11 -4 11 -10z m-1055 -30 c24 -25 26 -32 15
-45 -8 -9 -13 -34 -12 -56 2 -21 -1 -39 -6 -39 -6 0 -12 -10 -15 -21 -4 -15
-11 -20 -23 -15 -9 4 -24 0 -33 -8 -15 -13 -20 -13 -49 6 -27 17 -30 22 -19
32 28 22 47 61 47 95 0 26 7 41 28 58 15 12 30 22 33 23 3 0 18 -13 34 -30z
m-901 12 c3 7 4 3 2 -9 -3 -15 1 -23 10 -23 9 0 14 -12 14 -35 0 -19 4 -35 9
-35 5 0 16 -3 24 -6 9 -3 16 3 20 16 6 24 27 18 27 -7 0 -9 8 -22 17 -29 10
-7 14 -16 10 -20 -4 -5 -13 -2 -18 6 -9 13 -10 12 -6 -2 6 -19 -27 -53 -51
-53 -11 0 -22 -16 -32 -45 l-15 -45 -3 43 c-2 33 -7 42 -18 38 -8 -3 -14 0
-14 8 0 7 -7 28 -16 46 -12 23 -19 29 -25 19 -4 -7 -11 -10 -15 -7 -10 10 19
100 34 105 6 3 12 14 12 25 0 16 3 18 14 9 11 -9 15 -9 20 1z m3180 2 c16 -6
22 -54 9 -67 -9 -10 -32 25 -33 51 0 24 1 25 24 16z m-1274 -21 c0 -11 -3 -14
-8 -7 -4 6 -14 14 -22 17 -10 4 -8 6 8 6 15 1 22 -5 22 -16z m-2013 -15 c-3
-8 -6 -5 -6 6 -1 11 2 17 5 13 3 -3 4 -12 1 -19z m2053 18 c0 -2 -7 -9 -15
-16 -12 -10 -15 -10 -15 4 0 9 7 16 15 16 8 0 15 -2 15 -4z m-1490 -31 c0 -8
-4 -15 -10 -15 -5 0 -10 7 -10 15 0 8 5 15 10 15 6 0 10 -7 10 -15z m-40 -44
c-7 -27 -15 -39 -22 -34 -9 5 -9 8 -1 10 7 3 10 10 7 18 -6 14 14 60 22 52 3
-3 0 -24 -6 -46z m2180 25 c0 -5 -87 -46 -97 -46 -12 0 10 18 42 34 28 15 55
21 55 12z m-2401 -103 c-6 -16 -13 -22 -16 -15 -3 6 -11 12 -19 12 -20 0 -18
45 3 65 15 16 17 15 30 -8 10 -20 10 -32 2 -54z m361 45 c0 -5 -4 -8 -10 -8
-5 0 -10 10 -10 23 0 18 2 19 10 7 5 -8 10 -18 10 -22z m1920 -13 c-14 -8 -29
-14 -35 -14 -5 0 1 6 15 14 14 8 30 14 35 14 6 0 -1 -6 -15 -14z m-3854 -30
c11 -11 12 -19 4 -34 -8 -16 -17 -19 -43 -14 -43 8 -44 9 -16 37 29 29 36 30
55 11z m4629 -5 c3 -11 10 -20 15 -20 20 0 19 -34 -2 -56 -43 -46 -55 -48 -87
-12 l-29 33 36 37 c42 43 58 47 67 18z m-2756 -37 c11 -9 13 -15 5 -20 -6 -5
-16 -17 -23 -28 -10 -17 -11 -16 -5 14 4 23 3 31 -5 27 -7 -5 -11 2 -11 17 0
30 14 45 19 21 2 -10 11 -24 20 -31z m1930 43 c-10 -10 -80 -56 -85 -56 -9 0
50 46 66 53 20 7 24 8 19 3z m-3758 -41 c-1 -15 -24 -12 -29 3 -3 9 2 13 12
10 10 -1 17 -7 17 -13z m-138 -36 c-17 -17 -37 -1 -22 17 8 10 15 12 23 4 7
-7 7 -13 -1 -21z m-43 7 c0 -3 -4 -8 -10 -11 -5 -3 -10 -1 -10 4 0 6 5 11 10
11 6 0 10 -2 10 -4z m2027 -28 c-3 -8 -6 -5 -6 6 -1 11 2 17 5 13 3 -3 4 -12
1 -19z m1826 1 c12 -1 2 -5 -23 -10 -25 -5 -50 -16 -56 -24 -6 -8 -15 -15 -19
-15 -4 0 -2 6 4 13 6 8 9 17 6 20 -3 4 -2 5 1 2 4 -2 18 5 33 16 15 12 27 16
29 10 2 -6 13 -11 25 -12z m-5118 -2 c12 -10 14 -16 7 -21 -18 -11 -15 -21 14
-56 l26 -31 -38 -34 c-43 -38 -56 -42 -74 -21 -6 8 -31 23 -56 32 -50 19 -55
29 -19 38 13 3 30 16 36 29 10 21 68 76 80 77 3 0 13 -6 24 -13z m1343 -10 c2
-10 -3 -17 -12 -17 -18 0 -29 16 -21 31 9 14 29 6 33 -14z m3914 16 c-6 -2
-10 -9 -7 -14 4 -5 -1 -6 -9 -3 -24 9 -19 24 7 23 12 0 16 -3 9 -6z m1105 -25
c-3 -7 -5 -2 -5 12 0 14 2 19 5 13 2 -7 2 -19 0 -25z m-1070 6 c-3 -3 -12 -4
-19 -1 -8 3 -5 6 6 6 11 1 17 -2 13 -5z m631 -16 c3 -39 -19 -122 -29 -107 -5
8 -9 26 -9 42 0 15 -4 27 -9 27 -5 0 -11 11 -13 25 -4 16 0 25 11 28 36 10 47
6 49 -15z m-551 6 c-3 -3 -12 -4 -19 -1 -8 3 -5 6 6 6 11 1 17 -2 13 -5z m230
0 c-3 -3 -12 -4 -19 -1 -8 3 -5 6 6 6 11 1 17 -2 13 -5z m-4190 -36 c-3 -8 -6
-5 -6 6 -1 11 2 17 5 13 3 -3 4 -12 1 -19z m4043 12 c0 -5 -7 -7 -15 -4 -8 4
-15 8 -15 10 0 2 7 4 15 4 8 0 15 -4 15 -10z m525 -1 c-8 -12 125 -159 143
-159 6 0 14 -9 17 -20 3 -11 10 -20 15 -20 5 0 24 -13 42 -30 18 -16 36 -30
40 -30 3 0 9 -8 13 -17 3 -10 28 -29 56 -43 57 -27 109 -81 109 -111 0 -15 5
-19 15 -15 9 3 15 0 15 -9 0 -7 -7 -20 -15 -29 -8 -8 -15 -22 -15 -30 0 -9 -4
-16 -9 -16 -5 0 -6 -29 -3 -65 4 -61 4 -65 -17 -65 -12 0 -21 -6 -21 -15 0 -8
-4 -15 -10 -15 -5 0 -9 -8 -8 -17 8 -94 -13 -129 -46 -78 -48 73 -140 145
-185 145 -11 0 -31 5 -45 11 -18 9 -38 8 -86 -5 -35 -8 -66 -13 -71 -11 -4 3
-10 1 -14 -4 -11 -19 -55 10 -55 36 0 12 -3 23 -7 23 -15 0 -55 -70 -49 -82 4
-7 13 -24 21 -37 10 -18 11 -28 2 -42 -9 -14 -8 -22 1 -31 21 -21 43 -15 86
25 50 48 110 77 156 77 74 0 162 -65 195 -142 18 -45 31 -174 20 -214 -7 -27
-8 -25 -23 31 -8 33 -26 77 -39 97 -45 73 -144 124 -196 101 -19 -9 -13 -13
45 -32 78 -26 98 -42 130 -101 19 -37 23 -58 21 -118 -1 -41 -7 -80 -13 -87
-12 -15 -70 -18 -70 -3 0 4 -18 8 -40 8 -29 0 -40 -4 -40 -15 0 -19 -2 -19
-50 6 -25 13 -40 28 -40 40 0 12 -7 19 -20 19 -11 0 -20 7 -20 15 0 8 5 15 12
15 6 0 0 13 -15 28 -15 15 -27 34 -27 41 0 11 -3 11 -15 1 -13 -11 -18 -10
-30 6 -8 10 -15 22 -15 26 0 4 -18 20 -41 35 -32 21 -39 31 -35 48 4 17 1 22
-12 22 -9 0 -29 3 -44 7 -23 7 -25 11 -18 37 7 25 6 29 -10 29 -14 0 -18 -5
-14 -17 4 -13 3 -14 -3 -5 -8 10 -12 10 -22 -2 -7 -8 -10 -20 -6 -26 4 -6 -4
-19 -17 -30 -25 -21 -43 -26 -33 -10 9 14 -1 12 -35 -5 -17 -9 -30 -12 -30 -7
0 10 77 62 91 62 5 0 9 3 9 8 0 4 16 24 35 45 27 29 33 42 25 52 -8 9 -6 14 5
19 8 3 14 16 14 28 -1 13 -3 16 -5 8 -4 -13 -66 -40 -93 -40 -5 0 -7 15 -4 33
5 35 30 60 51 52 7 -2 10 0 7 5 -3 5 12 29 34 52 23 23 41 48 41 55 0 7 4 13
8 13 4 0 8 9 9 20 1 11 -2 18 -8 15 -5 -4 -9 1 -9 9 0 20 -19 31 -33 17 -19
-19 -31 -12 -14 7 10 10 14 22 10 25 -3 4 -1 7 5 7 7 0 12 6 12 14 0 8 10 27
23 42 20 23 30 27 81 26 47 0 55 2 46 13 -9 10 -5 24 16 57 15 24 31 45 35 48
13 9 59 142 59 171 0 16 6 26 15 26 8 0 12 -4 10 -8z m-3552 -19 c-3 -12 -8
-19 -11 -16 -5 6 5 36 12 36 2 0 2 -9 -1 -20z m3430 -53 c-8 -44 -11 -45 -27
-7 -18 43 -11 64 15 50 14 -8 17 -17 12 -43z m-873 38 c0 -7 -51 -55 -58 -55
-4 0 4 11 33 47 10 13 25 17 25 8z m-3530 -31 c0 -8 -4 -14 -9 -14 -11 0 -22
26 -14 34 9 9 23 -3 23 -20z m4355 -35 c9 -28 -2 -69 -20 -69 -18 0 -28 17
-15 25 6 4 8 15 5 26 -7 20 1 39 15 39 5 0 12 -9 15 -21z m-4430 -12 c0 -7 12
-13 28 -15 40 -5 33 -22 -8 -20 -32 1 -35 4 -35 31 0 17 3 27 8 23 4 -4 7 -13
7 -19z m3516 -15 c-11 -16 -28 -35 -38 -43 -10 -8 -3 5 16 29 37 47 53 58 22
14z m-4929 -56 c15 -27 2 -31 -42 -11 -28 13 -37 21 -28 27 9 5 6 8 -9 8 -13
0 -23 4 -23 8 0 15 92 -14 102 -32z m5799 -29 c-13 -13 -26 -3 -16 12 3 6 11
8 17 5 6 -4 6 -10 -1 -17z m-4991 3 c0 -5 -2 -10 -4 -10 -3 0 -8 5 -11 10 -3
6 -1 10 4 10 6 0 11 -4 11 -10z m5625 -73 l-7 -38 -21 25 c-12 14 -33 29 -47
35 -14 5 -18 10 -10 11 8 0 28 12 45 25 l30 25 8 -22 c4 -13 5 -40 2 -61z
m-4148 41 c-3 -7 -5 -2 -5 12 0 14 2 19 5 13 2 -7 2 -19 0 -25z m-101 -8 c5 1
15 6 22 12 9 8 11 7 6 -6 -4 -10 -1 -29 6 -44 7 -15 17 -37 23 -50 6 -12 17
-20 24 -18 7 3 13 0 13 -7 0 -7 3 -22 6 -34 4 -14 2 -23 -5 -23 -6 0 -13 11
-17 25 -3 14 -14 31 -23 38 -23 17 -51 63 -52 84 0 11 -3 13 -6 5 -7 -18 -23
-4 -23 21 0 16 3 18 9 9 4 -8 12 -13 17 -12z m1005 -37 c-9 -15 -10 -13 -11
13 0 17 3 34 8 38 11 12 14 -32 3 -51z m132 -2 c-6 -3 -13 -13 -16 -21 -4 -11
-6 -9 -6 6 -1 24 8 36 21 27 7 -3 7 -8 1 -12z m-1144 -36 c2 20 21 -21 21 -45
-1 -24 -1 -24 -15 -6 -15 20 -15 20 -15 0 -1 -15 -2 -16 -9 -4 -5 8 -6 31 -3
50 4 29 6 32 13 15 4 -11 8 -15 8 -10z m1008 -57 c-3 -7 -5 -2 -5 12 0 14 2
19 5 13 2 -7 2 -19 0 -25z m27 -7 c-4 -17 -9 -30 -11 -27 -3 2 -2 19 2 36 9
41 17 33 9 -9z m1511 -31 c-14 -29 -29 -50 -31 -47 -3 3 7 27 23 55 15 28 29
49 31 47 2 -2 -9 -26 -23 -55z m-1948 28 c-3 -8 -6 -5 -6 6 -1 11 2 17 5 13 3
-3 4 -12 1 -19z m-674 -1 c3 -8 2 -20 -3 -26 -5 -9 -7 -4 -7 13 0 29 2 32 10
13z m1164 -39 c-3 -7 -5 -2 -5 12 0 14 2 19 5 13 2 -7 2 -19 0 -25z m2313 2
c0 -5 -7 -10 -15 -10 -8 0 -15 5 -15 10 0 6 7 10 15 10 8 0 15 -4 15 -10z
m-3301 -40 c18 -15 67 -130 57 -133 -8 -3 -7 -11 2 -26 15 -25 16 -41 2 -41
-6 0 -10 6 -9 13 1 6 -1 20 -6 30 -4 10 -5 21 -2 24 4 3 -3 17 -13 31 -11 13
-20 35 -20 48 0 13 -6 27 -14 31 -8 4 -17 22 -21 38 -6 27 -5 28 6 10 7 -11
15 -22 18 -25z m35 14 c5 -14 4 -15 -9 -4 -17 14 -19 20 -6 20 5 0 12 -7 15
-16z m4193 -9 c-4 -8 -11 -15 -17 -15 -7 0 -7 6 0 21 13 23 26 19 17 -6z
m-4524 -25 c-3 -11 -9 -20 -14 -20 -5 0 -9 9 -9 20 0 11 6 20 14 20 9 0 12 -7
9 -20z m4588 10 c26 -14 24 -30 -3 -31 -13 0 -32 -4 -43 -9 -14 -6 -7 -8 23
-5 53 6 87 -14 107 -63 17 -39 11 -73 -16 -98 -15 -13 -22 -15 -31 -6 -19 19
-38 14 -39 -10 l-2 -23 -4 23 c-4 21 -8 22 -49 16 -51 -7 -87 1 -64 16 9 6 14
22 12 44 -2 20 4 45 13 59 11 17 13 27 6 32 -6 3 -11 13 -11 21 0 8 4 13 9 10
4 -3 16 3 26 14 20 22 37 25 66 10z m-3728 -107 c4 -31 2 -53 -3 -53 -6 0 -10
8 -10 19 0 10 -2 47 -5 82 -6 77 10 36 18 -48z m-823 69 c0 -15 -2 -15 -10 -2
-13 20 -13 33 0 25 6 -3 10 -14 10 -23z m3550 -3 c0 -5 -9 -9 -20 -9 -11 0
-23 0 -27 -1 -4 0 -9 5 -12 12 -2 6 1 9 7 5 6 -3 13 -2 17 3 7 12 35 3 35 -10z
m-3380 -10 c0 -10 -4 -21 -10 -24 -5 -3 -10 -2 -10 4 0 5 -2 16 -5 24 -4 8 0
14 10 14 8 0 15 -8 15 -18z m826 -50 c-5 -77 -16 -106 -16 -43 0 44 10 114 17
114 2 0 2 -32 -1 -71z m2674 51 c-8 -5 -22 -10 -30 -10 -13 0 -13 1 0 10 8 5
22 10 30 10 13 0 13 -1 0 -10z m-3297 -59 c-6 -8 -20 13 -28 39 -6 23 -5 22
13 -5 11 -16 18 -32 15 -34z m3233 24 c-3 -8 -12 -12 -20 -9 -12 5 -12 8 2 25
17 20 28 10 18 -16z m-3699 -7 c-3 -8 -6 -5 -6 6 -1 11 2 17 5 13 3 -3 4 -12
1 -19z m2886 -9 c-25 -43 -85 -109 -75 -84 15 43 56 104 71 108 9 3 17 5 19 6
2 0 -5 -13 -15 -30z m-2599 5 c3 -8 2 -12 -4 -9 -6 3 -10 10 -10 16 0 14 7 11
14 -7z m4504 -53 c-4 -21 -25 -24 -32 -5 -4 9 -4 26 0 37 6 20 7 20 21 2 7
-11 12 -26 11 -34z m-4339 -21 c17 -32 18 -40 6 -40 -8 0 -17 12 -21 28 -3 15
-7 33 -10 40 -7 24 4 11 25 -28z m61 -9 c0 -11 -4 -9 -14 4 -8 11 -12 24 -9
28 7 11 23 -12 23 -32z m-342 -23 c2 7 8 12 13 12 4 0 6 -6 3 -14 -3 -7 2 -16
11 -20 12 -4 14 -12 10 -27 -6 -18 -4 -21 10 -15 15 5 16 4 5 -9 -7 -8 -18
-15 -25 -15 -16 0 -75 66 -75 85 0 7 -3 22 -7 32 -5 12 3 8 22 -11 17 -17 31
-24 33 -18z m2853 -6 c-10 -19 -41 -48 -41 -39 0 6 43 57 48 57 1 0 -2 -8 -7
-18z m-2641 -7 c7 -9 8 -15 2 -15 -5 0 -12 7 -16 15 -3 8 -4 15 -2 15 2 0 9
-7 16 -15z m3250 -5 c0 -5 -5 -10 -11 -10 -5 0 -7 5 -4 10 3 6 8 10 11 10 2 0
4 -4 4 -10z m-3350 -15 c11 7 70 -54 81 -84 15 -38 0 -38 -29 -1 -14 18 -36
45 -49 58 -13 14 -23 30 -22 36 0 6 3 6 6 -2 2 -6 8 -10 13 -7z m195 5 c3 -5
1 -10 -4 -10 -6 0 -11 5 -11 10 0 6 2 10 4 10 3 0 8 -4 11 -10z m4115 -14 c0
-3 -4 -8 -10 -11 -5 -3 -10 -1 -10 4 0 6 5 11 10 11 6 0 10 -2 10 -4z m-4343
-65 c0 -11 -6 -17 -14 -14 -14 6 -17 16 -6 26 12 13 22 7 20 -12z m38 -11 c3
-6 -1 -7 -9 -4 -18 7 -21 14 -7 14 6 0 13 -4 16 -10z m-10 -20 c3 -5 1 -10 -4
-10 -6 0 -11 5 -11 10 0 6 2 10 4 10 3 0 8 -4 11 -10z m1003 -30 c-7 -10 -14
-17 -17 -15 -4 4 18 35 25 35 2 0 -1 -9 -8 -20z m-321 -27 c-3 -10 -5 -4 -5
12 0 17 2 24 5 18 2 -7 2 -21 0 -30z m3493 33 c0 -3 -4 -8 -10 -11 -5 -3 -10
-1 -10 4 0 6 5 11 10 11 6 0 10 -2 10 -4z m-1090 -34 c0 -5 -16 -16 -35 -25
-44 -21 -45 -15 -2 12 37 24 37 24 37 13z m-2860 -6 c0 -3 -4 -8 -10 -11 -5
-3 -10 -1 -10 4 0 6 5 11 10 11 6 0 10 -2 10 -4z m3160 0 c0 -3 -4 -8 -10 -11
-5 -3 -10 -1 -10 4 0 6 5 11 10 11 6 0 10 -2 10 -4z m256 -98 c6 -21 -6 -41
-13 -20 -3 6 -9 12 -15 12 -6 0 -8 -7 -5 -14 4 -10 1 -13 -9 -9 -9 3 -13 12
-8 22 3 9 7 21 7 27 1 18 36 4 43 -18z m-376 18 c0 -3 -4 -8 -10 -11 -5 -3
-10 -1 -10 4 0 6 5 11 10 11 6 0 10 -2 10 -4z m-310 -26 c0 -5 -4 -10 -10 -10
-5 0 -10 5 -10 10 0 6 5 10 10 10 6 0 10 -4 10 -10z m216 -18 c-8 -13 -176
-95 -182 -89 -7 6 76 56 131 78 47 20 58 22 51 11z m1240 -40 c68 -38 94 -58
100 -74 3 -10 10 -18 15 -18 5 0 9 -8 9 -18 0 -10 3 -22 7 -25 13 -13 2 -122
-16 -162 -18 -39 -75 -105 -92 -105 -13 0 -20 18 -8 22 7 2 12 38 13 93 1 82
-2 94 -27 138 -41 69 -130 119 -213 119 -32 0 -34 1 -17 13 55 38 177 47 229
17z m-1431 -82 c-27 -12 -43 -12 -25 0 8 5 22 9 30 9 10 0 8 -3 -5 -9z m1340
-28 c51 -35 85 -99 80 -152 -2 -22 -15 -61 -29 -87 -24 -48 -101 -117 -121
-109 -6 2 -17 -4 -23 -14 -11 -19 -52 -17 -52 2 0 5 -8 7 -19 3 -10 -3 -24 1
-31 10 -7 8 -16 12 -21 9 -5 -3 -7 1 -5 8 3 7 7 25 10 41 5 19 13 27 29 27 12
0 28 4 35 9 10 6 7 10 -12 15 -14 3 -26 13 -26 21 0 18 -16 20 -23 3 -3 -7 -6
1 -6 19 -1 21 -9 37 -23 47 -28 20 -36 66 -11 66 15 0 14 2 -5 16 -33 23 -28
49 16 70 80 38 176 36 237 -4z m-5244 -5 c-10 -9 -11 -8 -5 6 3 10 9 15 12 12
3 -3 0 -11 -7 -18z m-1253 -34 c0 -5 2 -16 7 -26 4 -11 3 -23 -3 -29 -7 -7
-15 -1 -26 20 -20 39 -20 42 4 42 11 0 19 -3 18 -7z m6042 -24 c0 -5 -4 -9
-10 -9 -5 0 -10 7 -10 16 0 8 5 12 10 9 6 -3 10 -10 10 -16z m-200 -19 c0 -5
-5 -10 -11 -10 -5 0 -7 5 -4 10 3 6 8 10 11 10 2 0 4 -4 4 -10z m-30 -14 c0
-3 -4 -8 -10 -11 -5 -3 -10 -1 -10 4 0 6 5 11 10 11 6 0 10 -2 10 -4z m-115
-36 c-3 -5 -11 -10 -16 -10 -6 0 -7 5 -4 10 3 6 11 10 16 10 6 0 7 -4 4 -10z
m-317 -7 c-10 -2 -26 -2 -35 0 -10 3 -2 5 17 5 19 0 27 -2 18 -5z m746 -19
c15 -6 11 -33 -6 -45 -4 -3 15 -24 43 -47 30 -25 45 -42 35 -42 -18 0 -19 -2
-10 -24 3 -9 12 -16 19 -16 29 0 22 -27 -11 -40 -19 -8 -34 -18 -34 -23 0 -5
-13 -22 -29 -38 -22 -21 -30 -25 -34 -15 -3 8 -16 16 -29 18 -15 2 -24 11 -26
26 -3 19 -9 22 -47 22 -27 0 -45 5 -48 14 -9 22 10 89 28 99 14 7 16 18 10 55
-6 41 -5 45 9 33 8 -7 20 -10 26 -6 6 4 17 -1 24 -10 9 -12 19 -15 34 -11 12
4 20 12 16 17 -6 10 1 39 10 39 2 0 11 -3 20 -6z m93 -50 c-3 -3 -12 -4 -19
-1 -8 3 -5 6 6 6 11 1 17 -2 13 -5z m-257 -24 c0 -5 -5 -10 -11 -10 -5 0 -7 5
-4 10 3 6 8 10 11 10 2 0 4 -4 4 -10z m-6153 -22 c23 -22 31 -48 14 -48 -5 0
-13 -9 -16 -20 -8 -26 -23 -25 -52 2 -29 27 -29 36 -1 65 26 28 26 28 55 1z
m6783 -57 c0 -5 -7 -11 -14 -14 -10 -4 -13 -1 -9 9 6 15 23 19 23 5z m-6780
-71 c0 -5 -6 -10 -14 -10 -8 0 -18 5 -21 10 -3 6 3 10 14 10 12 0 21 -4 21
-10z m6592 -72 c2 -29 -1 -61 -6 -66 -3 -2 -14 -1 -25 3 -26 8 -27 38 -4 65
23 26 33 25 35 -2z m-6567 0 c-31 -19 -55 -20 -55 -3 0 11 11 15 38 15 33 -1
35 -2 17 -12z m5750 -8 c4 -6 -6 -7 -27 -3 -44 8 -48 13 -10 13 17 0 34 -4 37
-10z m-5065 -10 c0 -5 6 -9 13 -7 6 1 12 -5 12 -13 0 -25 -31 -22 -43 5 -10
21 -9 25 3 25 8 0 15 -4 15 -10z m5454 -9 c16 -17 15 -19 -9 -35 -15 -10 -33
-15 -41 -12 -27 11 -10 66 21 66 7 0 19 -8 29 -19z m578 -43 c-7 -7 -12 -8
-12 -2 0 14 12 26 19 19 2 -3 -1 -11 -7 -17z m-6014 -5 c-10 -2 -28 -2 -40 0
-13 2 -5 4 17 4 22 1 32 -1 23 -4z m5868 -17 c3 -8 -4 -24 -15 -35 -16 -16
-21 -17 -21 -6 0 8 -4 15 -10 15 -5 0 -2 9 7 20 21 24 32 25 39 6z m-4378 -53
c4 -29 -38 -58 -73 -49 -29 7 -31 22 -9 54 22 31 77 28 82 -5z m-558 -88 c0
-37 -4 -65 -10 -65 -5 0 -10 5 -10 10 0 16 -2 23 -11 48 -6 15 -5 21 1 17 6
-4 10 7 10 24 0 17 5 31 10 31 6 0 10 -28 10 -65z m-91 -42 c-14 -39 -21 -21
-13 34 7 45 8 46 15 20 4 -16 3 -40 -2 -54z m3221 39 c0 -19 -37 -42 -66 -42
-23 0 -29 29 -8 45 28 22 74 19 74 -3z m1345 -182 c-3 -5 -11 -10 -16 -10 -6
0 -7 5 -4 10 3 6 11 10 16 10 6 0 7 -4 4 -10z m-826 -357 c0 -10 -59 -57 -59
-48 0 13 36 54 48 55 6 0 12 -3 11 -7z m-2769 -33 c0 -5 -5 -10 -11 -10 -5 0
-7 5 -4 10 3 6 8 10 11 10 2 0 4 -4 4 -10z m2685 -50 c3 -5 1 -10 -4 -10 -6 0
-11 5 -11 10 0 6 2 10 4 10 3 0 8 -4 11 -10z"/>
<path d="M730 6730 c-12 -8 -11 -10 8 -10 12 0 22 5 22 10 0 13 -11 13 -30 0z"/>
<path d="M708 6703 c6 -2 18 -2 25 0 6 3 1 5 -13 5 -14 0 -19 -2 -12 -5z"/>
<path d="M1770 5620 c0 -5 5 -10 11 -10 5 0 7 5 4 10 -3 6 -8 10 -11 10 -2 0
-4 -4 -4 -10z"/>
<path d="M1800 5410 c0 -5 5 -10 10 -10 6 0 10 5 10 10 0 6 -4 10 -10 10 -5 0
-10 -4 -10 -10z"/>
<path d="M1354 5089 c-3 -5 9 -9 25 -9 17 0 31 2 31 4 0 8 -51 13 -56 5z"/>
<path d="M971 5074 c0 -11 3 -14 6 -6 3 7 2 16 -1 19 -3 4 -6 -2 -5 -13z"/>
<path d="M1020 5065 c0 -8 4 -15 10 -15 5 0 7 7 4 15 -4 8 -8 15 -10 15 -2 0
-4 -7 -4 -15z"/>
<path d="M1073 5066 c-28 -13 -30 -26 -3 -26 11 0 20 -4 20 -10 0 -16 20 -12
27 6 9 24 -17 43 -44 30z"/>
<path d="M1560 5056 c0 -2 7 -6 15 -10 8 -3 15 -1 15 4 0 6 -7 10 -15 10 -8 0
-15 -2 -15 -4z"/>
<path d="M1138 5043 c7 -3 16 -2 19 1 4 3 -2 6 -13 5 -11 0 -14 -3 -6 -6z"/>
<path d="M1430 5018 c0 -4 14 -8 30 -8 17 0 30 2 30 4 0 2 -13 6 -30 8 -16 3
-30 1 -30 -4z"/>
<path d="M1350 4960 c27 -23 40 -25 40 -6 0 7 -10 16 -22 20 -38 10 -42 7 -18
-14z"/>
<path d="M1477 4903 c-15 -15 -5 -23 30 -23 22 0 33 4 28 9 -15 13 -50 22 -58
14z"/>
<path d="M1136 4830 c6 -6 21 -6 39 -1 30 9 30 9 -9 10 -26 1 -37 -2 -30 -9z"/>
<path d="M1360 4830 c0 -5 5 -10 10 -10 6 0 10 5 10 10 0 6 -4 10 -10 10 -5 0
-10 -4 -10 -10z"/>
<path d="M1276 4722 c-4 -6 -13 -9 -21 -5 -10 3 -15 -1 -15 -12 0 -11 5 -15
15 -11 8 3 15 0 15 -7 0 -9 2 -9 8 1 5 7 16 10 25 6 9 -3 23 1 31 9 14 13 13
15 -4 20 -11 3 -23 1 -26 -5 -4 -7 -9 -6 -14 2 -5 8 -10 9 -14 2z"/>
<path d="M1375 4720 c-3 -5 -1 -10 4 -10 6 0 11 5 11 10 0 6 -2 10 -4 10 -3 0
-8 -4 -11 -10z"/>
<path d="M897 4713 c-4 -3 -7 -11 -7 -17 0 -6 5 -5 12 2 6 6 9 14 7 17 -3 3
-9 2 -12 -2z"/>
<path d="M1471 4708 c-30 -8 -32 -12 -26 -36 4 -15 7 -27 8 -27 1 -1 15 -6 30
-13 16 -7 33 -10 38 -7 13 8 11 38 -4 67 -11 21 -16 23 -46 16z"/>
<path d="M1210 4695 c0 -8 5 -15 10 -15 6 0 10 7 10 15 0 8 -4 15 -10 15 -5 0
-10 -7 -10 -15z"/>
<path d="M1125 4684 c-48 -17 -79 -44 -53 -44 9 0 20 5 23 10 3 6 16 10 28 10
22 1 57 21 57 34 0 8 -9 7 -55 -10z"/>
<path d="M808 4683 c7 -3 16 -2 19 1 4 3 -2 6 -13 5 -11 0 -14 -3 -6 -6z"/>
<path d="M970 4660 c-8 -5 -10 -10 -5 -10 6 0 17 5 25 10 8 5 11 10 5 10 -5 0
-17 -5 -25 -10z"/>
<path d="M865 4620 c-2 -4 7 -7 20 -7 33 0 40 12 9 13 -13 1 -26 -2 -29 -6z"/>
<path d="M1320 4611 c0 -5 5 -13 10 -16 6 -3 10 -2 10 4 0 5 -4 13 -10 16 -5
3 -10 2 -10 -4z"/>
<path d="M1290 4603 c0 -6 -3 -18 -6 -27 -3 -9 -1 -16 5 -16 17 0 25 30 12 43
-8 8 -11 8 -11 0z"/>
<path d="M1551 4584 c0 -11 3 -14 6 -6 3 7 2 16 -1 19 -3 4 -6 -2 -5 -13z"/>
<path d="M1441 4554 c0 -11 3 -14 6 -6 3 7 2 16 -1 19 -3 4 -6 -2 -5 -13z"/>
<path d="M1530 4540 c0 -5 5 -10 10 -10 6 0 10 5 10 10 0 6 -4 10 -10 10 -5 0
-10 -4 -10 -10z"/>
<path d="M1080 4459 c0 -5 -4 -7 -10 -4 -5 3 -10 -1 -10 -10 0 -9 4 -14 9 -11
5 4 12 0 14 -6 3 -7 6 -1 6 15 1 15 -1 27 -4 27 -3 0 -5 -5 -5 -11z"/>
<path d="M1945 5880 c3 -5 8 -10 11 -10 2 0 4 5 4 10 0 6 -5 10 -11 10 -5 0
-7 -4 -4 -10z"/>
<path d="M6340 4535 c-7 -8 -16 -13 -20 -10 -4 3 -11 -2 -14 -11 -5 -12 -2
-15 10 -10 9 3 33 9 55 12 41 7 50 18 23 28 -25 10 -41 7 -54 -9z"/>
<path d="M6440 4520 c0 -12 28 -25 36 -17 3 3 -4 10 -15 17 -15 7 -21 7 -21 0z"/>
<path d="M6487 4488 c-4 -11 7 -43 19 -57 3 -3 11 4 18 15 10 13 11 24 5 36
-11 21 -35 24 -42 6z"/>
<path d="M6560 4489 c0 -5 5 -7 10 -4 6 3 10 8 10 11 0 2 -4 4 -10 4 -5 0 -10
-5 -10 -11z"/>
<path d="M6280 4480 c0 -5 5 -10 10 -10 6 0 10 5 10 10 0 6 -4 10 -10 10 -5 0
-10 -4 -10 -10z"/>
<path d="M6211 4449 c12 -12 19 -29 16 -40 -3 -10 -1 -22 4 -25 6 -4 6 -11 -1
-19 -8 -9 -8 -15 0 -20 15 -9 12 -41 -5 -55 -20 -17 -19 -27 4 -40 15 -7 33
-4 77 16 52 23 66 25 124 18 36 -4 72 -8 82 -9 9 0 20 -3 24 -7 15 -15 43 -8
61 16 11 13 30 26 44 29 13 2 2 5 -26 6 -58 2 -80 12 -72 35 8 19 -11 32 -26
17 -18 -18 -25 -13 -32 20 -4 19 -15 33 -26 36 -10 3 -19 9 -19 14 0 5 -8 9
-17 9 -14 0 -13 -3 5 -23 12 -13 22 -33 22 -45 0 -22 -1 -22 -30 -7 -27 14
-44 5 -19 -10 5 -4 9 -14 7 -22 -2 -11 -17 -16 -53 -17 -28 -1 -57 -6 -64 -11
-11 -6 -13 -4 -8 7 3 9 1 20 -5 26 -7 7 -6 16 1 30 8 14 8 23 1 27 -6 4 -8 15
-5 26 5 14 3 17 -9 13 -10 -4 -18 0 -22 10 -3 9 -17 16 -30 16 l-24 0 21 -21z
m49 -61 c0 -4 -6 -5 -14 -2 -8 3 -12 12 -9 21 5 12 7 12 14 1 5 -7 9 -16 9
-20z"/>
<path d="M6108 4433 c7 -3 16 -2 19 1 4 3 -2 6 -13 5 -11 0 -14 -3 -6 -6z"/>
<path d="M6148 4433 c7 -3 16 -2 19 1 4 3 -2 6 -13 5 -11 0 -14 -3 -6 -6z"/>
<path d="M6605 4400 c-3 -5 1 -10 10 -10 9 0 13 5 10 10 -3 6 -8 10 -10 10 -2
0 -7 -4 -10 -10z"/>
<path d="M6080 4160 c11 -20 40 -28 40 -10 0 9 -31 30 -45 30 -3 0 -1 -9 5
-20z"/>
<path d="M6261 3964 c-23 -16 -28 -44 -8 -44 6 0 29 13 49 29 l37 28 -28 1
c-16 0 -38 -6 -50 -14z"/>
<path d="M5940 3950 c0 -5 5 -10 10 -10 6 0 10 5 10 10 0 6 -4 10 -10 10 -5 0
-10 -4 -10 -10z"/>
<path d="M6200 3886 c0 -14 4 -27 9 -31 15 -8 24 14 12 29 -6 7 -8 16 -4 19 3
4 1 7 -5 7 -7 0 -12 -11 -12 -24z"/>
<path d="M6760 3330 c0 -11 5 -20 10 -20 6 0 10 9 10 20 0 11 -4 20 -10 20 -5
0 -10 -9 -10 -20z"/>
<path d="M6970 7345 c0 -2 26 -17 57 -31 66 -32 98 -62 113 -110 6 -19 15 -34
20 -34 5 0 8 -15 8 -32 0 -32 9 -228 11 -238 1 -3 6 2 11 10 5 8 10 73 10 143
0 144 -8 170 -76 251 -37 45 -40 46 -96 46 -32 0 -58 -2 -58 -5z"/>
<path d="M6392 7290 c0 -19 2 -27 5 -17 2 9 2 25 0 35 -3 9 -5 1 -5 -18z"/>
<path d="M6332 7280 c0 -19 2 -27 5 -17 2 9 2 25 0 35 -3 9 -5 1 -5 -18z"/>
<path d="M6100 6900 c0 -5 5 -10 11 -10 5 0 7 5 4 10 -3 6 -8 10 -11 10 -2 0
-4 -4 -4 -10z"/>
<path d="M5874 6743 c4 -13 -5 -23 -33 -35 -20 -10 -42 -18 -48 -18 -6 0 -16
-7 -23 -15 -7 -8 -23 -15 -36 -15 -16 0 -28 -10 -39 -34 -18 -38 -44 -54 -57
-34 -5 9 -8 6 -8 -10 0 -13 -7 -37 -16 -54 -14 -28 -17 -29 -26 -14 -9 16 -11
16 -25 -4 -13 -19 -14 -28 -2 -62 10 -32 16 -38 33 -34 12 3 24 6 29 6 4 0 7
6 7 13 1 32 172 187 206 187 13 0 26 5 30 11 3 6 26 20 51 31 49 21 90 18 133
-12 50 -35 106 -57 126 -49 10 4 34 5 53 2 42 -7 34 12 -9 22 -31 7 -38 23
-18 43 9 9 7 13 -8 17 -10 4 -29 11 -42 16 -13 5 -32 9 -43 9 -11 0 -34 7 -51
16 -34 18 -75 21 -130 10 -31 -6 -38 -4 -38 8 0 9 -5 16 -11 16 -6 0 -8 -8 -5
-17z"/>
<path d="M6240 6690 c0 -4 10 -10 23 -13 12 -2 31 -8 42 -12 15 -6 17 -5 9 4
-13 15 -74 32 -74 21z"/>
<path d="M6336 6608 c5 -13 8 -33 9 -45 0 -13 6 -23 14 -23 8 0 11 3 8 7 -4 3
-2 12 4 19 9 10 7 15 -5 20 -9 3 -16 15 -16 25 0 10 -5 19 -11 19 -6 0 -7 -8
-3 -22z"/>
<path d="M6281 6566 c7 -14 19 -26 27 -26 13 0 13 3 0 22 -22 33 -41 36 -27 4z"/>
<path d="M6190 6561 c0 -6 6 -11 13 -11 7 0 24 -12 37 -27 16 -19 25 -23 28
-14 2 7 -4 21 -14 31 -24 22 -64 35 -64 21z"/>
<path d="M5810 6506 c-64 -22 -115 -50 -148 -83 -18 -18 -38 -30 -46 -27 -10
4 -12 -2 -9 -19 4 -18 -4 -33 -26 -56 -17 -17 -31 -35 -31 -39 0 -11 19 -37
23 -32 2 3 18 26 36 53 18 26 35 47 39 47 4 0 25 17 47 37 60 54 117 76 193
74 36 -1 73 -6 83 -11 28 -15 107 -21 115 -9 8 13 -14 29 -39 29 -11 0 -30 9
-44 20 -14 11 -30 17 -35 14 -5 -3 -14 -2 -21 4 -17 13 -96 12 -137 -2z"/>
<path d="M6445 6421 c33 -8 75 -32 75 -42 0 -4 7 -9 15 -13 23 -8 18 20 -7 44
-16 14 -34 20 -67 19 -41 -1 -43 -2 -16 -8z"/>
<path d="M5946 6275 c-11 -8 -15 -15 -9 -15 6 0 16 7 23 15 16 19 11 19 -14 0z"/>
<path d="M5893 5919 c-13 -5 -23 -11 -23 -13 0 -3 10 -2 23 3 12 4 28 6 35 4
6 -3 12 -3 12 0 0 11 -26 14 -47 6z"/>
<path d="M5918 5873 c-10 -2 -18 -8 -18 -13 0 -13 29 -20 85 -20 56 0 83 16
43 24 -47 10 -93 13 -110 9z"/>
<path d="M5733 5853 c9 -2 25 -2 35 0 9 3 1 5 -18 5 -19 0 -27 -2 -17 -5z"/>
<path d="M5860 5845 c0 -11 -11 -15 -37 -16 -21 0 -47 -4 -58 -9 -15 -6 -5 -9
36 -9 30 -1 60 4 67 11 15 15 16 38 2 38 -5 0 -10 -7 -10 -15z"/>
<path d="M6135 5840 c-3 -5 -2 -10 4 -10 5 0 13 5 16 10 3 6 2 10 -4 10 -5 0
-13 -4 -16 -10z"/>
<path d="M5688 5833 c7 -3 16 -2 19 1 4 3 -2 6 -13 5 -11 0 -14 -3 -6 -6z"/>
<path d="M6170 5820 c0 -5 5 -10 11 -10 5 0 7 5 4 10 -3 6 -8 10 -11 10 -2 0
-4 -4 -4 -10z"/>
<path d="M6063 5783 c9 -2 23 -2 30 0 6 3 -1 5 -18 5 -16 0 -22 -2 -12 -5z"/>
<path d="M5936 5745 c-8 -8 -19 -15 -25 -15 -19 0 -12 -16 8 -17 11 -1 22 5
25 13 3 8 15 14 26 14 11 0 20 5 20 10 0 15 -37 12 -54 -5z"/>
<path d="M5510 5714 c0 -7 10 -9 25 -6 32 6 32 20 0 18 -14 0 -25 -6 -25 -12z"/>
<path d="M5600 5690 c0 -5 7 -10 15 -10 8 0 15 5 15 10 0 6 -7 10 -15 10 -8 0
-15 -4 -15 -10z"/>
<path d="M5910 5650 c0 -10 -55 -21 -102 -20 -34 0 -143 -33 -161 -50 -5 -4 5
-12 21 -18 22 -7 45 -6 88 5 33 8 78 19 102 25 23 6 42 14 42 18 0 4 11 11 25
14 30 8 33 22 5 29 -11 3 -20 2 -20 -3z m-120 -40 c-8 -5 -19 -10 -25 -10 -5
0 -3 5 5 10 8 5 20 10 25 10 6 0 3 -5 -5 -10z"/>
<path d="M5478 5553 c-10 -2 -18 -13 -18 -24 0 -10 -3 -19 -7 -20 -5 0 -18 -2
-29 -3 -22 -3 -80 -53 -71 -62 9 -9 91 37 112 63 11 13 30 25 43 26 26 2 29
12 6 21 -9 3 -16 5 -17 5 -1 -1 -10 -3 -19 -6z"/>
<path d="M5593 5553 c-12 -4 -5 -43 8 -43 5 0 9 5 9 10 0 6 9 10 20 10 11 0
20 4 20 9 0 10 -40 19 -57 14z"/>
<path d="M5668 5503 c6 -2 18 -2 25 0 6 3 1 5 -13 5 -14 0 -19 -2 -12 -5z"/>
<path d="M5535 5490 c-19 -8 -19 -9 2 -9 12 -1 25 4 28 9 7 12 -2 12 -30 0z"/>
<path d="M5576 5474 c-24 -17 -19 -23 11 -15 14 4 20 10 15 18 -5 8 -12 8 -26
-3z"/>
<path d="M5696 5433 c-4 -4 -24 -6 -44 -5 -20 1 -43 -2 -50 -6 -21 -14 135
-23 164 -10 13 6 21 15 18 19 -6 11 -78 12 -88 2z m37 -20 c-7 -2 -19 -2 -25
0 -7 3 -2 5 12 5 14 0 19 -2 13 -5z"/>
<path d="M5870 5321 c0 -5 6 -12 13 -15 6 -3 -7 -2 -30 1 -36 5 -43 3 -43 -11
0 -17 41 -39 50 -26 3 4 18 13 34 21 42 20 45 39 7 39 -17 0 -31 -4 -31 -9z"/>
<path d="M5236 5281 c-11 -4 -15 -10 -10 -13 5 -2 20 1 34 8 26 14 8 18 -24 5z"/>
<path d="M5685 5280 c-4 -6 5 -10 20 -10 15 0 24 4 20 10 -3 6 -12 10 -20 10
-8 0 -17 -4 -20 -10z"/>
<path d="M5305 5270 c-3 -6 1 -7 9 -4 18 7 21 14 7 14 -6 0 -13 -4 -16 -10z"/>
<path d="M5790 5250 c0 -5 5 -10 10 -10 6 0 10 5 10 10 0 6 -4 10 -10 10 -5 0
-10 -4 -10 -10z"/>
<path d="M5700 5205 c-11 -13 -8 -15 14 -15 16 0 26 5 26 15 0 8 -6 15 -14 15
-7 0 -19 -7 -26 -15z"/>
<path d="M5230 5190 c0 -5 4 -10 9 -10 6 0 13 5 16 10 3 6 -1 10 -9 10 -9 0
-16 -4 -16 -10z"/>
<path d="M5767 5193 c-3 -5 9 -9 26 -10 24 -2 28 0 17 7 -18 12 -37 13 -43 3z"/>
<path d="M5730 5170 c-8 -5 -12 -11 -9 -14 2 -3 11 -1 19 4 8 5 12 11 9 14 -2
3 -11 1 -19 -4z"/>
<path d="M5125 5140 c-8 -13 5 -13 25 0 13 8 13 10 -2 10 -9 0 -20 -4 -23 -10z"/>
<path d="M5210 5130 c-9 -6 -10 -10 -3 -10 6 0 15 5 18 10 8 12 4 12 -15 0z"/>
<path d="M5510 5100 c-9 -6 -10 -10 -3 -10 6 0 15 5 18 10 8 12 4 12 -15 0z"/>
<path d="M5275 5000 c-3 -5 1 -10 10 -10 9 0 13 5 10 10 -3 6 -8 10 -10 10 -2
0 -7 -4 -10 -10z"/>
<path d="M3671 4633 c0 -4 4 -17 9 -28 8 -19 9 -19 9 2 1 12 -3 25 -9 28 -5 3
-10 3 -9 -2z"/>
<path d="M4212 4495 c0 -16 2 -22 5 -12 2 9 2 23 0 30 -3 6 -5 -1 -5 -18z"/>
<path d="M4297 4475 c-10 -25 -8 -87 2 -81 5 3 9 0 8 -7 0 -6 1 -28 2 -47 2
-29 4 -32 11 -15 13 31 11 117 -4 144 -11 20 -14 21 -19 6z"/>
<path d="M4642 4253 c-6 -12 -12 -30 -12 -39 0 -17 1 -17 16 -2 9 8 14 26 12
39 l-3 24 -13 -22z"/>
<path d="M4547 4210 c-3 -11 -1 -20 4 -20 5 0 9 9 9 20 0 11 -2 20 -4 20 -2 0
-6 -9 -9 -20z"/>
<path d="M4765 4169 c-9 -17 -15 -33 -13 -35 3 -2 12 12 21 31 21 43 13 47 -8
4z"/>
<path d="M4924 4083 c-23 -38 -84 -154 -84 -161 0 -4 13 12 28 36 16 23 32 39
37 35 4 -5 5 -2 1 5 -4 6 -3 12 3 12 11 0 34 65 29 80 -2 6 -8 2 -14 -7z"/>
<path d="M2200 3925 c27 -29 40 -32 40 -10 0 9 -12 20 -26 25 -38 15 -40 13
-14 -15z"/>
<path d="M2430 3920 c-9 -6 -10 -10 -3 -10 6 0 15 5 18 10 8 12 4 12 -15 0z"/>
<path d="M2250 3905 c0 -8 3 -15 8 -15 4 0 19 -11 33 -24 25 -23 74 -49 115
-60 11 -4 37 -22 58 -41 21 -19 42 -35 46 -35 4 0 10 -7 14 -15 3 -8 12 -15
21 -15 13 0 14 3 3 23 -7 12 -12 27 -13 32 0 6 -5 10 -12 10 -7 0 -22 8 -33
18 -11 9 -27 17 -34 17 -8 0 -27 11 -43 24 -15 13 -43 31 -61 40 -20 10 -32
23 -29 31 4 8 -1 11 -13 8 -10 -3 -27 0 -39 6 -17 10 -21 9 -21 -4z"/>
<path d="M3331 3884 c0 -11 3 -14 6 -6 3 7 2 16 -1 19 -3 4 -6 -2 -5 -13z"/>
<path d="M2190 3861 c14 -11 30 -21 35 -21 11 0 -7 14 -40 31 -13 7 -12 3 5
-10z"/>
<path d="M2457 3873 c-7 -7 31 -43 45 -43 17 0 23 -2 34 -11 8 -6 14 -4 18 6
4 10 2 14 -5 9 -6 -4 -15 0 -20 7 -7 12 -9 11 -10 -1 0 -8 -4 -4 -8 9 -6 23
-41 38 -54 24z"/>
<path d="M3510 3871 c0 -6 4 -13 10 -16 6 -3 7 1 4 9 -7 18 -14 21 -14 7z"/>
<path d="M3376 3838 c-8 -32 -7 -48 3 -48 5 0 11 16 13 35 4 39 -6 48 -16 13z"/>
<path d="M3326 3828 c4 -6 7 -25 7 -42 -1 -26 0 -28 7 -11 13 32 11 52 -6 59
-9 4 -13 2 -8 -6z"/>
<path d="M2204 3823 c2 -5 19 -15 38 -24 107 -52 134 -55 86 -12 -30 26 -138
57 -124 36z"/>
<path d="M5199 3783 c-13 -16 -12 -17 4 -4 16 13 21 21 13 21 -2 0 -10 -8 -17
-17z"/>
<path d="M2600 3760 c0 -5 7 -10 16 -10 8 0 12 5 9 10 -3 6 -10 10 -16 10 -5
0 -9 -4 -9 -10z"/>
<path d="M2440 3670 c-10 -6 -8 -10 6 -18 26 -13 100 -24 88 -13 -18 18 -82
39 -94 31z"/>
<path d="M1658 3573 c6 -2 18 -2 25 0 6 3 1 5 -13 5 -14 0 -19 -2 -12 -5z"/>
<path d="M1490 3390 c-24 -8 -24 -8 7 -9 17 -1 35 4 38 9 7 11 -9 11 -45 0z"/>
<path d="M5708 3283 c6 -2 18 -2 25 0 6 3 1 5 -13 5 -14 0 -19 -2 -12 -5z"/>
<path d="M1555 3254 c-20 -15 -20 -16 4 -12 14 2 26 9 29 16 5 16 -9 15 -33
-4z"/>
<path d="M1608 3263 c7 -3 16 -2 19 1 4 3 -2 6 -13 5 -11 0 -14 -3 -6 -6z"/>
<path d="M7170 3255 c-7 -8 -8 -15 -2 -15 5 0 15 7 22 15 7 8 8 15 2 15 -5 0
-15 -7 -22 -15z"/>
<path d="M5820 3230 c0 -5 4 -10 9 -10 6 0 13 5 16 10 3 6 -1 10 -9 10 -9 0
-16 -4 -16 -10z"/>
<path d="M7130 3220 c0 -5 5 -10 10 -10 6 0 10 5 10 10 0 6 -4 10 -10 10 -5 0
-10 -4 -10 -10z"/>
<path d="M7165 3180 c-8 -13 5 -13 25 0 13 8 13 10 -2 10 -9 0 -20 -4 -23 -10z"/>
<path d="M6746 2741 c-3 -5 1 -14 9 -21 13 -10 15 -9 15 9 0 21 -14 28 -24 12z"/>
<path d="M6790 2705 c0 -8 4 -15 10 -15 5 0 7 7 4 15 -4 8 -8 15 -10 15 -2 0
-4 -7 -4 -15z"/>
<path d="M6718 2703 c7 -3 16 -2 19 1 4 3 -2 6 -13 5 -11 0 -14 -3 -6 -6z"/>
<path d="M6435 2670 c-18 -8 -17 -9 8 -9 15 -1 27 4 27 9 0 12 -8 12 -35 0z"/>
<path d="M6388 2653 c7 -3 16 -2 19 1 4 3 -2 6 -13 5 -11 0 -14 -3 -6 -6z"/>
<path d="M6300 2640 c-12 -8 -12 -10 5 -9 11 0 29 4 40 9 18 8 18 9 -5 9 -14
0 -32 -4 -40 -9z"/>
<path d="M6334 2594 c-18 -14 -18 -14 6 -3 31 14 36 19 24 19 -6 0 -19 -7 -30
-16z"/>
<path d="M6765 2520 c3 -5 8 -10 11 -10 2 0 4 5 4 10 0 6 -5 10 -11 10 -5 0
-7 -4 -4 -10z"/>
<path d="M6525 2501 c19 -8 18 -9 -5 -12 -14 -2 -23 -8 -22 -13 2 -5 -2 -12
-9 -16 -6 -5 -10 -14 -7 -21 7 -18 134 -20 131 -3 -1 7 3 11 10 11 35 -1 57 4
57 13 0 16 -33 26 -38 12 -5 -17 -22 -15 -22 2 0 7 -13 16 -29 19 -86 17 -86
18 -66 8z"/>
<path d="M6480 2400 l-25 -8 28 -1 c30 -1 38 -27 10 -34 -17 -4 -17 -5 -1 -6
23 -1 20 -41 -4 -59 -31 -22 -21 -39 30 -52 51 -12 88 -4 110 23 18 21 52 118
46 128 -9 15 -61 10 -99 -8 -19 -9 -38 -13 -42 -8 -5 4 -2 10 5 12 6 3 10 9 6
14 -6 11 -29 10 -64 -1z"/>
<path d="M4615 2340 c-3 -5 -1 -10 4 -10 6 0 11 5 11 10 0 6 -2 10 -4 10 -3 0
-8 -4 -11 -10z"/>
<path d="M6502 2211 c-11 -6 -10 -10 1 -19 15 -13 35 -16 84 -14 25 2 31 6 30
22 -1 17 -8 20 -52 20 -27 0 -56 -4 -63 -9z"/>
<path d="M406 2178 c-8 -12 -13 -25 -10 -30 3 -4 0 -8 -5 -8 -6 0 -11 -5 -11
-11 0 -6 7 -8 16 -5 12 4 14 1 9 -14 -9 -30 11 -24 34 9 18 25 19 33 10 55
-15 32 -23 32 -43 4z"/>
<path d="M6525 2150 c-3 -5 -23 -11 -43 -11 -21 -1 -28 -3 -17 -6 28 -7 43
-23 22 -23 -34 0 -16 -18 23 -22 40 -4 62 6 73 32 3 9 6 10 6 3 1 -21 21 -15
21 6 0 28 -70 45 -85 21z"/>
<path d="M260 2115 c-10 -13 -15 -13 -21 -3 -5 8 -11 4 -18 -15 -6 -16 -16
-25 -22 -22 -6 4 -17 -1 -24 -11 -11 -14 -14 -15 -15 -5 0 12 -3 11 -12 -2 -7
-9 -28 -18 -47 -19 -18 -1 -35 -8 -38 -15 -7 -19 -47 1 -54 28 -4 13 -7 -51
-8 -143 -1 -139 1 -168 13 -168 8 0 16 5 18 11 2 5 22 13 45 16 36 5 41 8 40
30 -1 17 7 29 27 41 35 21 105 93 106 108 0 7 11 19 25 28 13 9 42 43 64 76
34 52 37 60 21 60 -10 0 -22 5 -25 10 -10 16 -61 12 -75 -5z"/>
<path d="M6490 2062 c-36 -12 28 -42 72 -33 22 5 25 9 15 21 -11 14 -61 20
-87 12z"/>
<path d="M6450 2011 c0 -6 11 -11 25 -11 14 0 38 -8 52 -17 34 -22 120 -53
127 -45 23 22 -25 55 -97 67 -18 3 -49 8 -69 11 -25 4 -38 2 -38 -5z m147 -37
c-3 -3 -12 -4 -19 -1 -8 3 -5 6 6 6 11 1 17 -2 13 -5z"/>
<path d="M6470 1951 c0 -5 15 -13 33 -17 l32 -7 -25 -9 c-23 -8 -23 -10 -7
-19 9 -6 35 -11 57 -11 29 0 47 -7 63 -24 24 -26 47 -33 27 -9 -10 12 -10 15
1 15 8 0 -3 11 -24 25 -20 14 -37 30 -37 34 0 12 -56 31 -91 31 -16 0 -29 -4
-29 -9z"/>
<path d="M7110 1873 c0 -4 5 -15 10 -23 8 -13 10 -13 10 2 0 9 -4 20 -10 23
-5 3 -10 3 -10 -2z"/>
<path d="M6508 1848 c12 -12 113 -40 121 -33 1 2 -5 12 -15 23 -13 13 -34 20
-69 21 -40 1 -47 -1 -37 -11z"/>
<path d="M7103 1811 c-1 -20 4 -40 10 -44 9 -6 9 -10 0 -14 -7 -2 -13 -20 -13
-38 0 -18 6 -36 13 -38 7 -3 5 -6 -5 -6 -14 -1 -18 -10 -18 -43 0 -62 -9 -71
-65 -67 -51 4 -70 -11 -36 -27 19 -9 102 -77 148 -121 13 -12 23 -33 23 -46 0
-14 7 -28 16 -31 12 -5 15 -14 10 -36 -3 -17 -1 -30 4 -30 14 0 13 217 -1 226
-7 4 -9 22 -6 48 7 51 -8 85 -18 40 -11 -50 -14 -54 -30 -48 -16 6 -21 34 -6
34 4 0 9 26 9 58 1 31 2 66 3 77 1 21 -3 39 -16 68 -4 9 -4 24 -1 33 3 8 0 21
-7 29 -11 10 -13 6 -14 -24z"/>
<path d="M7145 1829 c-4 -6 -5 -13 -2 -15 7 -8 57 7 57 17 0 13 -47 11 -55 -2z"/>
<path d="M7185 1780 c-3 -5 -1 -10 4 -10 6 0 11 5 11 10 0 6 -2 10 -4 10 -3 0
-8 -4 -11 -10z"/>
<path d="M6550 1770 c-18 -12 -2 -12 25 0 13 6 15 9 5 9 -8 0 -22 -4 -30 -9z"/>
<path d="M6450 1738 c0 -4 5 -10 11 -14 8 -4 7 -9 -2 -15 -11 -7 -10 -11 6
-23 11 -8 31 -18 45 -21 14 -4 46 -20 73 -37 31 -20 53 -28 65 -23 15 6 14 8
-8 16 -33 13 -35 16 -20 34 8 10 9 15 1 15 -6 0 -11 -5 -11 -11 0 -5 -15 0
-32 13 -18 13 -42 28 -53 34 -11 7 -19 18 -19 26 1 10 -8 15 -27 14 -16 -1
-29 -4 -29 -8z"/>
<path d="M6646 1722 c8 -18 20 -32 25 -32 16 0 10 16 -16 40 l-25 24 16 -32z"/>
<path d="M35 1720 c-3 -5 1 -10 9 -10 9 0 16 5 16 10 0 6 -4 10 -9 10 -6 0
-13 -4 -16 -10z"/>
<path d="M6467 1629 c18 -30 18 -30 -4 -47 -27 -21 -25 -59 3 -54 11 2 16 1
12 -4 -4 -4 -3 -13 2 -19 8 -10 2 -14 -25 -17 -19 -2 -35 0 -35 4 0 4 -14 8
-31 8 -27 0 -31 -3 -26 -21 4 -16 2 -19 -11 -14 -9 4 -33 9 -53 12 -28 4 -37
1 -43 -12 -7 -20 19 -55 41 -55 12 0 12 -3 -1 -15 -12 -12 -20 -13 -35 -5 -27
14 -41 13 -35 -4 7 -18 57 -28 66 -13 5 9 10 9 20 -1 7 -7 36 -12 68 -11 55 1
55 1 25 14 -16 8 -23 14 -14 15 8 0 24 -6 35 -14 10 -8 23 -11 29 -7 17 14 95
20 128 10 37 -10 67 -3 67 15 0 8 13 16 29 19 17 4 32 14 36 26 4 12 12 18 21
14 8 -3 14 1 14 8 0 13 70 69 85 69 8 0 35 26 35 34 0 15 -55 4 -96 -19 -57
-32 -87 -32 -113 1 -11 15 -38 35 -58 46 -21 11 -57 31 -81 44 -23 13 -50 24
-58 24 -13 0 -12 -4 3 -31z"/>
<path d="M4085 1570 c-3 -5 -12 -7 -21 -3 -8 3 -24 -3 -34 -12 -20 -18 -60
-21 -140 -8 -78 12 -139 8 -157 -9 -16 -17 -16 -20 0 -65 9 -27 17 -57 17 -68
0 -11 15 -30 32 -42 35 -25 34 -25 -50 -42 -91 -19 -119 -15 -144 19 -12 17
-26 30 -30 30 -5 0 -27 14 -49 32 -63 51 -58 23 8 -39 33 -32 74 -79 92 -105
22 -34 46 -54 81 -70 28 -13 50 -26 50 -30 0 -5 15 -8 33 -8 17 0 44 -6 59
-14 23 -12 30 -12 57 5 18 11 34 27 38 37 17 48 57 49 67 2 4 -23 9 -27 26
-23 11 3 20 0 20 -6 0 -6 -5 -11 -11 -11 -6 0 -9 -7 -5 -15 5 -13 -44 -75 -59
-75 -21 0 -35 -34 -35 -86 0 -32 3 -54 7 -51 13 14 43 -25 37 -49 -4 -15 -2
-24 5 -24 17 0 13 -28 -6 -39 -10 -6 -12 -11 -5 -11 29 0 7 -54 -23 -55 -9 0
-11 -7 -14 -58 -1 -11 -6 -15 -12 -11 -6 3 -15 0 -20 -7 -4 -8 -12 -14 -16
-14 -14 0 -53 -39 -53 -52 0 -7 -4 -13 -10 -13 -13 0 -32 38 -25 50 3 6 4 10
1 10 -3 0 -12 -16 -21 -36 -8 -19 -19 -33 -25 -29 -5 3 -10 -1 -10 -11 0 -15
-2 -15 -23 -1 -22 14 -24 14 -36 -16 -10 -28 -13 -30 -24 -16 -9 12 -18 14
-35 8 -12 -5 -22 -6 -22 -2 0 3 -6 0 -13 -6 -8 -6 -17 -8 -20 -4 -4 3 -7 1 -7
-6 0 -8 -10 -11 -27 -9 -22 2 -28 -2 -33 -22 -6 -25 -7 -25 -14 -3 -8 26 -32
21 -41 -8 -7 -20 -40 -26 -50 -9 -5 8 -12 7 -23 -2 -12 -10 -14 -10 -8 0 9 16
-5 16 -28 -1 -25 -18 -133 -13 -156 8 -12 11 -20 13 -25 6 -9 -16 -25 -13 -19
3 5 12 -1 14 -23 10 -58 -11 -98 -11 -106 0 -5 7 -14 3 -28 -13 l-20 -25 6 27
c7 26 6 27 -39 27 -36 0 -44 3 -40 15 8 19 -10 19 -30 0 -8 -8 -19 -15 -25
-15 -6 0 -12 -10 -12 -22 -1 -13 -2 -27 -4 -33 -1 -5 -3 -14 -4 -20 -1 -5 -6
-3 -11 5 -8 13 -10 12 -10 -3 0 -11 -5 -17 -12 -14 -7 2 -12 12 -10 21 2 12
-2 16 -14 14 -9 -2 -19 3 -22 11 -3 10 2 11 19 6 22 -7 22 -7 6 10 -13 12 -21
14 -30 6 -19 -15 -54 -3 -72 26 -13 19 -19 22 -30 13 -10 -8 -15 -8 -20 1 -5
6 -19 9 -37 5 -16 -3 -27 -2 -23 3 3 5 -5 7 -17 3 -22 -5 -22 -4 -5 15 20 24
22 33 4 33 -8 0 -27 6 -43 14 -16 8 -41 19 -56 25 -21 8 -28 17 -28 36 0 14
-11 34 -25 47 -13 11 -22 25 -19 29 7 12 -28 58 -44 59 -7 0 -15 7 -18 15 -4
8 -11 15 -18 15 -20 0 -63 47 -82 89 -15 36 -25 43 -93 70 -63 25 -93 30 -118
22 -2 -1 18 -20 42 -42 45 -41 59 -79 30 -79 -21 0 -19 -5 12 -38 16 -16 69
-73 118 -128 106 -116 137 -146 143 -140 2 3 15 -16 28 -40 25 -48 47 -74 61
-74 4 0 25 -16 47 -35 21 -19 43 -35 50 -35 6 0 24 -7 40 -15 17 -9 44 -17 61
-18 16 -2 35 -6 40 -9 6 -3 30 -11 55 -18 24 -7 62 -24 85 -39 22 -15 48 -31
58 -34 9 -4 22 -18 27 -32 10 -27 30 -34 30 -10 0 9 9 15 25 15 19 0 25 5 25
22 0 12 3 18 6 15 11 -11 79 32 89 56 6 12 29 32 52 45 40 22 44 22 79 7 36
-15 55 -17 159 -16 61 1 112 -15 120 -37 3 -9 12 -25 19 -35 14 -18 16 -18 40
-2 20 13 24 21 16 30 -8 10 -7 15 1 21 7 4 15 2 17 -4 2 -7 8 -10 13 -6 21 12
56 13 84 2 36 -15 47 -25 61 -58 l11 -25 5 33 c3 19 0 32 -6 32 -6 0 -17 9
-24 21 -11 18 -11 23 4 34 15 11 22 10 41 -2 13 -9 23 -24 23 -34 0 -12 7 -17
20 -16 11 1 20 8 20 17 0 8 12 26 26 39 19 18 28 21 36 13 18 -18 35 -14 41 9
5 18 12 20 58 18 34 -2 54 1 57 9 2 7 9 12 17 12 7 0 18 7 25 15 11 13 15 13
21 3 5 -7 25 -12 48 -12 31 1 42 -3 46 -17 8 -24 30 -36 91 -49 27 -6 73 -27
103 -48 43 -29 59 -48 80 -96 l27 -59 39 38 c48 45 133 85 181 85 70 0 129
-41 157 -110 15 -36 16 -139 2 -172 -6 -14 -2 -18 18 -18 21 0 25 5 31 46 12
94 8 128 -25 177 -39 59 -74 84 -136 97 -76 17 -173 -10 -217 -59 -27 -30 -39
-26 -65 19 -24 43 -14 54 24 26 16 -12 22 -11 44 5 15 10 49 24 76 30 65 16
112 36 118 52 4 9 7 9 18 0 9 -10 10 -13 1 -13 -7 0 -12 -5 -12 -10 0 -13 52
-9 62 4 12 18 97 10 126 -11 29 -22 60 -104 61 -160 1 -24 5 -31 15 -27 36 14
29 117 -10 159 -13 14 -24 32 -24 39 0 13 93 42 123 37 9 -1 17 2 17 8 0 5 10
11 22 13 13 2 32 17 43 35 11 18 34 37 52 43 18 6 35 21 39 32 4 14 8 17 14 8
5 -8 9 -7 13 4 4 9 10 15 14 15 14 -3 48 14 56 28 4 7 18 14 30 14 17 1 18 2
5 6 -10 2 -18 9 -18 15 0 6 -3 8 -7 5 -3 -4 -13 -1 -22 7 -9 7 -25 16 -36 18
-11 3 -28 9 -38 13 -15 6 -17 4 -12 -16 4 -18 -4 -34 -32 -63 -26 -28 -38 -36
-42 -25 -14 43 -100 94 -87 52 17 -59 28 -115 22 -120 -3 -4 -6 1 -6 11 0 9
-12 40 -26 69 -45 90 -82 117 -69 51 5 -31 4 -36 -9 -30 -9 3 -23 9 -31 12 -9
4 -15 1 -15 -8 0 -10 -9 -13 -30 -10 -34 5 -38 -3 -14 -29 27 -30 12 -39 -31
-18 -35 17 -40 18 -48 4 -6 -12 -17 -14 -37 -10 -16 3 -31 2 -35 -4 -3 -6 0
-11 7 -12 7 0 0 -5 -15 -9 -16 -5 -36 -6 -44 -3 -13 5 -15 1 -9 -20 9 -36 -7
-35 -44 3 -17 17 -30 26 -30 20 0 -5 -13 -10 -29 -10 -16 0 -31 -6 -34 -14 -6
-14 -47 -11 -47 3 0 4 -10 7 -22 6 -13 -1 -34 2 -47 7 -18 6 -27 4 -37 -9 -12
-16 -13 -16 -14 -1 0 10 -16 22 -45 31 -43 15 -45 15 -45 -4 0 -17 -4 -16 -30
11 -29 29 -47 40 -35 20 3 -5 -1 -10 -9 -10 -9 0 -16 5 -16 10 0 6 -7 10 -15
10 -8 0 -15 6 -16 13 0 6 -6 -1 -13 -17 -13 -28 -13 -28 -19 -6 -4 15 -11 21
-21 17 -12 -5 -16 0 -16 21 0 16 -7 37 -15 48 -14 19 -14 19 -15 -1 0 -18 -1
-18 -17 -3 -14 14 -14 22 -5 42 9 20 8 35 -6 71 -13 37 -14 49 -4 63 7 9 15
25 18 35 4 9 11 17 16 17 5 0 8 10 6 23 -2 12 2 21 8 20 18 -3 204 184 204
204 0 12 81 83 95 83 15 0 85 75 85 90 0 6 9 20 20 32 11 12 20 35 20 51 0 23
-2 26 -12 15 -7 -8 -18 -23 -24 -33 -14 -24 -74 -39 -74 -19 0 12 -3 12 -22 0
-13 -8 -37 -17 -54 -20 -16 -4 -40 -17 -52 -29 -40 -39 -72 -82 -72 -94 0 -7
-4 -13 -9 -13 -5 0 -12 6 -15 13 -3 6 -4 -5 -1 -25 4 -23 2 -38 -5 -38 -5 0
-10 7 -10 15 0 8 -5 15 -10 15 -6 0 -8 -12 -5 -27 3 -16 2 -22 -1 -15 -3 6
-14 12 -25 12 -22 0 -39 35 -39 82 0 26 2 29 15 18 13 -11 15 -8 15 15 0 20 4
26 16 21 8 -3 12 -2 9 4 -3 6 0 10 9 10 18 0 72 53 92 92 9 18 14 48 12 81 -3
46 -7 54 -37 74 -19 13 -46 23 -61 23 -14 0 -35 7 -46 15 -22 17 -40 19 -49 5z
m-62 -364 c6 -15 -1 -26 -15 -26 -4 0 -8 9 -8 20 0 23 15 27 23 6z m-1167
-803 c-14 -26 -26 -41 -26 -33 0 20 44 103 48 91 2 -5 -8 -31 -22 -58z m132
-13 c4 0 8 -14 9 -30 2 -26 -1 -30 -22 -30 -13 0 -27 -4 -30 -10 -9 -15 -42
-12 -49 5 -3 8 -12 12 -19 9 -20 -7 -29 42 -11 57 8 6 14 8 14 4 0 -4 7 -2 15
5 12 10 18 10 30 0 10 -9 15 -9 16 -1 1 6 3 16 4 21 1 6 3 13 4 18 1 4 9 -5
17 -20 8 -16 18 -28 22 -28z m378 23 c-10 -10 -19 5 -10 18 6 11 8 11 12 0 2
-7 1 -15 -2 -18z m54 -3 c0 -5 -4 -10 -9 -10 -6 0 -13 5 -16 10 -3 6 1 10 9
10 9 0 16 -4 16 -10z m263 -29 c-4 -17 -11 -21 -27 -17 -11 3 -29 6 -39 6 -34
0 -11 25 29 30 48 7 44 9 37 -19z m117 -31 c0 -5 -4 -10 -10 -10 -5 0 -10 5
-10 10 0 6 5 10 10 10 6 0 10 -4 10 -10z"/>
<path d="M151 1493 c-21 -8 -51 -41 -51 -56 0 -23 13 -28 25 -9 28 40 47 72
44 71 -2 0 -10 -3 -18 -6z"/>
<path d="M4556 1484 c-3 -9 -6 -28 -6 -42 1 -26 1 -26 15 7 8 18 15 37 15 42
0 15 -17 10 -24 -7z"/>
<path d="M6867 1384 c-12 -13 4 -24 34 -24 85 0 189 -113 189 -205 0 -46 -13
-51 -44 -14 -63 74 -150 107 -235 87 -30 -7 -51 -17 -51 -25 0 -10 7 -11 28
-6 108 31 215 -38 232 -151 8 -55 4 -65 -26 -60 -17 3 -24 0 -24 -12 0 -8 6
-14 12 -12 17 6 52 -28 43 -42 -5 -8 -10 -8 -21 1 -7 6 -20 9 -28 6 -8 -3 -17
-3 -21 1 -3 4 -39 7 -78 8 -39 0 -66 -1 -60 -3 7 -3 10 -10 7 -16 -2 -7 18
-22 47 -35 62 -29 60 -36 -6 -17 -27 9 -57 12 -68 9 -13 -4 -17 -2 -13 5 9 14
-19 14 -47 0 -13 -8 -22 -8 -24 -2 -11 31 -32 45 -76 48 l-48 3 7 -44 c7 -49
9 -48 -83 -44 -48 2 -57 -14 -19 -31 30 -14 43 -49 16 -42 -10 3 -27 0 -39 -6
-15 -9 -32 -9 -61 -1 l-39 11 19 34 c23 40 19 43 -21 14 -16 -11 -33 -17 -39
-14 -5 3 -10 1 -10 -6 0 -8 -4 -8 -15 1 -8 7 -15 9 -15 5 0 -4 -13 9 -30 30
-16 21 -30 43 -30 50 0 21 48 65 72 67 42 2 47 3 53 10 4 4 -14 10 -39 13 -25
4 -46 11 -46 16 0 13 41 27 60 22 8 -3 7 1 -4 8 -24 15 -127 26 -318 34 -141
6 -151 6 -133 -9 19 -15 18 -16 -22 -10 -24 4 -43 4 -43 0 0 -3 37 -24 83 -46
45 -22 79 -40 75 -40 -4 0 -49 14 -100 31 -51 17 -111 33 -133 36 l-40 4 35
-29 c51 -44 77 -68 65 -60 -29 18 -109 58 -116 58 -5 0 -8 -5 -6 -12 1 -8 -13
-11 -45 -9 -41 2 -47 0 -42 -14 4 -9 9 -14 11 -11 7 7 64 -14 93 -34 29 -20
216 -60 275 -60 22 1 57 7 79 15 21 7 46 11 55 8 12 -3 11 -1 -3 11 -17 13
-17 16 -4 16 9 0 24 -7 33 -16 12 -13 19 -14 30 -4 11 9 15 9 15 1 0 -6 5 -11
10 -11 6 0 10 8 10 18 0 13 2 14 9 4 10 -16 2 -62 -10 -62 -14 0 -10 -34 6
-56 8 -10 15 -28 15 -38 0 -11 18 -41 41 -68 27 -33 35 -48 25 -48 -26 0 -18
-17 26 -54 45 -39 91 -47 128 -24 17 11 24 8 53 -22 33 -33 34 -34 16 -54 -11
-11 -19 -32 -19 -47 0 -27 19 -40 83 -55 15 -3 30 -10 32 -15 10 -16 70 4 92
30 l23 26 20 -25 c11 -14 19 -36 18 -50 -3 -23 -7 -25 -58 -26 -93 -2 -97 -3
-80 -14 12 -8 11 -11 -9 -17 -23 -6 -24 -7 -5 -14 18 -7 18 -8 -1 -8 -15 -1
-21 -9 -23 -28 -1 -15 -9 -31 -17 -35 -8 -5 -17 -24 -21 -43 -8 -44 -28 -61
-57 -49 -29 12 -87 6 -87 -9 0 -14 61 -67 78 -67 6 0 12 -4 12 -10 0 -16 267
-13 273 3 4 10 6 10 6 0 1 -9 18 -13 52 -13 31 0 48 4 44 10 -3 6 -24 10 -46
10 -48 0 -51 15 -5 30 27 9 42 8 70 -4 20 -8 36 -22 36 -30 0 -13 12 -16 59
-16 l59 0 6 35 c4 22 17 41 32 52 14 9 31 28 39 43 8 16 31 34 55 44 36 14 40
19 40 52 0 36 -1 36 -32 30 -50 -10 -51 -10 -75 -2 -18 6 -23 3 -23 -11 0 -15
-2 -15 -9 -4 -5 8 -8 32 -6 53 3 29 0 38 -11 38 -8 0 -13 -4 -10 -9 3 -5 -1
-12 -10 -15 -11 -4 -18 1 -21 14 -3 11 -11 20 -19 20 -18 0 -94 40 -118 62
-19 18 -19 18 5 18 31 0 92 -21 114 -40 15 -12 20 -10 46 18 37 39 86 50 130
28 18 -9 35 -14 38 -11 10 11 -16 40 -35 40 -11 0 -24 3 -30 7 -14 9 -114 -21
-114 -34 0 -4 -13 -8 -30 -8 -40 0 -39 21 5 65 30 29 43 35 79 35 44 0 106
-24 106 -41 0 -5 5 -9 10 -9 16 0 12 60 -5 66 -8 4 -15 10 -15 15 0 5 7 9 15
9 8 0 15 9 15 19 0 14 -5 18 -20 14 -15 -4 -20 0 -20 15 0 11 -8 23 -17 25
-16 4 -16 5 1 6 11 0 27 -6 37 -15 16 -15 17 -13 17 29 0 37 -3 44 -16 40 -10
-2 -22 5 -30 17 -13 22 -3 27 16 8 7 -7 12 -8 12 -2 0 6 -16 18 -35 27 -44 21
-45 35 -1 34 19 0 33 -4 30 -8 -2 -4 3 -9 11 -13 13 -5 15 24 15 216 0 173 -3
219 -12 210 -19 -19 -26 -15 -45 26 -9 20 -23 43 -31 51 -7 8 -11 22 -9 32 3
11 0 19 -7 19 -7 0 -30 13 -52 28 -23 17 -64 34 -98 40 -69 14 -71 14 -79 6z
m283 -510 c0 -2 -7 -4 -15 -4 -8 0 -15 4 -15 10 0 5 7 7 15 4 8 -4 15 -8 15
-10z m-693 -170 c-9 -9 -28 6 -21 18 4 6 10 6 17 -1 6 -6 8 -13 4 -17z m668
16 c3 -5 1 -10 -4 -10 -6 0 -11 5 -11 10 0 6 2 10 4 10 3 0 8 -4 11 -10z m15
-46 c0 -8 -4 -14 -10 -14 -5 0 -10 -8 -10 -17 0 -14 -3 -14 -12 -5 -10 10 -10
15 1 22 12 7 12 11 2 23 -10 13 -9 15 8 10 12 -3 21 -12 21 -19z m-540 -620
c0 -2 -9 -4 -21 -4 -11 0 -18 4 -14 10 5 8 35 3 35 -6z"/>
<path d="M12 1358 c-7 -7 -12 -19 -12 -27 0 -11 5 -8 16 7 18 25 15 39 -4 20z"/>
<path d="M451 1334 c0 -11 3 -14 6 -6 3 7 2 16 -1 19 -3 4 -6 -2 -5 -13z"/>
<path d="M1603 1330 c50 -27 107 -37 255 -46 110 -6 122 -5 122 10 0 13 -9 17
-42 16 -24 -1 -54 1 -68 4 -65 15 -210 35 -255 35 l-50 1 38 -20z"/>
<path d="M6201 1321 c34 -27 16 -38 -20 -12 -16 12 -32 17 -35 12 -9 -15 22
-33 62 -37 20 -2 75 -12 122 -23 47 -10 87 -17 90 -15 2 3 -1 14 -8 24 -10 16
-10 20 2 20 8 0 16 -5 18 -11 6 -17 48 12 45 31 -1 11 -21 16 -82 20 -44 3
-84 3 -90 -1 -5 -4 -19 -3 -30 2 -11 4 -37 8 -59 8 l-38 1 23 -19z"/>
<path d="M234 1286 c-38 -24 -84 -93 -84 -127 0 -7 -12 -9 -32 -5 -95 17 -118
18 -118 7 0 -6 16 -11 35 -11 19 0 54 -11 79 -25 25 -14 47 -25 50 -25 3 0 6
17 6 38 0 20 9 56 20 80 33 73 111 94 192 51 29 -16 68 -91 63 -124 -2 -17 -4
-34 -4 -38 -1 -5 -6 -5 -11 -2 -6 3 -13 -1 -16 -9 -4 -12 -11 -13 -31 -5 -25
9 -26 9 -20 -26 3 -19 2 -35 -4 -35 -5 0 -9 5 -9 10 0 6 -7 10 -16 10 -11 0
-13 -6 -9 -19 12 -39 -58 -65 -102 -38 -6 4 -14 3 -18 -3 -3 -5 -15 -10 -27
-10 -16 0 -19 4 -14 20 3 11 9 29 12 40 4 12 2 20 -5 20 -6 0 -11 -7 -11 -16
0 -8 -5 -12 -11 -9 -6 4 -9 -3 -7 -20 2 -19 -3 -31 -17 -39 -11 -6 -22 -14
-25 -17 -12 -14 -51 -29 -75 -29 l-26 0 2 -89 c1 -74 4 -88 16 -84 8 3 18 2
22 -3 6 -9 35 -27 86 -53 17 -8 47 -15 68 -14 20 0 37 -4 37 -9 0 -5 5 -6 11
-2 6 3 21 2 32 -4 33 -16 88 -32 108 -32 12 0 20 11 25 32 3 18 12 46 19 63 7
16 19 50 25 75 16 60 41 140 51 165 20 51 18 245 -2 245 -5 0 -9 -8 -9 -18 0
-37 -13 -30 -44 21 -50 84 -136 109 -212 63z"/>
<path d="M481 1254 c0 -11 3 -14 6 -6 3 7 2 16 -1 19 -3 4 -6 -2 -5 -13z"/>
<path d="M6095 1260 c4 -7 2 -16 -6 -21 -14 -8 16 -24 64 -33 29 -6 153 -35
196 -46 19 -5 38 -7 43 -4 14 9 9 44 -8 44 -9 0 -12 5 -8 12 5 8 2 9 -10 5 -9
-4 -24 -2 -34 3 -20 11 -127 36 -196 46 -38 5 -47 4 -41 -6z"/>
<path d="M120 1230 c0 -18 -5 -20 -37 -15 -21 3 -31 2 -23 -1 8 -4 17 -10 20
-13 3 -3 15 -12 28 -19 20 -11 22 -10 22 12 0 13 3 31 6 40 3 9 1 16 -5 16 -6
0 -11 -9 -11 -20z"/>
<path d="M6055 1188 c3 -7 19 -21 37 -31 45 -26 28 -31 -23 -7 -24 12 -51 25
-59 29 -19 9 -60 2 -60 -10 0 -5 -10 -9 -22 -9 -47 0 25 -27 108 -40 43 -7 92
-15 108 -18 20 -3 27 -1 22 7 -4 6 -12 9 -17 6 -5 -4 -9 -1 -9 4 0 15 12 14
36 -4 12 -8 50 -21 85 -28 35 -8 73 -18 83 -22 14 -6 17 -5 12 3 -4 8 0 12 11
13 10 0 13 3 6 6 -9 3 -10 10 -3 23 9 16 1 20 -68 38 -81 21 -153 37 -214 47
-29 4 -36 3 -33 -7z"/>
<path d="M890 1178 c-27 -10 -60 -37 -60 -49 0 -4 22 4 50 17 27 13 56 24 64
24 8 0 17 3 19 8 7 10 -45 11 -73 0z"/>
<path d="M6417 1179 c7 -7 15 -10 18 -7 3 3 -2 9 -12 12 -14 6 -15 5 -6 -5z"/>
<path d="M1808 1140 c13 -12 26 -19 29 -16 4 3 12 -3 20 -14 8 -11 22 -20 31
-20 9 0 29 -6 43 -13 16 -9 41 -12 70 -8 l44 7 -75 36 c-42 21 -99 40 -130 44
l-55 7 23 -23z"/>
<path d="M807 1109 c7 -7 15 -10 18 -7 3 3 -2 9 -12 12 -14 6 -15 5 -6 -5z"/>
<path d="M777 1065 c-9 -19 -13 -35 -8 -35 9 0 34 60 28 66 -2 2 -11 -12 -20
-31z"/>
<path d="M6638 1075 c-8 -18 -17 -24 -30 -19 -15 4 -17 2 -9 -17 11 -32 29
-35 37 -5 3 13 12 27 20 30 16 6 19 36 4 36 -6 0 -16 -11 -22 -25z"/>
<path d="M889 1041 c-43 -27 -79 -79 -79 -115 0 -28 17 -17 33 22 28 69 80
102 162 102 23 0 27 3 15 10 -29 19 -85 11 -131 -19z"/>
<path d="M2025 1040 c3 -5 10 -10 16 -10 5 0 9 5 9 10 0 6 -7 10 -16 10 -8 0
-12 -4 -9 -10z"/>
<path d="M2060 1040 c0 -5 12 -10 28 -9 24 0 25 1 7 9 -27 12 -35 12 -35 0z"/>
<path d="M1915 1030 c-6 -9 26 -30 44 -30 19 0 11 15 -14 27 -14 6 -27 7 -30
3z"/>
<path d="M1270 952 c0 -5 13 -7 29 -4 16 2 50 -5 77 -17 l49 -21 -30 25 c-23
19 -42 25 -77 25 -27 0 -48 -4 -48 -8z"/>
<path d="M1530 949 c0 -5 5 -7 10 -4 6 3 10 8 10 11 0 2 -4 4 -10 4 -5 0 -10
-5 -10 -11z"/>
<path d="M1195 928 c-26 -13 -41 -16 -43 -9 -5 16 -22 3 -22 -17 1 -44 17 -46
61 -9 23 21 46 37 51 37 4 0 8 5 8 10 0 13 -8 12 -55 -12z"/>
<path d="M5495 890 c-3 -5 0 -10 7 -11 42 -2 72 -10 87 -22 21 -18 209 -78
264 -84 l42 -4 -23 20 c-27 23 -115 58 -172 67 -22 4 -37 10 -35 14 3 5 -25
11 -62 15 -38 4 -75 9 -85 11 -9 3 -19 0 -23 -6z m148 -27 c-7 -2 -19 -2 -25
0 -7 3 -2 5 12 5 14 0 19 -2 13 -5z"/>
<path d="M1555 848 c-16 -39 -30 -108 -21 -108 12 0 30 47 36 93 4 26 5 47 3
47 -2 0 -10 -15 -18 -32z"/>
<path d="M793 844 c-27 -30 -29 -71 -7 -134 8 -24 13 -52 11 -62 -3 -11 2 -22
14 -28 10 -6 19 -21 19 -34 0 -13 7 -26 15 -30 8 -3 15 -14 15 -25 0 -10 6
-21 14 -24 15 -6 48 -105 40 -118 -2 -4 0 -10 6 -14 5 -3 10 0 10 7 1 7 10 -6
21 -30 19 -41 22 -43 52 -36 18 4 39 14 47 24 18 20 170 113 226 137 21 9 46
16 54 14 12 -1 12 0 2 7 -10 7 -6 13 15 27 15 10 34 24 40 31 7 7 23 21 35 31
48 38 98 107 97 132 0 16 -3 20 -6 11 -3 -8 -17 -26 -30 -40 l-25 -25 8 45
c10 56 7 131 -6 144 -7 7 -10 -9 -9 -45 1 -58 -9 -91 -39 -126 -32 -37 -72
-34 -72 5 0 49 -11 55 -75 43 -31 -6 -62 -8 -67 -5 -20 13 -88 10 -88 -3 0
-18 -39 -16 -46 2 -4 8 -11 15 -16 15 -6 0 -27 14 -48 30 -21 17 -44 30 -51
30 -11 0 -11 -3 1 -10 13 -8 12 -10 -4 -10 -10 0 -24 -8 -31 -17 -12 -16 -16
-14 -45 17 -17 18 -37 46 -43 62 l-12 27 -22 -25z m167 -150 c0 -8 -4 -12 -10
-9 -5 3 -10 10 -10 16 0 5 5 9 10 9 6 0 10 -7 10 -16z m66 -36 c12 7 22 5 34
-7 19 -18 75 -119 69 -124 -2 -2 -19 -14 -38 -27 l-34 -24 -34 39 c-31 36 -32
40 -18 61 18 28 20 54 4 54 -15 0 -38 31 -38 50 0 11 5 8 19 -8 15 -18 23 -21
36 -14z"/>
<path d="M5835 849 c-7 -11 56 -38 109 -45 l41 -6 -36 20 c-46 26 -107 43
-114 31z"/>
<path d="M5355 842 c-11 -2 -29 -13 -41 -23 -11 -11 -24 -16 -27 -12 -4 3 -7
-1 -7 -10 0 -9 -6 -20 -14 -24 -28 -16 -12 -48 44 -84 66 -43 106 -56 180 -58
l55 -1 -60 40 c-76 51 -48 53 31 2 72 -46 108 -62 138 -62 13 0 31 -9 41 -20
10 -11 23 -20 30 -20 20 0 54 -44 61 -78 7 -36 50 -67 73 -52 17 10 7 60 -12
60 -6 0 -34 22 -60 49 -53 53 -55 81 -7 81 20 0 29 6 33 22 4 12 9 20 12 16 3
-3 18 7 34 21 34 31 27 46 -27 56 -20 3 -102 21 -182 40 -203 48 -272 61 -295
57z"/>
<path d="M2766 535 c4 -10 -2 -13 -22 -12 -15 1 -28 -4 -30 -11 -1 -7 0 -8 3
-2 7 14 22 12 39 -5 20 -20 50 -19 58 1 9 23 0 29 -19 14 -13 -11 -14 -10 -10
2 4 9 0 18 -9 21 -10 4 -13 1 -10 -8z"/>
<path d="M5600 521 c0 -7 -4 -9 -10 -6 -5 3 -10 -1 -10 -9 0 -24 18 -28 25 -5
4 11 4 23 1 26 -3 4 -6 1 -6 -6z"/>
<path d="M1740 504 c0 -9 5 -14 12 -12 18 6 21 28 4 28 -9 0 -16 -7 -16 -16z"/>
<path d="M2040 471 c0 -5 9 -7 20 -4 11 3 20 7 20 9 0 2 -9 4 -20 4 -11 0 -20
-4 -20 -9z"/>
<path d="M5530 450 c0 -5 5 -10 10 -10 6 0 10 5 10 10 0 6 -4 10 -10 10 -5 0
-10 -4 -10 -10z"/>
<path d="M2155 419 c11 -7 35 -28 54 -48 30 -32 33 -33 26 -11 -4 14 -8 25 -9
25 0 0 -10 8 -21 16 -11 9 -31 20 -45 23 -23 6 -23 6 -5 -5z"/>
<path d="M5373 395 c-6 -11 -13 -40 -16 -64 -5 -40 -4 -42 9 -22 8 12 19 21
25 21 5 0 28 14 51 30 l41 30 -46 0 c-27 0 -47 5 -49 12 -3 8 -8 6 -15 -7z"/>
<path d="M7094 380 c-23 -9 -39 -28 -32 -36 3 -2 22 3 43 12 30 12 44 13 63 4
27 -12 42 -6 25 11 -14 14 -72 19 -99 9z"/>
<path d="M1725 359 c-10 -30 -2 -32 12 -3 6 13 7 24 3 24 -5 0 -12 -9 -15 -21z"/>
<path d="M2280 366 c0 -15 18 -31 26 -23 7 7 -7 37 -17 37 -5 0 -9 -6 -9 -14z"/>
<path d="M3847 344 c-3 -4 -1 -16 5 -27 9 -18 11 -19 20 -4 13 25 -6 49 -25
31z"/>
<path d="M6404 333 c-3 -11 -19 -24 -35 -30 -17 -7 -33 -21 -36 -32 -3 -12 -8
-19 -12 -17 -4 3 -12 1 -19 -3 -9 -5 -9 -11 1 -26 11 -13 21 -16 41 -11 39 10
97 75 94 105 -4 30 -28 40 -34 14z"/>
<path d="M5605 309 c-22 -3 -53 -13 -70 -22 -16 -9 -34 -17 -40 -17 -5 0 -20
-15 -32 -33 -12 -17 -42 -54 -67 -80 -25 -27 -47 -56 -51 -64 -11 -29 -17 -4
-7 26 15 43 5 101 -17 94 -29 -11 -51 -36 -51 -59 0 -23 -19 -49 -42 -56 -9
-3 -8 -14 5 -40 9 -20 17 -41 17 -47 0 -7 39 -11 120 -11 l120 0 32 31 c46 43
94 61 150 56 55 -5 136 -44 144 -69 6 -19 44 -25 44 -8 0 6 -18 28 -40 50 -86
86 -246 89 -354 5 -26 -20 -39 -9 -32 27 11 55 78 117 162 150 56 23 162 25
202 5 43 -21 40 -9 -5 28 -41 32 -113 45 -188 34z"/>
<path d="M957 289 c4 -13 9 -17 15 -11 11 11 3 32 -12 32 -4 0 -6 -9 -3 -21z"/>
<path d="M3957 284 c-3 -15 -1 -41 4 -58 10 -33 5 -42 -26 -48 -17 -3 -16 -6
11 -21 20 -10 33 -26 37 -44 3 -15 7 -35 10 -43 2 -8 2 -12 0 -7 -3 4 -12 7
-22 7 -9 0 -23 6 -30 12 -17 16 -12 3 18 -45 l23 -37 120 0 c111 0 146 10 80
23 -17 3 -34 17 -42 33 -8 15 -26 38 -39 51 -21 22 -23 30 -18 89 4 42 12 73
23 85 16 18 16 19 -14 19 -33 0 -43 -18 -58 -103 -9 -52 -26 -33 -26 29 0 27
-5 57 -10 67 -13 25 -35 21 -41 -9z"/>
<path d="M6215 300 c3 -5 8 -10 11 -10 2 0 4 5 4 10 0 6 -5 10 -11 10 -5 0 -7
-4 -4 -10z"/>
<path d="M3630 286 c0 -2 7 -9 15 -16 13 -11 14 -10 9 4 -5 14 -24 23 -24 12z"/>
<path d="M3905 280 c-4 -6 -11 -8 -16 -5 -10 7 -13 -18 -3 -27 9 -10 44 4 44
18 0 17 -17 27 -25 14z"/>
<path d="M5130 265 c0 -14 5 -25 10 -25 6 0 10 11 10 25 0 14 -4 25 -10 25 -5
0 -10 -11 -10 -25z"/>
<path d="M1949 266 c-4 -4 -15 -8 -26 -10 -35 -7 -88 -33 -102 -49 -7 -10 -19
-17 -26 -17 -13 0 -55 -59 -55 -77 0 -24 35 -6 68 34 46 56 100 83 176 88 49
4 68 0 108 -20 52 -26 158 -121 158 -142 0 -6 10 -19 21 -27 13 -9 19 -21 16
-30 -5 -12 0 -16 18 -16 14 0 25 2 25 4 0 11 -40 89 -40 79 0 -7 -4 -13 -9
-13 -4 0 -6 11 -3 25 2 15 0 25 -7 25 -6 0 -11 7 -11 16 0 28 -73 88 -130 108
-57 19 -170 33 -181 22z"/>
<path d="M40 221 c-24 -12 -36 -26 -38 -44 -3 -26 -3 -26 31 8 31 31 41 35 86
35 44 0 56 -5 90 -35 24 -22 41 -48 45 -68 11 -58 20 -63 56 -28 88 83 215 54
236 -55 6 -35 24 -47 24 -16 -1 39 -45 97 -93 121 -43 21 -52 22 -90 11 -23
-6 -50 -12 -59 -13 -10 -1 -18 -7 -18 -14 0 -21 -28 -15 -35 7 -3 11 -11 20
-16 20 -5 0 -9 7 -9 15 0 8 -19 28 -42 45 -49 36 -114 40 -168 11z"/>
<path d="M5150 233 c-26 -11 -40 -31 -40 -57 0 -29 13 -40 38 -32 13 5 17 17
17 51 0 25 0 45 0 44 0 0 -7 -3 -15 -6z"/>
<path d="M728 219 c-6 -16 7 -102 17 -120 4 -5 15 -9 25 -9 10 0 21 -8 25 -17
8 -25 52 -73 66 -73 7 0 9 3 6 6 -3 4 -2 15 4 26 14 26 2 58 -22 58 -13 0 -19
7 -19 21 0 16 -5 20 -20 16 -11 -3 -21 -1 -21 4 -1 5 -2 14 -3 19 0 6 -7 15
-15 19 -8 5 -19 22 -26 37 -8 21 -13 24 -17 13z"/>
<path d="M2925 220 c-3 -5 -1 -10 4 -10 6 0 11 5 11 10 0 6 -2 10 -4 10 -3 0
-8 -4 -11 -10z"/>
<path d="M343 195 c-39 -23 -43 -23 -52 -7 -9 15 -10 15 -10 -3 1 -53 12 -55
62 -9 27 24 47 44 45 44 -1 -1 -22 -12 -45 -25z"/>
<path d="M2907 183 c-4 -3 -7 -12 -7 -20 0 -11 5 -11 20 -3 11 6 20 15 20 20
0 11 -23 13 -33 3z"/>
<path d="M3895 170 c3 -5 8 -10 11 -10 2 0 4 5 4 10 0 6 -5 10 -11 10 -5 0 -7
-4 -4 -10z"/>
<path d="M4990 126 c-7 -14 -10 -32 -7 -40 4 -9 2 -16 -3 -16 -9 0 -40 -51
-40 -65 0 -3 6 -5 13 -5 12 0 31 32 56 93 21 54 7 80 -19 33z"/>
<path d="M5935 85 c3 -22 5 -50 5 -62 0 -14 6 -23 16 -23 12 0 14 7 9 32 -4
18 -14 47 -21 63 l-14 30 5 -40z"/>
<path d="M1167 93 c-10 -9 -9 -23 2 -23 5 0 11 7 15 15 5 15 -5 20 -17 8z"/>
<path d="M7100 85 c-10 -12 -9 -15 4 -15 12 0 15 -8 14 -32 -3 -32 -2 -33 40
-36 l42 -3 0 35 c0 26 -4 36 -15 36 -9 0 -29 7 -44 15 -26 13 -30 13 -41 0z"/>
<path d="M3569 73 c-13 -17 -13 -17 6 -3 11 8 22 16 24 17 2 2 0 3 -6 3 -6 0
-17 -8 -24 -17z"/>
<path d="M1914 64 c-23 -8 -52 -26 -64 -39 l-23 -25 29 0 c17 0 50 9 74 21 48
23 112 21 178 -7 19 -8 49 -14 66 -14 l31 1 -35 28 c-19 16 -51 34 -71 40 -49
15 -135 12 -185 -5z"/>
<path d="M3340 70 c0 -3 9 -16 20 -28 11 -12 20 -26 20 -32 0 -5 21 -10 48
-10 l49 0 -5 32 c-4 29 -6 30 -13 11 -12 -33 -24 -34 -37 -3 -10 21 -21 29
-47 32 -19 2 -35 1 -35 -2z"/>
<path d="M6125 50 c3 -5 8 -10 11 -10 2 0 4 5 4 10 0 6 -5 10 -11 10 -5 0 -7
-4 -4 -10z"/>
<path d="M3516 25 c-16 -24 -16 -25 4 -25 11 0 20 4 20 9 0 5 3 16 6 25 10 25
-12 19 -30 -9z"/>
<path d="M0 16 c0 -9 7 -16 16 -16 9 0 14 5 12 12 -6 18 -28 21 -28 4z"/>
<path d="M6108 23 c6 -2 18 -2 25 0 6 3 1 5 -13 5 -14 0 -19 -2 -12 -5z"/>
<path d="M1050 10 c0 -5 5 -10 10 -10 6 0 10 5 10 10 0 6 -4 10 -10 10 -5 0
-10 -4 -10 -10z"/>
<path d="M1690 10 c0 -5 9 -10 21 -10 11 0 17 4 14 10 -8 13 -35 13 -35 0z"/>
<path d="M108 3 c7 -3 16 -2 19 1 4 3 -2 6 -13 5 -11 0 -14 -3 -6 -6z"/>
</g>
</svg>
