<?xml version="1.0" standalone="no"?>
<!DOCTYPE svg PUBLIC "-//W3C//DTD SVG 20010904//EN"
 "http://www.w3.org/TR/2001/REC-SVG-20010904/DTD/svg10.dtd">
<svg version="1.0" xmlns="http://www.w3.org/2000/svg"
 width="400.000000pt" height="400.000000pt" viewBox="0 0 736.000000 520.000000"
 preserveAspectRatio="xMidYMid meet">

<g transform="translate(0.000000,520.000000) scale(0.100000,-0.100000)"
fill="#000000" stroke="none">
<path d="M2869 5175 c-19 -14 -42 -28 -51 -31 -10 -4 -18 -10 -18 -15 0 -14
46 -10 59 4 6 8 39 22 73 32 85 25 93 35 26 35 -43 0 -62 -5 -89 -25z"/>
<path d="M4620 5188 c0 -13 31 -118 70 -238 34 -104 124 -385 125 -390 8 -34
20 -75 35 -120 10 -30 23 -76 30 -103 7 -26 16 -50 21 -52 16 -11 16 12 -2 65
-10 30 -18 67 -18 82 -1 14 -6 28 -11 30 -6 2 -22 48 -35 103 -25 107 -54 213
-78 285 -16 48 -28 93 -34 125 -2 11 -10 43 -19 70 -44 145 -48 155 -66 155
-10 0 -18 -6 -18 -12z"/>
<path d="M2700 5104 c-30 -8 -58 -21 -63 -29 -4 -8 -17 -15 -27 -15 -22 0 -35
-16 -20 -25 6 -4 32 4 58 18 26 13 61 28 79 31 33 8 68 37 42 35 -8 0 -39 -7
-69 -15z"/>
<path d="M2550 5020 c0 -5 7 -7 15 -4 8 4 15 8 15 10 0 2 -7 4 -15 4 -8 0 -15
-4 -15 -10z"/>
<path d="M2495 5010 c-3 -5 -19 -10 -36 -10 -16 0 -29 -4 -29 -10 0 -5 -6 -10
-13 -10 -18 0 -67 -24 -67 -32 0 -11 11 -10 49 3 17 6 31 14 31 19 0 4 17 10
38 13 21 4 46 13 57 21 20 15 20 15 -2 16 -12 0 -25 -4 -28 -10z"/>
<path d="M1945 4791 c-10 -18 17 -23 33 -7 15 15 15 16 -5 16 -12 0 -24 -4
-28 -9z"/>
<path d="M4360 4418 c0 -19 9 -51 20 -73 11 -21 23 -54 26 -72 3 -18 10 -36
15 -39 5 -3 9 -18 9 -33 0 -36 35 -171 53 -208 8 -15 17 -40 21 -55 10 -45 74
-178 85 -178 5 0 13 -10 16 -21 4 -12 21 -35 39 -53 57 -57 60 -62 45 -96 -17
-36 -33 -40 -27 -5 3 14 0 29 -7 33 -6 4 -17 16 -23 27 -10 18 -11 17 -12 -13
0 -23 4 -31 12 -26 6 4 8 3 5 -3 -9 -14 15 -63 31 -63 7 0 12 -14 13 -32 1
-19 3 -25 6 -15 3 11 11 16 19 13 17 -7 18 17 2 43 -9 15 -8 22 4 34 14 14 17
14 36 -4 12 -10 28 -19 35 -19 8 0 20 -6 27 -14 6 -8 17 -13 25 -10 7 3 16 1
20 -5 9 -16 117 -2 132 16 15 20 36 6 30 -19 -6 -23 19 -36 36 -19 6 6 19 11
29 11 29 0 21 20 -11 26 -18 4 -33 16 -41 32 -9 21 -13 23 -21 11 -8 -11 -12
-11 -16 -1 -8 19 -21 14 -25 -10 -3 -24 -48 -40 -48 -18 0 7 8 10 20 7 11 -3
20 -1 20 4 0 5 -5 9 -11 9 -7 0 -8 12 -4 33 8 37 25 59 32 40 3 -7 13 -13 24
-13 15 0 19 7 19 35 0 19 5 35 10 35 6 0 10 12 9 28 0 15 -3 22 -5 15 -3 -7
-12 -9 -20 -6 -10 4 -17 -2 -21 -16 -6 -25 -23 -28 -23 -4 0 15 -1 15 -18 0
-25 -23 -32 -21 -32 6 0 38 -19 49 -48 27 -31 -25 -62 -11 -62 26 0 19 -4 25
-15 20 -21 -7 -56 29 -48 50 4 10 1 15 -8 14 -28 -4 -39 0 -39 17 0 24 -23 83
-32 83 -4 0 -8 -7 -8 -16 0 -8 -4 -12 -10 -9 -5 3 -10 15 -10 25 0 10 -11 31
-25 46 -14 15 -25 33 -25 41 0 7 -7 16 -15 19 -8 3 -20 24 -26 46 -6 22 -21
51 -35 65 -13 13 -24 29 -24 35 0 6 -9 26 -21 44 -11 19 -18 37 -15 42 2 4 1
14 -5 22 -7 12 -9 9 -9 -10 0 -20 -2 -22 -10 -10 -6 8 -15 32 -20 53 -6 20
-15 37 -20 37 -6 0 -10 9 -10 19 0 11 -4 23 -10 26 -6 4 -10 -8 -10 -27z"/>
<path d="M1636 4319 c4 -8 -1 -9 -16 -4 -19 6 -22 4 -17 -9 4 -10 3 -15 -3
-11 -10 6 -69 -81 -70 -102 0 -7 -4 -13 -10 -13 -5 0 -14 -19 -21 -42 -6 -24
-16 -55 -21 -70 -6 -15 -10 -43 -11 -62 0 -20 -6 -37 -13 -40 -6 -2 -14 -13
-16 -24 -4 -16 -2 -19 11 -15 11 4 10 1 -4 -10 -17 -14 -18 -18 -5 -27 21 -14
30 -12 30 4 0 7 13 16 29 19 28 6 29 7 20 47 -11 48 -8 56 26 62 29 6 31 1 8
-24 -16 -18 -15 -19 28 -12 24 4 46 11 49 15 3 4 34 9 68 10 51 2 68 -2 92
-20 36 -26 80 -44 80 -32 0 12 -75 60 -102 65 -13 2 -36 9 -51 15 -22 8 -36 7
-64 -4 -19 -8 -45 -15 -57 -14 -15 1 -11 4 14 12 19 6 41 18 51 28 15 15 15
17 0 26 -24 16 -5 28 24 15 15 -7 25 -8 25 -2 0 6 -7 10 -15 10 -18 0 -19 12
-3 28 8 8 5 14 -16 22 -15 5 -33 10 -39 11 -7 0 -1 5 12 10 14 5 38 7 54 3 20
-4 27 -3 23 5 -4 6 -14 11 -22 11 -8 0 -13 4 -10 8 3 5 -2 22 -10 37 -12 22
-13 35 -5 53 15 32 15 32 -20 32 -19 0 -28 -4 -23 -11z m34 -109 c0 -5 -4 -10
-10 -10 -5 0 -10 5 -10 10 0 6 5 10 10 10 6 0 10 -4 10 -10z"/>
<path d="M1750 4271 c0 -4 9 -20 20 -34 11 -14 20 -30 20 -35 0 -5 7 -15 15
-22 9 -7 13 -21 10 -30 -3 -10 2 -23 12 -31 15 -12 16 -12 10 3 -4 11 0 21 10
26 14 8 12 15 -15 53 -40 58 -82 94 -82 70z"/>
<path d="M5380 4245 c0 -18 -17 -20 -22 -3 -2 6 -15 -5 -27 -26 -18 -29 -26
-34 -37 -25 -11 9 -13 4 -12 -27 1 -37 1 -37 19 -16 9 12 22 22 28 22 20 0 10
-35 -19 -70 -34 -39 -38 -64 -12 -76 23 -10 45 -6 59 12 20 26 53 0 53 -41 0
-29 -4 -34 -27 -37 -21 -2 -27 -8 -26 -23 1 -11 0 -14 -3 -7 -8 17 -24 15 -24
-3 0 -9 7 -18 15 -21 23 -9 18 -26 -6 -19 -14 5 -27 0 -43 -17 -22 -22 -23
-26 -11 -71 12 -46 11 -47 -5 -29 -10 11 -20 28 -23 38 -4 17 -6 17 -12 -3 -9
-30 -17 -29 -36 3 -10 17 -19 22 -23 15 -4 -6 -2 -11 3 -11 6 0 11 -9 11 -20
0 -11 7 -23 15 -26 24 -9 19 -37 -5 -29 -14 4 -20 2 -20 -8 0 -29 -25 -38 -58
-21 -39 19 -52 12 -52 -27 0 -33 15 -39 23 -9 7 26 23 26 30 0 3 -14 10 -18
21 -14 20 8 56 -22 56 -47 0 -10 5 -21 10 -24 6 -4 10 5 10 19 0 14 -5 26 -11
26 -5 0 -8 4 -5 8 3 5 28 2 55 -7 40 -13 49 -20 45 -33 -6 -20 11 -25 20 -5 5
10 7 10 12 0 3 -7 13 -13 21 -13 11 0 14 -6 9 -22 -3 -13 -6 -27 -6 -32 0 -4
-7 -6 -15 -3 -19 8 -30 -12 -15 -26 10 -9 14 -9 17 1 3 6 11 12 18 12 8 0 19
8 24 18 8 14 10 12 8 -12 -3 -38 18 -44 31 -9 8 22 10 6 13 -80 2 -59 1 -107
-3 -107 -5 0 -8 -8 -8 -17 0 -16 2 -16 11 -3 7 11 9 1 6 -37 -3 -29 -1 -53 4
-53 5 0 9 -8 9 -17 0 -14 -2 -15 -9 -4 -13 20 -17 -7 -20 -129 -2 -66 -8 -116
-17 -134 -8 -16 -14 -46 -14 -67 0 -50 -8 -69 -30 -69 -24 0 -39 -20 -46 -61
-4 -19 -12 -38 -18 -44 -7 -5 -27 -39 -44 -74 -29 -59 -31 -67 -21 -107 9 -36
14 -42 25 -33 8 6 11 15 8 20 -3 5 2 9 10 9 9 0 16 -4 16 -10 0 -21 30 -9 36
15 3 14 10 25 15 25 5 0 9 6 9 13 0 17 44 59 53 50 4 -3 7 1 7 10 0 9 -5 17
-11 17 -8 0 -7 6 2 17 11 13 11 17 2 20 -19 7 -16 44 5 59 10 8 12 13 5 14
-27 0 0 50 26 50 6 0 11 11 11 25 0 14 5 25 10 25 6 0 10 9 10 20 0 11 -4 20
-10 20 -5 0 -10 -7 -10 -15 0 -8 -4 -15 -8 -15 -5 0 -13 -12 -20 -27 -10 -26
-11 -26 -6 -3 4 14 12 39 19 55 7 17 16 51 20 78 3 26 10 47 16 47 5 0 9 10
10 23 l0 22 10 -24 c6 -16 6 -28 -2 -37 -6 -8 -8 -14 -3 -14 4 0 3 -5 -4 -12
-16 -16 -15 -43 1 -56 10 -9 17 -6 28 9 21 31 57 69 64 69 4 0 4 -19 0 -42 -7
-41 -6 -42 10 -23 16 19 16 19 11 -14 -6 -31 -4 -33 19 -29 14 3 26 1 26 -3 1
-5 3 -13 4 -19 1 -5 3 -13 4 -17 0 -4 8 2 16 13 13 17 14 17 15 2 0 -11 8 -18
21 -18 35 0 216 -55 229 -69 3 -4 30 -19 60 -34 88 -45 90 -47 85 -102 -4 -55
-17 -67 -60 -60 -29 6 -125 44 -135 55 -5 5 -26 15 -93 45 -40 17 -62 12 -52
-12 12 -32 -26 -84 -67 -92 -9 -1 -68 -62 -68 -69 0 -2 9 -2 20 1 31 8 34 -12
5 -35 -21 -16 -24 -23 -13 -29 9 -6 7 -9 -9 -9 -12 0 -25 -4 -28 -10 -3 -5 2
-10 12 -10 15 0 15 -2 3 -10 -8 -5 -19 -5 -25 -1 -18 15 -80 21 -95 10 -12 -8
-8 -9 15 -6 26 5 28 4 12 -8 -17 -13 -17 -14 3 -20 16 -5 19 -10 11 -18 -7 -7
-15 -6 -26 3 -18 15 -97 8 -103 -9 -2 -6 -11 -11 -19 -11 -9 0 -14 -3 -10 -6
3 -4 20 -2 36 4 24 8 37 8 57 -3 l27 -14 -39 -3 -39 -4 35 -11 35 -11 -38 -1
c-26 -1 -36 -5 -31 -12 4 -8 25 -9 63 -4 31 4 77 8 102 10 41 2 46 1 42 -16
-4 -14 -14 -19 -43 -19 -39 0 -87 -31 -75 -49 4 -7 -5 -11 -22 -12 -21 -1 -23
-3 -8 -6 27 -7 44 -23 23 -23 -8 0 -21 -7 -29 -16 -10 -13 -10 -17 2 -25 10
-6 7 -9 -14 -9 -16 0 -26 -4 -23 -9 3 -5 -12 -11 -33 -13 -41 -4 -44 7 -7 22
18 8 17 9 -12 9 -20 1 -31 -3 -30 -11 2 -7 -7 -14 -20 -16 -13 -2 -26 -10 -29
-18 -3 -8 -18 -14 -33 -14 -16 0 -32 -5 -36 -11 -3 -6 -17 -8 -30 -5 -25 7
-34 -8 -11 -17 6 -3 -8 -4 -33 -1 -33 4 -51 12 -70 33 -35 40 -64 47 -87 21
-11 -11 -33 -21 -50 -22 -37 -4 -83 -36 -76 -55 3 -7 0 -13 -6 -13 -6 0 -11
-7 -11 -15 0 -9 -6 -12 -15 -9 -11 5 -13 2 -9 -10 7 -19 51 -22 57 -3 2 6 3 2
1 -9 -2 -12 3 -27 11 -34 7 -6 11 -17 9 -25 -3 -7 3 -15 13 -18 10 -3 4 -5
-14 -6 -44 -1 -42 -21 2 -21 19 0 35 -4 35 -10 0 -5 -6 -10 -14 -10 -8 0 -18
-5 -22 -11 -4 -8 0 -9 15 -4 12 3 21 2 21 -3 0 -6 -5 -12 -12 -14 -7 -3 -5 -7
6 -11 10 -4 15 -3 11 3 -3 6 4 10 17 10 17 0 19 -3 9 -9 -8 -5 -11 -16 -7 -26
5 -13 10 -14 19 -7 10 8 13 6 14 -9 1 -11 -5 -19 -15 -20 -9 0 -3 -6 14 -12
27 -10 30 -14 18 -25 -8 -7 -23 -10 -34 -7 -11 4 -20 2 -20 -4 0 -6 16 -11 36
-11 21 0 33 4 29 10 -3 5 -1 10 4 10 14 0 14 -27 1 -35 -6 -4 -8 -11 -5 -16 4
-5 -6 -9 -22 -9 -22 0 -25 2 -13 11 11 8 9 9 -10 3 -34 -9 -59 -23 -42 -24 7
0 10 -4 7 -10 -4 -6 5 -7 23 -4 17 4 32 1 36 -5 5 -7 -2 -11 -18 -11 -14 0
-26 -5 -26 -11 0 -6 16 -9 38 -8 40 3 41 1 53 -48 5 -26 4 -33 -8 -33 -10 0
-13 6 -9 16 5 13 3 14 -6 6 -9 -7 -18 -7 -30 2 -21 16 -13 26 19 26 14 0 21 4
18 10 -7 11 -54 13 -79 4 -9 -3 -13 -11 -9 -16 5 -10 -54 19 -67 32 -6 6 -79
40 -85 40 -3 0 -5 -9 -5 -20 0 -16 -5 -19 -30 -13 -32 6 -44 -12 -12 -20 9 -2
-8 -4 -38 -5 -30 0 -63 4 -74 10 -12 7 -21 7 -25 0 -3 -5 -35 -13 -70 -17 -61
-7 -64 -6 -48 10 9 9 17 18 17 20 0 3 -28 3 -62 1 -59 -3 -60 -2 -28 8 60 19
34 55 -40 56 -20 0 -22 2 -10 10 8 5 25 10 38 10 13 0 21 4 17 9 -8 14 63 2
98 -16 16 -8 31 -12 34 -10 2 3 -10 11 -26 18 -17 8 -31 17 -31 21 0 7 -79 26
-140 34 -59 8 -60 24 -1 24 32 0 50 4 46 10 -3 6 -15 10 -26 10 -10 0 -19 7
-19 15 0 8 -7 15 -15 15 -8 0 -15 9 -15 19 0 10 -8 22 -17 26 -16 6 -16 8 -3
18 9 7 15 18 14 25 -1 6 -2 17 -3 24 0 6 -4 9 -7 5 -4 -3 -21 1 -38 11 -17 9
-56 25 -86 34 l-55 18 45 -6 c25 -4 52 -10 60 -14 22 -11 98 -21 82 -11 -8 4
-14 12 -15 17 -2 16 -78 74 -97 74 -10 0 -24 7 -31 16 -12 15 -10 15 25 0 46
-19 49 -19 40 -4 -5 8 -2 9 10 5 10 -4 21 -7 24 -7 4 0 0 -5 -8 -11 -12 -9
-12 -10 4 -5 10 4 26 1 35 -6 14 -11 14 -11 4 3 -7 9 -10 19 -6 22 3 4 0 7 -8
7 -8 0 -27 11 -44 25 -23 19 -15 17 35 -11 36 -20 68 -40 71 -46 9 -15 49 0
49 19 0 9 -6 13 -14 10 -10 -4 -13 -1 -10 8 4 10 -1 12 -18 8 -16 -3 -19 -2
-10 5 10 7 5 11 -18 15 -17 4 -29 11 -25 17 3 5 -3 10 -14 10 -12 0 -21 5 -21
10 0 6 7 10 16 10 18 0 14 20 -7 31 -38 18 -91 29 -150 30 -110 2 -125 17 -19
19 52 1 104 5 115 10 11 5 14 9 6 9 -8 1 -11 7 -7 17 3 8 2 13 -2 10 -5 -3
-16 4 -26 16 -13 15 -26 19 -52 16 -33 -4 -33 -4 -16 17 20 22 28 75 12 75 -6
0 -10 18 -10 40 0 22 -4 40 -8 40 -4 0 -16 23 -27 50 -11 28 -24 50 -30 50 -5
0 -2 5 8 11 21 12 22 32 1 49 -8 8 -14 25 -12 39 3 23 -1 26 -32 29 -19 2 -52
-1 -73 -8 -20 -6 -43 -7 -50 -3 -16 10 31 20 99 22 l51 1 1 42 c1 26 8 45 17
51 13 7 13 12 -5 34 -11 14 -17 30 -13 36 4 6 11 4 18 -6 17 -24 38 -22 30 3
-5 16 -2 20 14 20 26 0 27 9 4 26 -24 16 -10 29 14 13 14 -8 18 -20 15 -41 -4
-23 0 -30 17 -35 11 -3 18 -9 15 -14 -3 -5 0 -9 5 -9 6 0 11 17 11 39 0 22 6
44 15 51 9 7 13 21 10 30 -3 9 1 23 10 30 13 10 15 9 15 -9 0 -11 5 -21 10
-21 6 0 10 -5 10 -11 0 -11 24 -39 34 -39 12 0 5 29 -10 45 -9 9 -13 19 -9 23
4 4 10 1 12 -5 6 -18 33 -16 33 1 0 8 -4 18 -10 21 -13 8 -13 25 1 25 22 0 39
-30 39 -67 0 -22 4 -43 9 -48 5 -6 12 -26 15 -47 7 -45 35 -130 47 -143 11
-11 12 -25 1 -25 -5 0 -15 11 -22 25 -10 18 -16 22 -21 13 -5 -7 -2 -19 5 -28
8 -9 13 -34 12 -62 -2 -27 0 -48 4 -48 3 0 14 -25 25 -55 14 -41 24 -57 41
-61 13 -3 26 -15 29 -25 8 -23 21 -25 29 -3 3 9 -5 25 -20 41 -18 18 -22 28
-14 33 8 5 5 9 -9 13 -21 5 -30 27 -11 27 6 0 10 -4 10 -10 0 -5 7 -10 15 -10
9 0 20 -12 25 -26 6 -15 15 -22 21 -18 14 8 8 -23 -12 -73 -10 -26 -10 -34 0
-47 17 -20 32 -21 25 -1 -4 8 -1 15 5 15 6 0 16 -11 21 -24 5 -13 14 -27 19
-31 6 -3 11 -16 11 -27 0 -12 3 -19 6 -16 3 4 20 1 37 -7 18 -7 37 -11 43 -8
6 2 17 -3 24 -12 16 -19 50 -20 50 0 0 8 5 15 10 15 6 0 13 -7 16 -15 4 -8 17
-15 30 -15 14 0 27 -7 30 -15 4 -8 12 -15 20 -15 7 0 16 -11 20 -25 3 -13 13
-30 21 -36 11 -10 13 -10 11 0 -2 7 4 18 14 24 20 13 50 -7 41 -29 -7 -20 53
-19 73 1 9 8 11 15 5 15 -6 0 -11 5 -11 10 0 6 7 10 15 10 9 0 18 6 21 14 3 8
16 17 30 20 27 7 64 36 64 50 0 5 -9 1 -20 -9 -11 -10 -20 -16 -21 -14 0 2 -2
12 -4 22 -2 10 7 30 19 44 20 23 21 29 10 51 -10 21 -10 29 2 47 9 13 11 26 6
29 -13 8 -2 57 14 63 19 7 18 23 -1 23 -8 0 -15 8 -15 18 0 10 -5 23 -11 29
-6 6 -12 17 -13 24 -6 27 -20 54 -34 65 -8 6 -12 16 -9 21 12 19 -25 24 -39 6
-12 -17 -13 -16 -14 4 0 16 -4 21 -16 16 -14 -5 -14 -3 -4 14 11 17 10 23 -10
43 -16 16 -21 18 -17 7 4 -9 10 -25 14 -34 4 -10 -16 2 -43 25 -49 41 -88 54
-96 30 -3 -7 -13 -2 -27 13 -19 20 -23 22 -32 9 -8 -11 -12 -12 -16 -2 -2 6
-11 12 -19 12 -9 0 -12 5 -8 12 4 7 3 8 -4 4 -13 -8 -62 3 -62 14 0 5 6 10 13
13 6 2 1 2 -12 0 -18 -3 -22 0 -17 12 3 9 2 13 -3 10 -5 -3 -12 -1 -16 5 -3 5
-18 10 -32 10 -19 0 -24 4 -19 16 5 14 4 15 -9 4 -13 -11 -14 -10 -9 4 9 23
-34 57 -66 52 -17 -3 -35 5 -58 25 -32 28 -72 39 -72 19 0 -5 4 -10 9 -10 5 0
13 -17 18 -37 6 -28 14 -39 31 -41 24 -4 47 -36 37 -53 -5 -7 -11 -6 -21 2
-11 9 -14 8 -14 -5 0 -9 5 -16 11 -16 5 0 7 -5 3 -11 -3 -6 -17 -9 -29 -7 -18
4 -22 1 -17 -10 4 -11 1 -14 -11 -9 -8 3 -18 1 -21 -6 -2 -7 -5 -2 -5 10 -1
12 -5 25 -11 28 -5 3 -10 15 -10 26 0 10 -4 19 -10 19 -5 0 -10 10 -10 23 0
18 2 19 10 7 6 -10 8 -3 3 23 -4 24 -2 37 6 37 6 0 11 -12 12 -27 1 -42 6 -64
18 -76 17 -17 13 55 -5 91 -15 31 -34 43 -34 22 0 -5 -5 -10 -11 -10 -7 0 -8
11 -4 29 4 17 2 32 -5 36 -6 4 -8 15 -5 26 4 11 2 19 -5 19 -8 0 -11 11 -8 30
3 17 1 30 -3 30 -4 0 -10 19 -13 43 -11 68 -25 80 -28 22 -1 -27 -1 -60 0 -72
0 -14 -5 -23 -13 -23 -17 0 -38 36 -31 53 2 7 5 4 5 -5 1 -10 5 -18 10 -18 4
0 6 11 4 25 -3 13 -10 23 -17 22 -7 -1 -11 14 -11 38 0 23 -7 52 -16 65 l-16
25 5 -33 c2 -17 1 -32 -2 -32 -11 0 -36 67 -36 95 0 14 -4 25 -10 25 -5 0 -10
-12 -10 -27 l-1 -28 -13 31 c-15 34 -46 53 -46 29 0 -19 -19 -19 -26 0 -4 8
-10 12 -15 9 -5 -3 -9 1 -10 8 0 7 -6 0 -13 -15 -10 -22 -15 -25 -23 -15 -7 9
-3 52 13 143 24 139 30 241 14 265 -6 10 -10 11 -10 3 0 -8 -13 -13 -29 -13
-28 0 -61 -22 -61 -40 0 -5 -10 -12 -22 -16 -24 -7 -105 -75 -100 -83 2 -2
-11 -10 -28 -18 -18 -7 -45 -24 -62 -38 -16 -14 -38 -25 -49 -25 -11 0 -37 -9
-59 -20 -22 -11 -46 -20 -55 -20 -21 0 -19 -28 3 -32 9 -2 36 7 59 20 24 13
44 19 47 13 4 -5 2 -12 -4 -16 -6 -4 -8 -11 -5 -16 8 -12 65 -12 65 1 0 6 -7
10 -15 10 -25 0 -17 30 12 41 15 5 50 9 77 7 42 -2 50 -6 48 -20 -2 -11 3 -18
13 -18 9 0 18 -7 21 -15 4 -8 9 -13 13 -11 3 2 15 -5 25 -15 17 -17 18 -19 3
-19 -25 0 -21 -12 13 -40 17 -14 30 -30 30 -36 0 -7 7 -14 15 -18 8 -3 15 -9
15 -14 0 -13 -74 -1 -93 16 -9 8 -20 12 -24 8 -4 -4 -1 -11 6 -15 16 -10 -32
-25 -68 -22 -15 2 -21 -1 -16 -8 3 -6 10 -9 15 -6 4 3 10 -2 13 -9 4 -10 -2
-16 -21 -18 -16 -2 -26 -8 -24 -17 1 -7 -3 -19 -9 -27 -7 -9 -8 -14 -1 -14 20
0 42 12 37 20 -3 5 0 12 6 16 7 4 9 3 5 -4 -5 -9 7 -24 24 -28 3 -1 20 -5 38
-9 24 -6 30 -11 22 -20 -15 -18 -80 -25 -80 -8 0 7 -4 13 -9 13 -4 0 -6 -10
-4 -22 3 -15 -2 -26 -15 -33 -10 -5 -31 -17 -47 -25 -16 -8 -39 -25 -51 -37
-21 -21 -21 -24 -6 -32 15 -9 15 -11 -3 -32 l-20 -22 28 7 c25 6 27 4 27 -21
0 -18 8 -33 20 -41 12 -7 18 -18 14 -24 -5 -7 2 -9 22 -4 26 5 25 4 -8 -14
-21 -11 -38 -22 -38 -24 0 -2 19 -2 43 0 l42 5 -30 -17 c-17 -10 -25 -19 -17
-21 21 -8 13 -43 -13 -55 -29 -13 -31 -25 -9 -57 15 -21 15 -23 -2 -21 -33 4
-36 1 -18 -17 10 -10 29 -16 50 -15 24 2 34 -2 34 -12 0 -22 21 -24 52 -7 39
23 48 4 13 -28 -43 -38 -68 -78 -52 -84 9 -3 9 -9 -1 -26 -10 -18 -10 -21 3
-21 35 0 9 -37 -29 -42 -22 -2 -30 -9 -31 -25 -1 -14 4 -23 13 -23 8 0 12 -6
9 -13 -7 -19 15 -45 43 -49 43 -5 23 -23 -30 -26 -56 -3 -67 -19 -17 -25 l32
-4 -33 -1 c-54 -3 -32 -25 39 -40 35 -7 94 -12 131 -10 52 2 64 0 56 -9 -6 -7
-27 -14 -47 -15 l-36 -1 33 -4 c53 -7 25 -23 -41 -24 -34 0 -80 -4 -102 -8
-37 -8 -38 -9 -10 -11 17 -1 39 -5 49 -9 20 -8 20 -8 0 -13 -10 -2 -77 0 -147
6 -103 8 -130 7 -137 -3 -4 -8 -10 -9 -14 -3 -9 15 -124 23 -186 13 l-55 -9
45 -2 c25 -1 49 -2 53 -1 5 1 6 -2 3 -7 -9 -15 131 -38 279 -46 58 -3 64 -2
35 6 -19 6 -62 19 -95 29 l-60 19 50 -6 c28 -2 79 -8 115 -11 36 -3 68 -11 72
-17 4 -5 25 -10 46 -10 27 -1 37 -4 32 -12 -6 -7 12 -14 53 -23 74 -15 133
-35 77 -25 -19 3 -89 10 -155 15 -278 21 -343 29 -395 44 -47 15 -67 15 -143
6 -48 -6 -92 -9 -97 -6 -11 7 -40 -5 -40 -16 0 -5 12 -9 28 -10 36 0 213 -36
187 -38 -43 -2 -234 28 -253 40 -16 10 -29 10 -59 2 -39 -12 -123 -8 -158 7
-34 14 -78 23 -127 24 -32 1 -48 5 -48 14 0 7 -13 15 -30 19 -16 3 -30 11 -30
18 0 6 29 41 64 76 63 63 135 109 173 109 11 0 27 8 36 18 18 20 23 82 7 82
-5 0 -10 11 -10 24 0 16 -7 27 -20 31 -11 3 -20 13 -20 20 0 9 -6 12 -17 8
-11 -4 -14 -3 -9 5 4 7 3 12 -3 12 -5 0 -13 -5 -16 -10 -5 -8 -11 -8 -20 0
-11 9 -12 7 -8 -8 3 -12 -2 -22 -12 -26 -10 -3 -14 -2 -9 5 4 8 1 8 -14 0 -29
-16 -70 -14 -79 4 -5 8 -30 17 -57 21 -27 3 -54 11 -61 17 -20 19 -52 40 -60
39 -8 -1 -27 -31 -45 -70 -10 -24 -30 -22 -30 4 0 8 -7 14 -15 14 -23 0 -18
-21 15 -64 31 -40 41 -98 19 -111 -6 -5 -3 -12 9 -21 13 -9 18 -21 15 -34 -3
-11 -1 -20 5 -20 13 0 12 -50 -2 -51 -6 -1 -30 -1 -53 -1 -52 -1 -55 -12 -8
-28 30 -10 75 -51 75 -69 0 -3 -11 -7 -25 -7 -34 -2 -61 -24 -43 -35 8 -6 9
-9 2 -9 -6 0 -18 9 -25 21 -8 11 -25 22 -39 24 -14 2 -35 7 -47 10 -14 5 -23
3 -23 -3 0 -6 24 -15 52 -18 43 -6 48 -9 28 -14 -30 -8 -110 19 -110 37 0 17
-15 16 -33 -1 -11 -11 -17 -12 -26 -3 -9 9 -14 8 -21 -3 -5 -8 -6 -18 -4 -22
3 -4 1 -8 -5 -8 -6 0 -8 12 -4 30 3 20 1 30 -6 30 -7 0 -10 4 -7 9 8 12 -26
24 -33 13 -3 -5 -23 -15 -43 -21 -21 -7 -44 -22 -52 -33 -12 -17 -21 -19 -53
-13 -21 4 -44 11 -50 17 -9 7 -13 7 -13 0 0 -6 -2 -16 -5 -24 -4 -10 4 -13 36
-10 27 3 39 1 35 -6 -3 -6 -15 -8 -26 -5 -14 4 -22 -1 -29 -18 -6 -16 -10 -18
-10 -8 -1 21 -48 34 -66 19 -10 -8 -15 -8 -21 1 -4 8 -3 9 4 5 7 -4 12 -1 12
8 0 21 -17 20 -38 -1 -16 -16 -17 -15 -20 0 -2 10 -9 17 -15 16 -30 -4 -47 2
-47 15 0 8 -9 18 -20 21 -11 3 -20 13 -20 21 0 9 -5 12 -12 8 -7 -4 -4 2 6 14
19 22 19 22 -2 22 -12 0 -22 5 -22 11 0 6 9 8 20 4 11 -3 25 -3 32 2 14 8 81
13 73 5 -6 -6 85 -55 100 -54 18 1 68 13 77 18 18 11 -5 23 -60 30 -31 3 -68
12 -81 19 l-23 12 28 10 c16 6 38 14 49 18 16 6 9 11 -33 24 -30 9 -53 20 -52
25 3 13 -20 24 -46 21 -19 -2 -21 0 -11 16 7 11 15 19 20 19 4 0 5 -4 2 -10
-8 -13 26 -1 47 17 9 8 35 17 58 20 52 7 35 19 -36 27 -27 4 -61 8 -75 11 -14
3 -36 2 -50 -3 -13 -5 -37 -6 -53 -1 -16 5 -32 6 -35 3 -3 -2 4 -7 16 -10 12
-3 24 -13 27 -21 3 -8 10 -12 15 -9 5 3 11 -1 15 -9 3 -8 15 -15 26 -15 12 0
18 -4 15 -10 -4 -6 -14 -10 -23 -9 -30 3 -34 -1 -17 -18 15 -15 15 -17 1 -25
-11 -6 -26 -2 -48 13 -24 18 -30 19 -25 7 3 -9 8 -32 10 -50 2 -18 2 -25 0
-15 -3 13 -11 15 -29 11 -19 -5 -25 -3 -23 7 3 19 -11 49 -23 49 -6 0 -17 -8
-24 -17 -7 -10 -16 -14 -21 -9 -4 5 -2 11 5 13 6 3 12 10 12 18 0 12 -70 12
-91 0 -5 -4 -9 3 -9 14 0 16 6 21 25 21 14 0 25 5 25 10 0 6 -7 10 -15 10 -8
0 -15 9 -15 20 0 11 -7 20 -15 20 -25 0 -29 1 -42 12 -9 7 -13 7 -13 0 0 -5
-8 -8 -19 -5 -10 3 -21 -2 -24 -10 -4 -10 3 -17 24 -21 38 -7 37 -23 -1 -23
-16 0 -30 4 -30 9 0 11 -37 10 -59 -2 -15 -8 -70 -13 -184 -19 -10 -1 -17 -7
-15 -13 5 -13 -19 -44 -27 -36 -9 8 31 73 50 83 11 5 30 20 42 32 20 20 42 28
127 47 15 4 26 9 23 12 -6 6 -366 -13 -417 -22 -26 -4 -31 -3 -20 5 8 6 46 13
83 17 75 7 80 15 14 21 -56 6 -127 -13 -127 -33 0 -11 -4 -12 -19 -4 -24 12
-34 13 -27 1 6 -10 -25 -15 -189 -32 -199 -19 -206 -19 -241 7 -17 13 -39 42
-49 64 -16 36 -21 40 -56 40 -20 0 -39 5 -41 12 -2 6 -34 15 -70 19 -64 8
-105 23 -120 44 -4 6 -8 1 -8 -10 -1 -18 -2 -18 -13 -4 -11 14 -14 14 -32 -3
-20 -19 -20 -34 -23 -629 -3 -646 -4 -629 42 -594 13 10 44 15 91 15 49 0 78
5 94 16 18 13 27 14 44 5 12 -6 63 -16 112 -21 50 -5 97 -11 105 -12 8 0 20
-8 27 -17 9 -13 14 -14 24 -3 20 19 31 14 24 -9 -6 -18 -5 -20 14 -10 18 10
21 9 21 -7 0 -11 9 -31 20 -45 11 -14 20 -29 19 -34 -1 -4 -1 -23 0 -40 1 -27
5 -33 24 -34 12 -1 4 -5 -18 -9 l-40 -6 27 -12 c20 -8 25 -16 21 -31 -3 -14 0
-21 8 -21 9 -1 7 -6 -5 -15 -19 -15 -19 -15 4 -15 30 0 22 -8 -19 -20 -27 -8
-31 -7 -21 5 17 20 -3 26 -34 10 -26 -14 -27 -13 -21 5 5 14 2 20 -9 20 -9 0
-19 0 -23 1 -4 0 -9 -4 -11 -10 -2 -6 3 -11 12 -11 9 0 16 -4 16 -8 0 -13 -33
-11 -49 2 -12 9 -13 8 -8 -6 4 -12 2 -18 -8 -18 -9 0 -15 10 -15 25 0 16 6 25
15 25 8 0 15 5 15 10 0 6 -4 10 -9 10 -14 0 -23 52 -11 64 7 7 4 15 -12 28
-19 15 -20 18 -5 18 9 0 17 4 17 10 0 5 -6 7 -14 4 -10 -4 -16 2 -18 18 -4 32
-42 32 -46 -1 -2 -13 -12 -26 -23 -28 -10 -3 -19 -9 -19 -14 0 -5 7 -6 16 -2
12 4 15 2 12 -8 -3 -8 -11 -14 -19 -15 -32 -2 -37 -5 -42 -24 -3 -12 1 -24 11
-30 10 -5 12 -10 6 -10 -16 0 -37 27 -30 39 13 20 -16 22 -35 2 -23 -24 -16
-45 12 -38 32 8 21 -13 -13 -28 -35 -14 -53 -11 -42 7 4 6 2 8 -3 5 -6 -4 -13
-20 -16 -36 -4 -17 -14 -32 -26 -36 -10 -3 -22 -13 -25 -21 -5 -12 -2 -15 10
-10 10 4 14 2 11 -6 -2 -7 -11 -12 -20 -12 -9 1 -15 -2 -12 -6 6 -9 -35 -21
-47 -14 -4 3 -5 16 -2 29 5 20 2 24 -23 27 l-28 3 38 18 c28 14 37 24 37 44 0
18 4 24 15 19 13 -5 14 -2 4 15 -8 16 -7 24 5 38 9 10 16 26 16 36 0 10 6 23
14 29 8 6 17 30 21 54 6 35 4 42 -9 42 -9 0 -16 -4 -16 -10 0 -5 -11 -12 -25
-16 -13 -3 -27 -14 -30 -23 -3 -10 -17 -24 -30 -31 -14 -7 -25 -17 -25 -22 0
-5 -4 -7 -10 -3 -5 3 -6 13 -3 23 5 12 -1 10 -20 -8 -31 -29 -35 -44 -8 -35
12 3 21 0 24 -10 4 -8 3 -14 -1 -14 -21 3 -42 -2 -42 -11 0 -6 6 -10 13 -9 22
3 37 -1 37 -10 0 -4 -11 -6 -24 -4 -29 6 -26 31 -32 -347 -5 -311 -1 -341 42
-332 19 3 24 0 24 -17 0 -18 3 -20 19 -12 14 8 22 7 32 -5 7 -9 21 -13 33 -10
18 5 113 -21 126 -34 3 -3 14 -11 25 -18 11 -7 31 -20 45 -29 31 -19 75 -104
59 -114 -7 -4 -5 -8 5 -12 17 -7 22 -32 7 -41 -4 -3 -23 -1 -42 5 -19 6 -43
12 -54 14 -11 2 -28 6 -37 10 -11 4 -20 0 -28 -14 l-11 -21 -39 20 c-41 21
-121 22 -128 1 -5 -16 -22 -14 -22 3 0 9 -9 14 -20 13 -23 -1 -27 -20 -34
-139 l-4 -78 832 0 c715 1 834 3 850 15 11 8 33 15 49 15 22 0 28 4 23 15 -3
9 0 15 9 15 8 0 15 -6 16 -12 0 -7 4 -4 8 7 11 27 5 35 -30 35 -16 0 -29 5
-29 10 0 10 13 14 37 11 6 -1 31 10 56 23 24 14 47 23 49 20 3 -3 8 2 12 11 4
13 1 15 -14 10 -25 -8 -27 10 -3 24 10 5 15 12 12 15 -5 6 -41 14 -69 16 -8 0
-23 18 -33 40 l-18 39 43 54 c37 48 92 88 102 76 2 -2 8 -13 14 -24 11 -19 11
-19 12 5 1 33 40 69 79 72 18 1 35 6 37 10 3 4 13 8 23 8 10 0 24 6 30 14 6 7
28 16 47 19 29 5 40 2 53 -15 17 -20 17 -20 63 20 51 43 101 58 143 42 17 -6
31 -7 34 -2 19 30 113 57 142 41 12 -6 44 -13 73 -16 59 -6 76 -16 76 -48 0
-35 -10 -55 -29 -55 -14 0 -51 -46 -51 -64 0 -3 11 -6 25 -6 14 0 28 -6 31
-14 3 -8 12 -12 19 -10 8 3 16 -4 20 -17 8 -25 -15 -49 -46 -49 -10 0 -21 -5
-25 -11 -8 -14 14 -29 33 -22 10 4 7 -10 -11 -44 -14 -28 -22 -53 -19 -56 3
-4 2 -14 -2 -24 -4 -10 -7 -30 -6 -46 2 -21 -2 -27 -18 -27 -12 0 -21 -4 -21
-10 0 -5 -6 -10 -13 -10 -8 0 -27 -11 -42 -25 -31 -26 -115 -43 -154 -30 -18
5 -21 2 -21 -19 l0 -26 320 0 c287 0 320 2 320 16 0 11 5 14 17 10 16 -6 53
23 53 43 0 5 7 12 16 15 9 4 14 13 10 21 -3 9 0 15 9 15 8 0 36 22 62 50 26
27 53 50 61 50 7 0 11 4 8 8 -3 5 9 16 25 26 25 15 30 23 25 45 -5 25 -5 25 6
4 13 -28 38 -30 38 -4 0 32 -27 45 -92 43 -45 -1 -68 4 -87 17 -14 10 -36 21
-48 25 -19 6 -53 60 -53 85 0 6 -6 11 -14 11 -8 0 -18 9 -21 20 -4 11 -10 18
-14 16 -4 -3 -5 8 -3 25 2 16 8 29 12 29 4 0 15 19 25 43 22 50 61 86 94 87
13 0 34 12 47 27 13 15 26 24 29 21 9 -9 65 12 65 23 0 5 8 9 17 9 13 0 14 -3
5 -12 -7 -7 -12 -22 -12 -34 0 -20 4 -21 83 -21 103 0 147 -17 147 -57 0 -10
9 -16 24 -16 13 0 29 -7 36 -15 7 -8 18 -15 25 -15 6 0 17 -19 24 -42 7 -24
16 -55 21 -71 4 -15 4 -25 0 -22 -5 3 -5 -8 0 -24 4 -16 6 -32 3 -35 -3 -2 -2
-10 2 -16 10 -16 25 7 25 38 0 12 7 25 15 28 8 4 15 12 15 20 0 8 3 14 8 14 4
1 27 18 50 39 38 33 44 44 48 87 4 35 2 45 -5 34 -6 -8 -11 -10 -11 -4 0 7 16
36 36 65 26 39 34 59 29 77 -8 33 14 119 39 157 12 17 22 37 23 45 1 8 7 38
13 65 6 28 12 60 12 73 0 12 6 22 14 22 16 0 19 27 3 32 -7 2 -7 12 0 31 15
40 14 77 -4 83 -8 4 -15 15 -15 26 0 17 -6 19 -47 16 -41 -3 -48 0 -45 15 2 9
-1 17 -6 17 -6 0 -10 6 -9 13 1 46 -2 50 -41 44 -20 -4 -51 -2 -67 2 l-30 9
30 3 c17 1 40 2 53 1 12 0 22 4 22 10 0 7 4 7 13 -1 8 -6 17 -8 20 -4 13 12 7
23 -12 23 -11 0 -21 5 -23 12 -3 8 -16 5 -41 -11 -32 -20 -51 -18 -30 3 4 3 7
15 8 26 2 20 -27 36 -45 25 -14 -8 -13 28 1 42 6 6 8 16 5 22 -11 17 -66 -8
-66 -30 0 -12 -7 -19 -20 -19 -20 0 -20 1 -4 25 9 14 22 25 29 25 7 0 15 10
18 22 8 29 4 31 -19 10 -10 -10 -27 -16 -36 -14 -11 2 -18 -3 -18 -12 0 -9 -4
-16 -9 -16 -15 0 -20 27 -8 40 10 10 2 11 -35 6 -51 -6 -57 -2 -34 23 20 22 9
71 -15 71 -11 0 -19 -4 -19 -10 0 -5 -5 -10 -11 -10 -5 0 -7 5 -4 11 4 6 -3
18 -15 26 -17 12 -19 18 -10 27 9 8 14 8 17 -1 7 -20 23 -15 23 7 0 17 -6 19
-50 19 -59 -2 -65 2 -50 30 8 17 8 21 -3 21 -8 0 -20 -7 -27 -15 -7 -8 -23
-15 -36 -15 -12 0 -30 -8 -40 -17 -14 -14 -100 -63 -111 -63 -2 0 -3 7 -3 15
0 8 5 15 10 15 6 0 10 4 10 10 0 13 -31 1 -53 -22 -10 -10 -27 -18 -39 -18
-18 0 -19 -2 -7 -16 11 -13 10 -18 -5 -26 -14 -8 -15 -12 -6 -18 8 -5 3 -7
-13 -7 -25 2 -40 27 -17 27 6 0 10 5 10 10 0 6 -8 10 -19 10 -12 0 -20 -9 -23
-25 -3 -15 -1 -22 5 -18 6 4 8 0 4 -9 -4 -12 -1 -14 14 -11 10 3 19 0 19 -6 0
-6 -16 -11 -35 -11 -24 0 -35 -5 -35 -14 0 -8 -5 -18 -11 -22 -8 -4 -9 0 -4
15 3 12 2 21 -4 21 -5 0 -18 3 -28 6 -11 3 -14 2 -7 -3 14 -11 27 -46 13 -38
-5 4 -16 1 -24 -5 -8 -7 -15 -9 -15 -5 0 4 8 14 18 21 24 19 -2 18 -40 -2 -23
-12 -29 -13 -25 -2 2 7 10 12 16 11 6 -2 11 2 11 7 0 6 -5 10 -11 10 -5 0 -8
4 -4 9 10 16 -14 22 -37 10 -21 -11 -22 -11 -10 4 8 9 11 25 7 37 -6 19 -4 20
21 14 19 -5 25 -4 20 5 -4 6 -16 11 -27 11 -38 0 -18 19 24 22 43 3 43 3 30
51 -4 12 1 17 17 17 13 0 24 8 27 20 3 11 10 20 15 20 6 0 4 8 -3 18 -7 9 -10
14 -5 10 4 -3 23 0 42 8 20 8 34 10 34 4 0 -5 -7 -10 -15 -10 -8 0 -15 -5 -15
-10 0 -18 42 10 48 32 3 15 10 18 28 14 14 -4 24 -2 24 4 0 6 4 9 10 5 5 -3
17 6 26 20 11 17 22 24 34 20 12 -4 25 3 38 20 24 30 32 31 58 7 10 -9 36 -23
56 -30 32 -11 41 -11 61 3 22 14 24 14 37 -9 11 -21 15 -23 26 -11 11 10 19
11 38 2 13 -7 22 -15 20 -19 -3 -5 6 -8 19 -8 16 0 26 -7 30 -19 2 -10 17 -21
33 -25 16 -4 36 -13 44 -20 15 -13 30 -16 83 -18 15 0 27 -5 27 -9 0 -5 18
-20 40 -34 22 -14 40 -32 40 -40 0 -8 6 -15 13 -15 13 0 30 -35 41 -82 4 -16
11 -28 16 -28 6 0 10 -7 10 -15 0 -8 9 -20 20 -27 11 -7 20 -23 20 -35 0 -13
5 -23 10 -23 13 0 13 67 1 75 -6 3 -8 14 -6 25 2 11 -1 20 -6 20 -16 0 -39 27
-39 44 0 8 -5 18 -11 21 -6 4 -9 31 -8 63 2 43 -1 58 -12 60 -8 1 -19 14 -26
27 l-11 25 56 0 c85 0 131 -17 184 -66 26 -24 55 -44 66 -44 21 0 66 -56 56
-71 -3 -6 3 -13 14 -16 12 -3 22 -16 26 -35 3 -18 14 -32 25 -35 13 -3 33 -33
56 -79 19 -41 42 -77 51 -81 8 -3 13 -12 10 -19 -3 -8 -1 -14 4 -14 5 0 11
-10 15 -22 3 -13 10 -32 15 -43 5 -11 14 -39 20 -62 6 -23 15 -45 20 -48 6 -3
10 -14 10 -24 0 -20 47 -57 84 -67 14 -3 31 -14 36 -23 5 -9 10 -12 10 -7 0 4
16 -8 36 -28 21 -21 46 -36 60 -36 13 0 24 -3 24 -8 0 -4 19 -17 43 -30 43
-22 77 -65 77 -96 0 -8 14 -22 30 -31 17 -9 30 -20 30 -25 0 -5 9 -12 20 -15
11 -3 20 -13 20 -21 0 -8 10 -18 23 -23 12 -5 33 -18 46 -30 13 -12 30 -21 37
-21 7 0 16 -9 19 -20 3 -11 11 -20 16 -20 16 0 44 -31 44 -48 0 -9 13 -19 29
-23 16 -4 39 -18 51 -29 18 -17 30 -20 54 -15 17 4 49 4 71 0 35 -6 39 -10 42
-38 l4 -32 11 25 c11 23 12 23 12 4 1 -17 6 -20 31 -16 22 3 30 0 30 -11 0 -8
4 -17 9 -19 5 -2 13 -16 17 -32 5 -20 3 -27 -4 -22 -8 4 -8 -3 -1 -26 6 -18
13 -41 16 -51 9 -30 -17 -66 -54 -73 -18 -3 -31 -9 -29 -13 3 -4 -34 -7 -80
-7 -71 1 -87 4 -95 19 -8 13 -15 15 -28 8 -12 -7 -29 -4 -58 11 -31 16 -50 19
-78 14 -38 -7 -38 -7 -13 -20 13 -7 38 -16 54 -20 25 -6 109 -41 153 -65 8 -4
17 -13 19 -19 6 -19 -46 -14 -56 4 -6 10 -12 13 -16 6 -7 -12 -46 -4 -46 9 0
5 -20 6 -44 3 -25 -4 -52 -2 -65 5 -18 10 -21 9 -21 -6 0 -10 10 -23 22 -28
33 -15 33 -32 0 -49 -33 -17 -82 -10 -125 18 -14 10 -36 16 -48 14 -25 -3 -39
-28 -16 -28 8 0 18 -7 21 -16 9 -24 7 -54 -4 -54 -5 0 -10 4 -10 9 0 5 -15 14
-32 22 -18 7 -36 18 -40 23 -5 7 -11 6 -18 -4 -9 -13 -14 -11 -34 14 -13 16
-28 26 -33 23 -18 -11 -83 13 -83 31 0 10 -3 13 -8 7 -9 -13 -42 -16 -42 -4 0
5 -8 9 -17 9 -19 0 -78 76 -66 83 19 11 110 -30 144 -65 32 -33 41 -37 68 -32
23 5 37 2 52 -12 12 -11 34 -19 50 -19 l28 0 -27 23 c-15 12 -44 30 -65 40
-22 10 -35 22 -32 29 3 10 -11 13 -55 13 -33 0 -59 3 -58 7 0 5 -2 15 -6 24
-6 13 -16 16 -48 11 -33 -4 -40 -2 -36 9 3 8 -3 25 -13 38 -11 13 -19 21 -19
17 0 -3 -19 2 -42 11 -50 19 -116 78 -120 108 -2 12 -9 19 -19 17 -9 -1 -19 4
-22 12 -3 7 -18 17 -34 20 -15 4 -36 15 -46 24 -11 9 -21 12 -26 6 -14 -13 -1
-64 15 -64 8 0 14 -9 14 -20 0 -12 12 -26 31 -36 39 -20 79 -62 79 -82 0 -8
12 -25 26 -38 25 -24 25 -44 -1 -44 -8 0 -34 19 -58 43 -52 50 -95 73 -102 54
-8 -21 10 -70 30 -81 31 -18 45 -33 45 -50 0 -9 -4 -16 -10 -16 -5 0 -10 5
-10 10 0 6 -8 10 -19 10 -10 0 -24 6 -30 14 -6 8 -22 16 -34 19 -12 2 -29 8
-38 11 -10 4 -23 0 -33 -10 -15 -14 -15 -19 -3 -38 8 -11 13 -31 12 -43 -1
-15 3 -19 13 -15 12 4 14 0 8 -21 -4 -16 -2 -27 4 -27 5 0 10 9 10 20 0 35 18
21 25 -20 6 -36 10 -40 43 -46 20 -4 43 -13 50 -21 7 -7 24 -13 38 -13 15 0
24 -6 24 -15 0 -8 9 -15 21 -15 11 0 18 -4 15 -9 -4 -5 2 -23 11 -40 l18 -31
777 0 c612 0 777 3 781 13 4 9 6 9 6 0 1 -9 61 -12 236 -13 l236 0 -12 22 c-7
13 -23 40 -35 60 -17 26 -20 39 -12 44 6 4 8 3 4 -4 -3 -6 -2 -13 4 -17 6 -4
22 -29 35 -56 l25 -49 470 0 470 0 0 920 c0 864 -1 920 -17 930 -17 11 -17 11
0 6 15 -5 17 5 17 109 0 78 -4 115 -11 115 -8 0 -8 4 -1 13 6 7 9 43 8 82 l-3
70 -34 6 -34 6 40 2 c30 1 36 4 25 11 -24 16 -59 11 -82 -10 l-22 -20 21 0
c23 0 33 -18 33 -56 0 -27 -17 -33 -26 -9 -8 20 -24 9 -24 -16 0 -15 5 -19 19
-14 15 4 22 -3 35 -35 18 -46 20 -70 6 -70 -14 0 -12 -37 3 -44 6 -3 0 -4 -15
-2 -15 1 -25 -1 -22 -6 3 -4 -2 -16 -12 -25 -16 -16 -16 -16 -10 5 6 17 3 22
-9 22 -11 0 -15 5 -12 15 4 8 -4 22 -16 32 -18 14 -22 30 -24 76 -1 34 2 55 8
52 5 -4 9 11 9 32 1 60 40 93 110 93 28 0 40 4 40 14 0 26 -30 26 -133 -1
-111 -29 -139 -45 -110 -62 10 -6 13 -11 7 -11 -5 0 -19 7 -30 15 -20 15 -56
20 -67 8 -4 -3 1 -11 10 -18 13 -9 1 -9 -47 1 -68 14 -82 12 -73 -11 7 -21
-14 -19 -43 4 -15 12 -49 21 -95 25 -40 4 -87 16 -105 26 -38 20 -66 16 -257
-35 -96 -25 -151 -29 -94 -6 26 10 161 40 277 62 83 15 170 42 170 52 0 5 -11
7 -24 5 -21 -4 -24 -2 -21 23 3 17 -2 29 -11 33 -8 3 -14 12 -14 20 0 7 -9 16
-21 19 -13 4 -18 10 -13 18 5 9 1 11 -13 7 -17 -5 -20 -1 -18 27 2 48 -21 57
-70 29 -43 -25 -128 -70 -185 -99 -19 -10 -48 -27 -63 -38 -16 -10 -31 -16
-34 -13 -8 8 -14 4 112 76 61 34 113 67 116 73 4 5 17 10 30 11 13 1 23 7 22
14 -2 6 4 9 11 6 8 -3 29 2 48 11 20 11 28 12 21 4 -20 -20 -16 -24 23 -25 20
0 39 -5 42 -10 4 -5 32 -16 62 -23 30 -8 82 -27 116 -42 34 -16 70 -29 80 -29
11 0 24 -4 29 -8 6 -5 39 -17 75 -27 36 -10 80 -29 98 -41 31 -20 32 -23 15
-33 -30 -17 57 -14 91 4 16 8 34 15 40 14 49 -6 59 10 19 28 -21 10 -28 10
-35 0 -6 -9 -10 -9 -15 -1 -5 6 -19 11 -32 10 -27 -1 -28 3 -36 106 -2 37 -9
95 -14 130 -5 35 -13 100 -16 146 -6 64 -10 82 -22 82 -12 0 -13 3 -4 13 8 10
8 30 2 68 -5 30 -21 131 -36 224 -14 94 -28 184 -31 202 -4 28 -43 64 -89 82
-5 2 -50 23 -100 46 -49 23 -100 46 -112 49 -11 4 -23 12 -26 19 -3 7 -33 24
-66 38 -34 13 -76 36 -92 52 -17 15 -36 27 -42 27 -7 0 -27 9 -45 20 -18 11
-38 20 -45 20 -6 0 -30 16 -52 35 -22 20 -48 38 -57 41 -10 3 -18 10 -18 15 0
5 -5 9 -11 9 -6 0 -19 10 -28 22 -23 27 -51 18 -51 -17 0 -24 19 -49 53 -70
27 -16 4 -39 -36 -37 -19 1 -66 -6 -104 -14 -120 -28 -205 -44 -318 -59 -60
-8 -127 -18 -148 -21 -44 -7 -67 7 -67 43 0 14 -11 52 -24 86 -13 34 -34 98
-45 142 -34 130 -94 261 -150 332 -28 36 -41 41 -41 18z m-50 -405 c0 -5 -9
-10 -20 -10 -11 0 -20 5 -20 10 0 6 9 10 20 10 11 0 20 -4 20 -10z m-63 -106
c-9 -9 -28 6 -21 18 4 6 10 6 17 -1 6 -6 8 -13 4 -17z m-1350 -160 c17 -5 19
-9 10 -18 -8 -10 -18 -10 -39 -2 -50 19 -26 35 29 20z m-77 -14 c0 -5 -5 -10
-11 -10 -5 0 -7 5 -4 10 3 6 8 10 11 10 2 0 4 -4 4 -10z m1698 -105 c0 -34 11
-44 23 -22 13 22 29 13 22 -13 -3 -11 0 -20 6 -20 6 0 11 5 11 10 0 6 5 10 11
10 7 0 9 -9 6 -21 -5 -18 -2 -20 19 -16 16 3 24 0 24 -9 0 -15 16 -19 22 -6 2
5 13 6 25 3 22 -6 21 -7 -10 -43 -31 -35 -65 -56 -37 -23 10 12 10 18 0 30 -7
8 -9 15 -5 15 5 0 5 3 2 6 -3 4 -22 -7 -42 -25 -20 -17 -45 -31 -57 -31 -17 0
-19 3 -10 12 7 7 12 21 12 33 -1 18 -1 19 -11 2 -8 -13 -14 -15 -29 -7 -15 8
-19 6 -23 -13 -3 -16 -5 -13 -6 11 0 17 4 32 10 32 7 0 9 10 5 26 -4 14 -2 32
4 39 6 7 10 17 9 21 -3 16 1 24 10 24 5 0 9 -11 9 -25z m-62 -65 l-14 -45 -1
37 c-1 44 20 105 26 73 2 -11 -3 -40 -11 -65z m304 25 c-7 -9 -15 -13 -17 -11
-7 7 7 26 19 26 6 0 6 -6 -2 -15z m85 5 c5 -8 11 -7 20 0 31 26 113 -18 99
-53 -7 -20 -35 -30 -48 -17 -5 5 -19 10 -29 10 -16 0 -18 -6 -15 -31 6 -37
-22 -58 -43 -33 -7 8 -19 12 -26 9 -8 -3 -23 5 -32 16 -15 19 -16 27 -6 57 7
19 18 38 26 43 19 12 46 11 54 -1z m-109 -110 c8 0 14 -10 14 -22 0 -16 -3
-19 -8 -10 -5 7 -16 10 -25 6 -14 -5 -16 -1 -13 17 6 34 7 35 13 22 2 -7 11
-13 19 -13z m-125 -67 c-12 -20 -14 -14 -5 12 4 9 9 14 11 11 3 -2 0 -13 -6
-23z m475 7 l28 -11 -32 -32 c-26 -25 -38 -31 -69 -29 -21 2 -41 9 -46 17 -4
8 -15 15 -23 15 -25 0 -11 34 16 41 41 11 97 10 126 -1z m-296 -40 c0 -5 -4
-10 -10 -10 -5 0 -10 5 -10 10 0 6 5 10 10 10 6 0 10 -4 10 -10z m-62 -22 c-2
-6 -10 -14 -16 -16 -7 -2 -10 2 -6 12 7 18 28 22 22 4z m-1402 -86 c-4 -3 -11
0 -16 8 -15 24 -11 33 6 15 9 -9 13 -19 10 -23z m1838 2 c41 -41 42 -43 19
-43 -10 0 -30 -2 -45 -4 -22 -3 -28 0 -28 14 0 11 -6 19 -14 19 -19 0 -27 25
-13 39 19 19 44 12 81 -25z m-364 16 c0 -5 -4 -10 -10 -10 -5 0 -10 5 -10 10
0 6 5 10 10 10 6 0 10 -4 10 -10z m-285 -59 c-3 -12 -10 -21 -15 -21 -4 0 -3
11 3 24 14 29 22 27 12 -3z m495 25 c0 -3 -4 -8 -10 -11 -5 -3 -10 -1 -10 4 0
6 5 11 10 11 6 0 10 -2 10 -4z m-491 -130 c-9 -8 -10 -7 -5 7 3 10 7 33 8 50
1 28 2 28 5 -7 3 -22 -1 -43 -8 -50z m574 12 c-10 -11 -11 -18 -3 -23 7 -4 1
-16 -17 -32 -21 -20 -27 -34 -24 -58 1 -18 -2 -36 -7 -39 -6 -4 -8 3 -5 15 5
19 3 20 -18 14 l-24 -8 20 23 20 23 -22 -7 c-13 -4 -23 -3 -23 2 0 5 9 12 20
15 16 4 20 14 20 44 0 25 3 33 9 24 14 -22 51 4 52 37 0 24 1 25 9 7 5 -13 3
-26 -7 -37z m-203 12 c0 -5 -7 -10 -16 -10 -8 0 -12 -4 -9 -10 3 -5 1 -10 -4
-10 -14 0 -14 13 1 28 15 15 28 16 28 2z m360 -40 c0 -5 -5 -10 -11 -10 -5 0
-7 5 -4 10 3 6 8 10 11 10 2 0 4 -4 4 -10z m118 -32 c2 -15 10 -32 18 -38 8
-7 14 -18 14 -25 0 -25 -25 -22 -65 9 -21 17 -45 30 -52 28 -7 -2 -10 3 -7 12
3 8 0 17 -5 21 -22 13 1 24 47 21 42 -2 47 -5 50 -28z m-2150 -14 c-10 -10
-28 6 -28 24 0 15 1 15 17 -1 9 -9 14 -19 11 -23z m1739 -6 c-3 -7 -5 -2 -5
12 0 14 2 19 5 13 2 -7 2 -19 0 -25z m-1877 -7 c6 -11 6 -22 1 -25 -5 -3 -11
5 -13 19 -6 30 -2 32 12 6z m2020 -1 c0 -5 -8 -10 -17 -10 -15 0 -16 2 -3 10
19 12 20 12 20 0z m50 -15 c0 -15 -29 -35 -51 -35 -7 0 -2 11 11 25 27 28 40
32 40 10z m19 -27 c-8 -14 -14 -18 -17 -10 -4 13 17 46 25 38 3 -2 -1 -15 -8
-28z m-2129 12 c0 -5 -4 -10 -10 -10 -5 0 -10 5 -10 10 0 6 5 10 10 10 6 0 10
-4 10 -10z m1710 0 c0 -5 -5 -10 -11 -10 -5 0 -7 5 -4 10 3 6 8 10 11 10 2 0
4 -4 4 -10z m585 -51 c0 -12 6 -13 33 -5 12 4 22 12 22 17 0 5 5 9 11 9 6 0 9
-8 7 -17 -2 -10 -9 -17 -15 -16 -6 1 -17 -4 -23 -12 -11 -13 -5 -15 36 -16 27
-1 40 -3 29 -6 -45 -10 -48 -12 -34 -29 7 -8 29 -24 50 -34 42 -22 59 -62 35
-85 -18 -19 -26 -19 -26 -1 0 8 -11 17 -25 20 -16 4 -22 11 -19 21 4 10 0 15
-10 15 -27 0 -66 31 -66 51 0 11 -7 19 -15 19 -18 0 -23 39 -9 79 5 14 19 7
19 -10z m-325 -14 c-7 -8 -17 -15 -23 -15 -6 0 -2 7 9 15 25 19 30 19 14 0z
m290 -4 c0 -5 -13 -11 -30 -13 -24 -4 -27 -2 -19 9 13 15 49 18 49 4z m-1777
-16 c4 -8 2 -17 -3 -20 -6 -4 -10 3 -10 14 0 25 6 27 13 6z m2437 -15 c-24
-15 -36 -11 -14 4 10 8 21 12 24 10 2 -3 -2 -9 -10 -14z m-2017 -14 c4 -10 0
-12 -14 -9 -22 6 -26 23 -5 23 8 0 16 -6 19 -14z m-253 -36 c-24 -15 -37 -11
-16 5 11 8 22 12 25 9 3 -3 -1 -9 -9 -14z m2190 9 c-28 -19 -213 -109 -217
-106 -2 2 45 29 104 59 102 52 147 71 113 47z m-2304 -107 c-5 -115 -4 -114
-18 -82 -15 34 -20 118 -8 125 6 3 10 14 10 23 0 15 -2 15 -10 2 -13 -20 -13
-4 1 21 20 38 29 7 25 -89z m1670 93 c-21 -16 -32 -13 -21 4 3 6 14 11 23 11
15 -1 15 -2 -2 -15z m-6 -40 c-7 -9 -15 -13 -19 -10 -3 3 1 10 9 15 21 14 24
12 10 -5z m-1475 -5 c-3 -5 -10 -10 -16 -10 -5 0 -9 5 -9 10 0 6 7 10 16 10 8
0 12 -4 9 -10z m1373 -18 c9 -7 7 -13 -9 -28 l-22 -19 12 23 c12 22 11 23 -9
17 -15 -5 -20 -4 -16 4 8 13 26 14 44 3z m-1353 -42 c3 -5 1 -10 -4 -10 -6 0
-11 5 -11 10 0 6 2 10 4 10 3 0 8 -4 11 -10z m1735 6 c0 -3 -4 -8 -10 -11 -5
-3 -10 -1 -10 4 0 6 5 11 10 11 6 0 10 -2 10 -4z m-2062 -23 c-2 -11 2 -17 10
-15 8 1 12 -5 10 -15 -4 -22 -37 -23 -51 -2 -7 12 -6 21 4 32 19 21 31 21 27
0z m1688 -17 c-14 -19 -26 -41 -26 -49 0 -23 -43 -55 -83 -61 -24 -4 -36 -2
-32 4 3 5 12 10 20 10 7 0 16 12 20 27 5 23 65 104 65 89 0 -3 10 -1 23 4 38
15 40 11 13 -24z m319 -16 c-3 -5 -11 -10 -16 -10 -6 0 -7 5 -4 10 3 6 11 10
16 10 6 0 7 -4 4 -10z m-245 -40 c-8 -5 -19 -10 -25 -10 -5 0 -3 5 5 10 8 5
20 10 25 10 6 0 3 -5 -5 -10z m-82 -35 c-3 -14 -1 -25 3 -25 20 0 8 -41 -15
-50 -32 -12 -47 -34 -17 -26 72 21 68 21 48 -2 -11 -11 -16 -25 -13 -30 3 -6
-6 -17 -20 -27 -19 -12 -23 -20 -15 -28 18 -18 12 -28 -14 -21 -15 4 -25 2
-25 -4 0 -6 8 -13 18 -15 9 -3 5 -4 -10 -4 -21 1 -27 6 -24 20 2 18 46 62 69
70 7 3 8 8 3 13 -5 5 -11 4 -13 -3 -3 -7 -18 -13 -35 -13 -27 0 -28 1 -14 16
19 18 20 30 5 40 -8 5 -6 10 5 16 12 7 14 13 7 22 -8 9 -3 21 17 44 33 38 46
41 40 7z m-1538 -20 c4 3 11 -7 15 -22 3 -14 21 -44 39 -67 44 -55 51 -67 32
-60 -9 3 -16 12 -16 20 0 7 -6 11 -14 8 -8 -3 -12 -12 -9 -20 3 -8 1 -14 -5
-14 -15 0 -20 23 -9 41 8 13 5 23 -14 42 -48 52 -51 57 -43 85 7 26 8 26 12 4
2 -12 7 -20 12 -17z m1575 19 c-9 -9 -19 -13 -23 -10 -3 4 0 11 8 16 24 15 33
11 15 -6z m25 -19 c-33 -19 -49 -19 -24 0 10 8 26 14 34 14 9 0 4 -6 -10 -14z
m-4863 -81 c-3 -3 -12 -4 -19 -1 -8 3 -5 6 6 6 11 1 17 -2 13 -5z m73 -24 c0
-5 -5 -10 -11 -10 -5 0 -7 5 -4 10 3 6 8 10 11 10 2 0 4 -4 4 -10z m4900 -9
c-23 -19 -71 -34 -79 -25 -2 2 9 8 25 14 16 5 36 14 44 19 28 18 35 11 10 -8z
m-712 -20 c-7 -11 -16 -17 -22 -14 -5 3 -1 12 9 20 25 18 27 17 13 -6z m-4513
-21 c-10 -11 -20 -18 -23 -15 -7 6 18 35 31 35 5 0 2 -9 -8 -20z m3915 4 c0
-15 -35 -37 -72 -46 -54 -12 -61 -2 -9 12 22 6 47 17 53 25 13 15 28 20 28 9z
m-3965 -57 c-14 -71 -34 -102 -50 -77 -3 6 -13 10 -22 10 -9 0 -25 8 -35 17
-14 13 -38 17 -88 18 -79 0 -78 11 1 25 30 5 83 18 119 28 36 10 69 17 73 14
5 -2 5 -18 2 -35z m560 33 c3 -5 1 -10 -4 -10 -6 0 -11 5 -11 10 0 6 2 10 4
10 3 0 8 -4 11 -10z m155 0 c0 -5 -5 -10 -11 -10 -5 0 -7 5 -4 10 3 6 8 10 11
10 2 0 4 -4 4 -10z m3005 -10 c17 -19 17 -19 -9 -7 -14 7 -26 15 -26 20 0 13
17 7 35 -13z m-3052 -35 c-3 -9 -8 -14 -10 -11 -3 3 -2 9 2 15 9 16 15 13 8
-4z m-947 -12 c-4 -4 -32 -15 -63 -24 -62 -20 -60 -8 2 15 43 16 72 20 61 9z
m5618 -31 c-4 -14 -13 -16 -52 -13 l-47 5 38 6 c20 4 40 10 44 13 12 13 21 7
17 -11z m341 8 c3 -5 1 -10 -4 -10 -6 0 -11 5 -11 10 0 6 2 10 4 10 3 0 8 -4
11 -10z m-665 -10 c0 -5 -7 -10 -16 -10 -8 0 -12 5 -9 10 3 6 10 10 16 10 5 0
9 -4 9 -10z m-45 -20 c-3 -5 -14 -10 -23 -10 -15 0 -15 2 -2 10 20 13 33 13
25 0z m755 0 c13 -8 13 -10 -2 -10 -9 0 -20 5 -23 10 -8 13 5 13 25 0z m-390
-14 c0 -3 -4 -8 -10 -11 -5 -3 -10 -1 -10 4 0 6 5 11 10 11 6 0 10 -2 10 -4z
m143 -37 c54 -6 108 -14 120 -19 17 -7 12 -8 -18 -5 -115 13 -266 25 -322 25
-44 0 -62 3 -58 11 7 11 83 8 278 -12z m-497 -4 c-23 -17 -36 -19 -36 -6 0 5
10 12 23 14 12 2 24 5 27 5 3 1 -4 -5 -14 -13z m-3836 -20 c0 -2 -7 -5 -15 -9
-9 -3 -15 0 -15 9 0 9 6 12 15 9 8 -4 15 -7 15 -9z m365 -6 c-18 -5 -33 -5
-39 1 -7 7 4 10 30 9 39 -1 39 -1 9 -10z m3765 1 c12 -8 10 -10 -10 -10 -20 0
-13 -7 35 -35 l60 -34 -45 -1 c-36 -1 -41 -3 -25 -11 17 -8 16 -9 -8 -6 -22 4
-25 2 -16 -9 9 -11 8 -14 -3 -14 -20 0 -126 39 -108 40 13 0 13 1 0 11 -11 7
8 9 65 5 62 -4 73 -3 48 5 -18 5 -33 14 -33 19 0 6 -14 10 -31 10 -39 0 -34
22 7 31 43 10 48 10 64 -1z m-875 -10 c-3 -6 1 -13 9 -16 9 -3 16 -11 16 -17
0 -8 -3 -8 -11 0 -6 6 -18 9 -25 6 -17 -6 -18 9 -2 25 15 15 21 16 13 2z m40
0 c-3 -5 -11 -10 -16 -10 -6 0 -7 5 -4 10 3 6 11 10 16 10 6 0 7 -4 4 -10z
m-1438 -6 c-3 -3 -12 -4 -19 -1 -8 3 -5 6 6 6 11 1 17 -2 13 -5z m-1567 -34
c0 -5 -8 -10 -17 -10 -15 0 -16 2 -3 10 19 12 20 12 20 0z m-670 -10 c0 -5 -9
-14 -20 -20 -22 -12 -27 -1 -8 18 14 14 28 16 28 2z m710 0 c0 -5 -2 -10 -4
-10 -3 0 -8 5 -11 10 -3 6 -1 10 4 10 6 0 11 -4 11 -10z m2910 -10 c29 -25 23
-25 -31 0 -38 17 -40 20 -18 20 14 0 36 -9 49 -20z m-3575 0 c-3 -5 -11 -10
-16 -10 -6 0 -7 5 -4 10 3 6 11 10 16 10 6 0 7 -4 4 -10z m1632 -6 c-3 -3 -12
-4 -19 -1 -8 3 -5 6 6 6 11 1 17 -2 13 -5z m1433 -4 c0 -5 -4 -10 -10 -10 -5
0 -10 5 -10 10 0 6 5 10 10 10 6 0 10 -4 10 -10z m340 0 c-20 -13 -40 -13 -40
0 0 6 12 10 28 10 21 0 24 -2 12 -10z m-1700 -10 c13 -8 13 -10 -2 -10 -9 0
-20 5 -23 10 -8 13 5 13 25 0z m1831 -26 c12 -16 12 -17 -4 -11 -23 9 -45 -2
-27 -13 8 -5 7 -9 -4 -13 -10 -4 -16 -1 -16 9 0 10 -7 14 -17 12 -10 -2 -17
-10 -15 -16 3 -15 3 -15 -41 7 -27 14 -33 20 -21 25 8 3 12 10 9 16 -8 12 1
13 43 1 26 -8 34 -7 39 4 6 17 31 7 54 -21z m-1786 6 c3 -5 2 -10 -4 -10 -5 0
-13 5 -16 10 -3 6 -2 10 4 10 5 0 13 -4 16 -10z m2565 0 c0 -5 -2 -10 -4 -10
-3 0 -8 5 -11 10 -3 6 -1 10 4 10 6 0 11 -4 11 -10z m-4540 -4 c0 -3 -4 -8
-10 -11 -5 -3 -10 -1 -10 4 0 6 5 11 10 11 6 0 10 -2 10 -4z m100 -27 c0 -10
-4 -19 -9 -19 -10 0 -21 36 -14 44 10 10 23 -5 23 -25z m200 25 c0 -3 -10 -20
-22 -37 -13 -17 -28 -43 -35 -57 -6 -14 -12 -19 -12 -10 -2 23 43 109 57 110
6 0 12 -3 12 -6z m2255 -4 c3 -5 2 -10 -4 -10 -5 0 -13 5 -16 10 -3 6 -2 10 4
10 5 0 13 -4 16 -10z m2055 0 c11 -7 7 -10 -17 -10 -17 0 -35 5 -38 10 -8 13
35 13 55 0z m-4570 -30 c0 -5 -2 -10 -4 -10 -3 0 -8 5 -11 10 -3 6 -1 10 4 10
6 0 11 -4 11 -10z m877 -22 c-3 -8 -6 -5 -6 6 -1 11 2 17 5 13 3 -3 4 -12 1
-19z m4773 2 c-8 -5 -19 -10 -25 -10 -5 0 -3 5 5 10 8 5 20 10 25 10 6 0 3 -5
-5 -10z m-5588 -43 c-18 -17 -22 -18 -16 -4 3 10 1 17 -5 17 -18 0 -13 18 7
23 30 7 38 -12 14 -36z m3609 30 c-6 -8 -8 -17 -4 -20 3 -4 2 -7 -4 -7 -17 0
-23 13 -12 27 6 7 16 13 21 13 7 0 6 -5 -1 -13z m-3423 -32 c-3 -3 -9 2 -12
12 -6 14 -5 15 5 6 7 -7 10 -15 7 -18z m102 11 c0 -3 -4 -8 -10 -11 -5 -3 -10
-1 -10 4 0 6 5 11 10 11 6 0 10 -2 10 -4z m2920 -6 c0 -5 -2 -10 -4 -10 -3 0
-8 5 -11 10 -3 6 -1 10 4 10 6 0 11 -4 11 -10z m-2820 -10 c0 -5 -4 -10 -10
-10 -5 0 -10 5 -10 10 0 6 5 10 10 10 6 0 10 -4 10 -10z m820 0 c0 -5 -7 -10
-15 -10 -8 0 -15 5 -15 10 0 6 7 10 15 10 8 0 15 -4 15 -10z m-870 -20 c0 -5
8 -7 18 -4 14 5 14 4 2 -4 -9 -7 -19 -7 -26 -2 -6 6 -15 6 -19 2 -5 -4 -5 -1
-1 6 8 14 26 16 26 2z m3220 -36 c0 -13 -4 -24 -10 -24 -5 0 -7 8 -3 18 5 14
3 13 -10 -3 -16 -20 -16 -20 -17 2 0 12 3 29 6 37 9 23 34 1 34 -30z m70 22
c0 -3 -4 -8 -10 -11 -5 -3 -10 -1 -10 4 0 6 5 11 10 11 6 0 10 -2 10 -4z
m-3230 -21 c0 -8 -2 -15 -4 -15 -2 0 -6 7 -10 15 -3 8 -1 15 4 15 6 0 10 -7
10 -15z m1240 1 c0 -3 -4 -8 -10 -11 -5 -3 -10 -1 -10 4 0 6 5 11 10 11 6 0
10 -2 10 -4z m-1558 -31 c-2 -14 -8 -25 -12 -25 -4 0 -5 11 -2 25 2 14 8 25
12 25 4 0 5 -11 2 -25z m429 -18 c-8 -8 -11 -8 -11 1 0 7 -9 12 -19 12 -31 0
-34 18 -4 22 31 3 51 -18 34 -35z m646 37 c-3 -3 -12 -4 -19 -1 -8 3 -5 6 6 6
11 1 17 -2 13 -5z m443 -4 c0 -5 -2 -10 -4 -10 -3 0 -8 5 -11 10 -3 6 -1 10 4
10 6 0 11 -4 11 -10z m-1050 -10 c0 -5 -5 -10 -11 -10 -5 0 -7 5 -4 10 3 6 8
10 11 10 2 0 4 -4 4 -10z m60 6 c0 -3 -4 -8 -10 -11 -5 -3 -10 -1 -10 4 0 6 5
11 10 11 6 0 10 -2 10 -4z m-400 -26 c0 -5 -2 -10 -4 -10 -3 0 -8 5 -11 10 -3
6 -1 10 4 10 6 0 11 -4 11 -10z m433 -4 c4 -10 1 -13 -9 -9 -7 3 -14 9 -14 14
0 14 17 10 23 -5z m981 -11 c-4 -8 -10 -15 -15 -15 -4 0 -6 7 -3 15 4 8 10 15
15 15 4 0 6 -7 3 -15z m3256 -6 c0 -6 -4 -7 -10 -4 -5 3 -10 11 -10 16 0 6 5
7 10 4 6 -3 10 -11 10 -16z m-4858 -11 c-7 -7 -12 -8 -12 -2 0 6 3 14 7 17 3
4 9 5 12 2 2 -3 -1 -11 -7 -17z m388 12 c0 -5 -4 -10 -10 -10 -5 0 -10 5 -10
10 0 6 5 10 10 10 6 0 10 -4 10 -10z m1273 -22 c-8 -14 -19 -8 -20 12 -1 16 1
17 12 7 7 -6 11 -15 8 -19z m-2048 12 c-3 -5 -11 -10 -16 -10 -6 0 -7 5 -4 10
3 6 11 10 16 10 6 0 7 -4 4 -10z m585 -5 c0 -8 -4 -15 -10 -15 -5 0 -7 7 -4
15 4 8 8 15 10 15 2 0 4 -7 4 -15z m1190 -5 c-24 -15 -36 -11 -14 4 10 8 21
12 24 10 2 -3 -2 -9 -10 -14z m2175 10 c3 -5 1 -10 -4 -10 -6 0 -11 5 -11 10
0 6 2 10 4 10 3 0 8 -4 11 -10z m-3668 -6 c-3 -3 -12 -4 -19 -1 -8 3 -5 6 6 6
11 1 17 -2 13 -5z m68 -14 c-6 -10 -45 -1 -45 10 0 4 11 5 25 2 14 -2 23 -8
20 -12z m655 10 c0 -5 -5 -10 -11 -10 -5 0 -7 5 -4 10 3 6 8 10 11 10 2 0 4
-4 4 -10z m-483 -67 c-3 -3 -13 1 -21 10 -8 8 -12 17 -9 20 3 3 12 -1 20 -9 9
-8 13 -18 10 -21z m1263 27 c0 -5 -7 -10 -16 -10 -8 0 -12 5 -9 10 3 6 10 10
16 10 5 0 9 -4 9 -10z m1255 -30 c4 -6 -8 -10 -30 -10 -22 0 -34 4 -30 10 3 6
17 10 30 10 13 0 27 -4 30 -10z m-2545 -14 c0 -19 -30 -25 -60 -13 -22 9 -23
11 -6 15 10 2 22 -2 27 -9 6 -11 9 -10 15 4 7 20 24 23 24 3z m-270 -15 c0 -5
-7 -11 -15 -15 -8 -3 -15 -12 -15 -19 0 -16 -28 -43 -36 -35 -3 3 2 22 10 42
10 25 21 36 35 36 12 0 21 -4 21 -9z m76 -12 c3 -6 2 -15 -4 -21 -6 -6 -11 -2
-15 11 -5 22 7 29 19 10z m472 -18 c3 -8 0 -11 -7 -7 -6 4 -11 1 -11 -7 0 -15
-29 -32 -38 -22 -3 3 2 13 11 23 10 10 14 22 10 26 -5 5 1 7 11 5 11 -2 21
-10 24 -18z m-350 -16 c-3 -3 -9 2 -12 12 -6 14 -5 15 5 6 7 -7 10 -15 7 -18z
m36 4 c-6 -11 -24 -2 -24 11 0 5 7 7 15 4 8 -4 12 -10 9 -15z m176 11 c0 -5
-2 -10 -4 -10 -3 0 -8 5 -11 10 -3 6 -1 10 4 10 6 0 11 -4 11 -10z m3057 -6
c-3 -3 -12 -4 -19 -1 -8 3 -5 6 6 6 11 1 17 -2 13 -5z m-3412 -24 c-28 -12
-37 -12 -30 0 3 6 16 10 28 9 21 0 21 -1 2 -9z m1869 -6 c3 -8 2 -12 -4 -9 -6
3 -10 10 -10 16 0 14 7 11 14 -7z m-1694 2 c0 -3 -4 -8 -10 -11 -5 -3 -10 -1
-10 4 0 6 5 11 10 11 6 0 10 -2 10 -4z m3902 -8 c12 -7 28 -19 36 -26 9 -8 27
-10 51 -6 45 7 65 -11 36 -32 -29 -21 -1 -47 45 -41 19 2 44 1 55 -3 11 -4 39
-2 61 5 48 14 83 3 38 -12 l-29 -10 28 -5 c15 -3 27 -1 27 3 0 14 20 10 37 -7
14 -14 13 -15 -12 -12 -17 2 -30 -2 -33 -11 -3 -8 0 -11 6 -7 6 3 14 1 18 -5
5 -8 -6 -9 -37 -4 -31 5 -41 4 -34 -4 6 -5 30 -12 55 -15 82 -7 120 -18 120
-32 0 -17 -24 -18 -51 -3 -11 5 -37 9 -57 7 l-37 -3 36 -22 c35 -22 64 -65 52
-77 -4 -3 -15 -6 -25 -6 -10 0 -18 -5 -18 -11 0 -6 -9 -8 -21 -4 -15 5 -19 4
-14 -5 4 -7 19 -10 35 -6 19 3 30 1 34 -9 4 -11 -2 -15 -24 -15 -17 0 -30 -5
-30 -11 0 -6 -9 -8 -20 -4 -21 7 -29 -10 -7 -18 6 -2 9 -8 5 -12 -4 -4 -18 5
-32 20 -15 16 -26 23 -26 18 0 -6 -11 -8 -24 -6 -13 3 -34 0 -46 -7 -17 -9
-26 -8 -47 5 -13 9 -27 15 -29 12 -10 -9 42 -41 211 -127 99 -51 191 -100 205
-109 42 -27 63 -40 102 -61 46 -25 128 -80 128 -86 0 -5 -39 16 -85 46 -16 11
-37 23 -45 27 -8 3 -46 25 -85 49 -38 23 -101 57 -140 76 -38 19 -79 39 -90
45 -17 10 -145 66 -182 80 -25 10 -13 -14 13 -25 14 -7 23 -16 20 -21 -4 -5 0
-11 6 -14 7 -2 10 -7 7 -11 -4 -4 -13 -1 -20 6 -8 8 -31 22 -53 32 -32 15 -40
16 -48 5 -7 -11 -11 -11 -15 -1 -2 6 -9 10 -14 6 -15 -9 -10 -22 13 -29 11 -4
31 -17 42 -30 12 -12 38 -34 59 -48 21 -14 55 -40 75 -57 20 -17 60 -47 88
-68 118 -85 202 -154 249 -204 28 -29 34 -39 15 -22 -52 46 -280 226 -315 248
-16 11 -36 25 -42 32 -12 11 -124 90 -176 123 -21 13 -21 12 -3 -3 11 -9 16
-19 12 -23 -4 -5 -16 3 -27 16 -10 13 -19 18 -19 11 0 -10 -3 -10 -15 0 -8 7
-15 18 -15 25 0 14 -48 49 -67 50 -12 0 -31 16 -80 68 -14 15 -33 27 -41 27
-8 0 -31 14 -52 30 -21 17 -43 30 -49 30 -6 0 -11 3 -11 8 0 4 -11 7 -23 7
-21 0 -24 -4 -22 -38 3 -44 14 -59 47 -62 38 -4 39 -5 32 -17 -5 -8 -2 -9 11
-4 13 5 28 -4 55 -31 20 -21 36 -40 36 -43 -1 -12 34 -53 40 -47 4 4 -1 17
-12 29 l-19 22 30 -18 c48 -31 256 -242 252 -257 -2 -8 -2 -10 1 -6 2 5 27
-13 54 -40 30 -29 46 -40 42 -28 l-7 20 16 -20 c9 -11 17 -24 17 -29 0 -4 22
-34 49 -65 62 -72 203 -258 225 -296 10 -17 33 -52 52 -80 19 -27 34 -54 34
-60 0 -5 -28 33 -63 85 -57 88 -152 218 -168 230 -3 3 -29 32 -56 65 -68 82
-207 225 -158 163 20 -26 39 -48 43 -50 6 -3 79 -88 158 -185 14 -18 21 -33
16 -33 -6 0 -21 15 -34 32 -12 18 -61 76 -108 129 -47 53 -105 120 -130 149
-58 69 -91 99 -113 106 -11 3 -16 12 -13 20 3 7 1 16 -4 19 -6 4 -10 -1 -10
-10 0 -11 -9 -7 -29 16 -16 17 -34 29 -39 25 -6 -3 -12 -3 -14 2 -6 15 -73 57
-85 54 -12 -3 -17 10 -14 31 0 4 -7 7 -18 7 -10 0 -24 7 -31 15 -7 8 -15 13
-19 10 -4 -2 -15 10 -25 26 -14 24 -20 28 -32 18 -10 -8 -14 -8 -14 0 0 21
-43 11 -66 -16 -19 -22 -22 -35 -17 -65 5 -32 3 -38 -12 -38 -13 0 -15 6 -10
31 5 22 4 29 -4 25 -7 -5 -12 2 -13 16 -2 37 -3 42 -16 65 -14 26 -16 73 -2
73 5 0 13 -15 18 -32 4 -18 11 -32 15 -30 4 1 14 2 22 2 24 0 19 47 -6 61 -15
7 -18 14 -10 18 19 12 6 55 -22 69 -14 7 -29 22 -32 33 -5 13 -12 18 -25 14
-20 -6 -33 15 -21 34 10 16 71 18 80 2 4 -6 15 -9 24 -5 12 4 17 1 17 -10 0
-9 5 -16 10 -16 6 0 10 6 10 14 0 21 20 30 33 17 6 -6 18 -11 27 -11 9 0 27
-10 39 -21 18 -17 25 -19 31 -9 6 10 11 8 21 -9 8 -11 19 -21 25 -21 12 0 29
-28 26 -42 -1 -4 8 -10 21 -14 12 -4 34 -15 50 -26 15 -11 27 -16 27 -11 0 4
6 0 14 -9 14 -19 115 -72 122 -65 3 3 -12 13 -32 23 -46 23 -61 50 -18 34 15
-6 29 -8 32 -5 3 3 1 5 -4 5 -5 0 -10 9 -10 20 0 11 6 20 13 20 7 0 13 -6 13
-13 0 -15 26 -38 63 -54 36 -17 48 -16 41 1 -3 8 -12 12 -20 9 -8 -3 -14 -2
-12 3 5 18 -37 54 -69 60 -35 7 -53 28 -53 65 0 17 -3 19 -14 10 -10 -8 -16
-9 -21 -1 -10 16 5 32 26 27 11 -3 19 -1 19 4 0 5 -3 9 -7 9 -5 0 -17 7 -28
16 -19 14 -19 15 10 39 17 13 24 24 17 25 -9 0 -10 5 -3 18 5 10 6 24 1 33
-12 21 -1 59 16 59 8 0 24 -6 36 -12z m-3842 -28 c0 -5 -4 -10 -10 -10 -5 0
-10 5 -10 10 0 6 5 10 10 10 6 0 10 -4 10 -10z m1674 1 c3 -5 -5 -11 -19 -13
-28 -6 -35 8 -7 15 9 3 18 5 19 6 1 0 4 -3 7 -8z m116 -6 c0 -8 -7 -15 -15
-15 -26 0 -18 20 13 29 1 1 2 -6 2 -14z m1193 8 c-7 -2 -19 -2 -25 0 -7 3 -2
5 12 5 14 0 19 -2 13 -5z m1087 -3 c0 -5 -9 -10 -21 -10 -11 0 -17 5 -14 10 3
6 13 10 21 10 8 0 14 -4 14 -10z m-1345 -46 c-25 -10 -31 -10 -38 2 -14 24 1
34 36 22 l32 -12 -30 -12z m1412 30 c-3 -3 -12 -4 -19 -1 -8 3 -5 6 6 6 11 1
17 -2 13 -5z m-4174 -11 c-7 -2 -19 -2 -25 0 -7 3 -2 5 12 5 14 0 19 -2 13 -5z
m1227 -13 c10 -19 10 -20 -9 -8 -22 13 -28 28 -11 28 5 0 14 -9 20 -20z m1480
10 c0 -5 -8 -10 -17 -10 -15 0 -16 2 -3 10 19 12 20 12 20 0z m115 0 c3 -5 -1
-10 -10 -10 -9 0 -13 5 -10 10 3 6 8 10 10 10 2 0 7 -4 10 -10z m-2700 -10 c3
-5 1 -10 -4 -10 -6 0 -11 5 -11 10 0 6 2 10 4 10 3 0 8 -4 11 -10z m1580 0
c-3 -5 -13 -10 -21 -10 -8 0 -12 5 -9 10 3 6 13 10 21 10 8 0 12 -4 9 -10z
m2355 -10 c0 -5 -6 -10 -14 -10 -8 0 -18 5 -21 10 -3 6 3 10 14 10 12 0 21 -4
21 -10z m-1105 -20 c-3 -5 -10 -10 -16 -10 -5 0 -9 5 -9 10 0 6 7 10 16 10 8
0 12 -4 9 -10z m69 -19 c-2 -3 -12 3 -22 13 -16 17 -16 18 5 5 12 -7 20 -15
17 -18z m1461 19 c-3 -5 -21 -10 -38 -11 -30 -1 -30 -1 -7 -8 18 -5 21 -8 10
-12 -8 -3 -31 0 -50 7 -19 7 -30 14 -25 14 6 1 20 3 32 4 13 2 26 6 30 9 10
11 55 8 48 -3z m-130 -10 c4 -6 -5 -10 -19 -10 -14 0 -26 5 -26 10 0 6 9 10
19 10 11 0 23 -4 26 -10z m-4330 -9 c3 -5 1 -12 -5 -16 -5 -3 -10 1 -10 9 0
18 6 21 15 7z m1853 0 c10 -6 9 -10 -7 -14 -14 -3 -21 0 -21 9 0 16 9 18 28 5z
m1087 -11 c-3 -5 -11 -10 -16 -10 -6 0 -7 5 -4 10 3 6 11 10 16 10 6 0 7 -4 4
-10z m-996 -16 c2 -2 -12 -4 -33 -4 -22 0 -35 4 -31 10 5 9 52 4 64 -6z m2311
-34 c0 -5 -5 -10 -11 -10 -5 0 -7 5 -4 10 3 6 8 10 11 10 2 0 4 -4 4 -10z
m102 -2 c-8 -8 -20 -8 -44 -1 l-33 11 45 1 c33 1 41 -2 32 -11z m-3195 -40
c-3 -7 -5 -2 -5 12 0 14 2 19 5 13 2 -7 2 -19 0 -25z m818 22 c3 -5 1 -10 -4
-10 -6 0 -11 5 -11 10 0 6 2 10 4 10 3 0 8 -4 11 -10z m2422 4 c-3 -3 -12 -4
-19 -1 -8 3 -5 6 6 6 11 1 17 -2 13 -5z m-2540 -20 c-3 -3 -12 -4 -19 -1 -8 3
-5 6 6 6 11 1 17 -2 13 -5z m853 -4 c0 -5 13 -7 30 -3 19 3 30 1 30 -6 0 -15
17 -14 23 2 2 6 2 1 -1 -13 -3 -14 -6 -35 -6 -47 -1 -13 -4 -23 -8 -23 -4 0
-4 -17 -1 -37 5 -36 5 -37 -11 -18 -13 17 -17 18 -26 5 -5 -8 -10 -12 -11 -7
-1 4 -3 12 -4 17 -1 6 -3 14 -4 19 0 6 -9 8 -20 6 -25 -5 -45 38 -31 65 7 13
7 21 0 25 -6 4 -8 11 -5 16 8 12 45 12 45 -1z m580 -45 c0 -25 -4 -45 -10 -45
-5 0 -10 -8 -11 -17 0 -15 -2 -15 -9 2 -11 27 -12 37 -1 31 5 -3 11 6 14 19 2
14 0 28 -4 31 -14 8 -10 24 6 24 11 0 15 -12 15 -45z m961 17 c-7 -2 -18 1
-23 6 -8 8 -4 9 13 5 13 -4 18 -8 10 -11z m-913 -17 c-3 -3 -9 2 -12 12 -6 14
-5 15 5 6 7 -7 10 -15 7 -18z m-1233 4 c4 -6 5 -12 3 -14 -7 -7 -48 7 -48 16
0 13 37 11 45 -2z m1255 -35 c0 -8 -5 -12 -10 -9 -6 4 -8 11 -5 16 9 14 15 11
15 -7z m-460 -14 c0 -5 -7 -10 -15 -10 -8 0 -15 5 -15 10 0 6 7 10 15 10 8 0
15 -4 15 -10z m1395 0 c3 -5 1 -10 -4 -10 -6 0 -11 5 -11 10 0 6 2 10 4 10 3
0 8 -4 11 -10z m-480 -10 c3 -5 1 -10 -4 -10 -6 0 -11 5 -11 10 0 6 2 10 4 10
3 0 8 -4 11 -10z m-910 -61 c4 -21 12 -42 18 -46 6 -4 8 0 4 10 -3 10 -2 17 3
17 13 0 13 -27 0 -35 -5 -3 -10 -19 -10 -35 0 -26 -2 -28 -22 -21 -13 4 -27
17 -33 29 -5 11 -20 26 -32 33 -16 8 -23 21 -23 41 0 30 9 35 27 17 9 -9 13
-6 18 13 10 40 42 25 50 -23z m411 24 c-4 -4 -12 -1 -19 7 -9 10 -9 11 1 6 7
-4 12 -2 13 6 0 11 2 11 6 0 3 -7 2 -16 -1 -19z m-1316 7 c0 -5 -5 -10 -11
-10 -5 0 -7 5 -4 10 3 6 8 10 11 10 2 0 4 -4 4 -10z m2114 -66 c4 -10 1 -14
-6 -12 -15 5 -23 28 -10 28 5 0 13 -7 16 -16z m-384 -41 c85 -57 190 -155 244
-226 15 -19 -19 9 -75 64 -56 54 -125 115 -153 134 -69 47 -86 61 -86 70 0 4
10 0 23 -9 12 -9 33 -24 47 -33z m-3837 25 c-27 -13 -37 -36 -22 -54 9 -11 8
-14 -4 -14 -8 0 -25 -15 -36 -34 -17 -27 -26 -32 -46 -28 -16 3 -25 11 -25 23
0 23 -23 25 -44 4 -8 -8 -20 -15 -26 -15 -6 0 -13 -7 -16 -15 -4 -8 -12 -15
-20 -15 -8 0 -14 -7 -14 -15 0 -8 -4 -15 -8 -15 -16 0 -102 -90 -102 -106 0
-17 -23 -44 -39 -44 -12 0 -18 -35 -26 -153 -6 -84 -20 -146 -36 -157 -4 -3
-4 -22 0 -42 8 -36 8 -37 -23 -40 -25 -2 -32 -8 -34 -31 -2 -15 -9 -27 -16
-27 -7 0 -30 -16 -52 -35 -48 -43 -78 -43 -82 0 -6 49 -19 50 -34 3 l-15 -43
-61 -7 c-33 -4 -71 -12 -83 -18 -12 -7 -46 -14 -77 -16 -30 -2 -71 -8 -90 -14
-24 -6 -40 -6 -48 1 -15 12 -90 3 -100 -12 -7 -12 -34 -12 -34 1 0 6 9 10 20
10 11 0 20 7 20 15 0 8 -7 15 -15 15 -8 0 -12 6 -9 14 3 8 1 17 -5 21 -6 3
-11 16 -11 29 0 18 9 26 40 36 23 8 39 19 36 25 -2 6 1 12 7 12 15 1 91 36
137 64 51 31 106 90 114 122 5 19 12 27 21 23 17 -6 24 4 27 38 3 28 25 43 42
26 17 -17 25 -11 32 28 4 20 11 42 16 49 5 7 7 16 5 20 -6 9 107 122 183 185
25 20 59 48 76 62 18 14 37 26 42 26 6 0 19 11 30 25 19 24 40 36 27 16 -5
-10 12 -6 80 18 72 25 155 40 219 40 38 0 71 3 74 6 3 3 10 5 16 4 6 0 1 -5
-11 -11z m-333 -33 c-7 -8 -17 -15 -22 -15 -6 0 -5 7 2 15 7 8 17 15 22 15 6
0 5 -7 -2 -15z m2365 5 c3 -6 0 -17 -9 -25 -9 -9 -17 -11 -21 -5 -3 5 -1 10 5
10 7 0 10 7 6 15 -6 17 9 21 19 5z m1102 -12 c-3 -8 -6 -5 -6 6 -1 11 2 17 5
13 3 -3 4 -12 1 -19z m488 -29 c9 -16 14 -33 11 -38 -3 -4 3 -17 14 -28 10
-12 16 -23 13 -26 -3 -3 -21 10 -39 30 -23 24 -31 40 -25 47 6 7 6 17 1 26 -6
8 -10 19 -10 23 0 15 20 -4 35 -34z m-45 11 c8 -16 8 -20 -3 -20 -18 0 -39 24
-30 33 11 12 22 8 33 -13z m-459 -27 c-12 -20 -14 -14 -5 12 4 9 9 14 11 11 3
-2 0 -13 -6 -23z m-4631 13 c0 -3 -4 -8 -10 -11 -5 -3 -10 -1 -10 4 0 6 5 11
10 11 6 0 10 -2 10 -4z m286 -11 c-8 -8 -18 -15 -22 -15 -3 0 -1 7 6 15 7 8
17 15 22 15 5 0 3 -7 -6 -15z m5404 0 c11 -13 10 -14 -4 -9 -9 3 -16 10 -16
15 0 13 6 11 20 -6z m-5360 1 c0 -3 -4 -8 -10 -11 -5 -3 -10 -1 -10 4 0 6 5
11 10 11 6 0 10 -2 10 -4z m4870 -17 c0 -5 15 -26 34 -46 62 -69 178 -244 172
-259 -3 -8 -1 -12 4 -9 9 6 35 -31 98 -140 96 -166 151 -267 157 -288 3 -12
-14 14 -38 58 -84 150 -207 341 -152 235 32 -62 13 -42 -28 30 -24 41 -62 103
-85 138 -23 35 -42 67 -42 71 0 7 -59 101 -70 111 -15 14 -50 71 -50 81 0 6
-6 9 -13 6 -7 -3 -13 3 -14 14 -1 12 3 16 13 12 8 -3 14 -9 14 -14z m-4795
-18 c-6 -5 -25 10 -25 20 0 5 6 4 14 -3 8 -7 12 -15 11 -17z m4568 4 c-7 -21
-13 -19 -13 6 0 11 4 18 10 14 5 -3 7 -12 3 -20z m-4733 -15 c0 -5 -2 -10 -4
-10 -3 0 -8 5 -11 10 -3 6 -1 10 4 10 6 0 11 -4 11 -10z m50 0 c0 -5 -4 -10
-10 -10 -5 0 -10 5 -10 10 0 6 5 10 10 10 6 0 10 -4 10 -10z m-380 -20 c0 -5
-8 -10 -17 -10 -15 0 -16 2 -3 10 19 12 20 12 20 0z m3624 -16 c9 -24 2 -26
-12 -4 -7 11 -8 20 -3 20 5 0 12 -7 15 -16z m-3544 -3 c0 -6 -4 -13 -10 -16
-5 -3 -10 1 -10 9 0 9 5 16 10 16 6 0 10 -4 10 -9z m1680 -5 c0 -8 -4 -18 -10
-21 -16 -10 -11 -25 6 -18 14 5 14 3 3 -15 -7 -11 -16 -19 -20 -16 -19 11 -18
-20 0 -50 24 -38 19 -49 -16 -35 -20 7 -30 6 -43 -6 -9 -8 -19 -15 -23 -15
-11 0 16 62 49 114 19 28 34 56 34 63 0 7 5 13 10 13 6 0 10 -6 10 -14z
m-1403 -12 c-3 -3 -12 -4 -19 -1 -8 3 -5 6 6 6 11 1 17 -2 13 -5z m1568 -4
c10 -16 -16 -43 -28 -31 -11 11 -2 41 12 41 5 0 13 -5 16 -10z m65 -14 c0 -8
3 -22 6 -30 10 -27 -20 -9 -33 19 -10 22 -9 25 8 25 10 0 19 -6 19 -14z m3305
-231 c14 -41 25 -83 24 -93 0 -9 -9 8 -18 38 -10 30 -28 80 -40 110 -13 30
-27 64 -31 75 -4 11 -13 33 -19 48 -6 15 -11 33 -11 40 1 18 66 -132 95 -218z
m-3481 167 c-9 -33 -34 -28 -30 6 2 15 4 31 5 37 0 5 8 3 16 -5 8 -9 12 -24 9
-38z m66 38 c0 -5 8 -10 17 -10 15 0 15 -2 -2 -14 -18 -13 -18 -15 -2 -40 13
-20 15 -31 7 -45 -16 -31 -12 -41 25 -57 19 -8 35 -18 35 -22 0 -4 -26 -13
-57 -21 -50 -11 -58 -11 -68 3 -9 12 -24 14 -67 9 -45 -4 -56 -3 -61 11 -4 10
-1 16 7 16 7 0 19 11 26 25 7 13 26 29 42 34 15 6 31 18 34 28 17 53 39 93 51
93 7 0 13 -4 13 -10z m80 -29 c0 -20 -25 -35 -41 -25 -5 3 1 14 13 24 29 24
28 24 28 1z m3233 -21 c3 -11 1 -18 -4 -14 -5 3 -9 12 -9 20 0 20 7 17 13 -6z
m334 -102 c75 -117 95 -148 109 -173 6 -11 36 -66 67 -122 32 -56 57 -105 57
-109 0 -8 -54 78 -93 150 -12 21 -26 46 -32 55 -5 9 -28 45 -49 81 -22 36 -59
93 -83 127 -38 56 -51 83 -39 83 2 0 30 -42 63 -92z m-144 -54 c46 -89 49
-111 3 -29 -18 33 -45 80 -59 105 -15 25 -27 49 -27 54 0 14 42 -52 83 -130z
m368 94 c15 -28 5 -21 -21 15 -15 20 -17 27 -6 18 9 -8 22 -23 27 -33z m-3540
-1 c-1 -12 -15 -9 -19 4 -3 6 1 10 8 8 6 -3 11 -8 11 -12z m3215 -84 c26 -43
54 -86 62 -96 8 -9 13 -20 10 -23 -3 -3 -16 12 -29 33 -13 21 -30 46 -39 55
-21 24 -75 122 -62 115 5 -4 31 -42 58 -84z m208 40 c56 -61 200 -237 219
-270 21 -34 -7 -6 -60 60 -31 39 -65 78 -75 85 -10 7 -18 17 -18 22 0 12 -27
45 -58 74 -26 23 -66 76 -58 76 3 0 25 -21 50 -47z m731 29 c-3 -3 -11 0 -18
7 -9 10 -8 11 6 5 10 -3 15 -9 12 -12z m-4367 -17 c-3 -3 -9 2 -12 12 -6 14
-5 15 5 6 7 -7 10 -15 7 -18z m3216 -20 c5 -22 4 -26 -4 -15 -5 8 -10 24 -10
34 0 26 6 18 14 -19z m-69 -25 c3 -5 1 -10 -4 -10 -6 0 -11 5 -11 10 0 6 2 10
4 10 3 0 8 -4 11 -10z m304 -155 c0 -5 -6 -1 -14 9 -8 11 -15 24 -15 30 0 5 7
1 15 -10 8 -10 14 -23 14 -29z m776 17 c-3 -3 -11 0 -18 7 -9 10 -8 11 6 5 10
-3 15 -9 12 -12z m-872 -69 c26 -82 54 -259 43 -270 -3 -3 -6 5 -6 20 0 42
-25 156 -56 255 -14 43 -18 72 -9 72 2 0 15 -35 28 -77z m190 14 c28 -53 38
-77 31 -77 -2 0 -9 10 -14 23 -6 12 -22 42 -36 66 -14 24 -21 40 -15 36 6 -3
21 -25 34 -48z m-73 -12 c0 -5 -5 -3 -10 5 -5 8 -10 20 -10 25 0 6 5 3 10 -5
5 -8 10 -19 10 -25z m130 4 c0 -6 -4 -7 -10 -4 -5 3 -10 11 -10 16 0 6 5 7 10
4 6 -3 10 -11 10 -16z m29 -74 c0 -5 -6 1 -14 15 -8 14 -14 30 -14 35 0 6 6
-1 14 -15 8 -14 14 -29 14 -35z m322 28 c13 -16 12 -17 -3 -4 -17 13 -22 21
-14 21 2 0 10 -8 17 -17z m397 -8 c-3 -3 -9 2 -12 12 -6 14 -5 15 5 6 7 -7 10
-15 7 -18z m-848 -20 c0 -5 -5 -3 -10 5 -5 8 -10 20 -10 25 0 6 5 3 10 -5 5
-8 10 -19 10 -25z m391 -17 c8 -15 8 -18 0 -14 -6 4 -16 16 -22 28 -8 15 -8
18 0 14 6 -4 16 -16 22 -28z m94 -4 c9 -15 12 -23 6 -20 -11 7 -35 46 -28 46
3 0 12 -12 22 -26z m-375 -24 c11 -22 19 -40 16 -40 -4 0 -46 68 -46 76 0 13
12 -1 30 -36z m-1323 -12 c-3 -8 -6 -5 -6 6 -1 11 2 17 5 13 3 -3 4 -12 1 -19z
m1797 -105 c14 -24 24 -43 22 -43 -5 0 -86 120 -86 127 0 8 34 -37 64 -84z
m-404 32 c0 -5 -5 -3 -10 5 -5 8 -10 20 -10 25 0 6 5 3 10 -5 5 -8 10 -19 10
-25z m110 -23 c0 -7 14 -40 31 -73 17 -34 29 -63 26 -65 -4 -5 -72 132 -82
166 -7 24 -7 24 9 5 8 -11 16 -26 16 -33z m-93 -62 c7 -19 12 -42 12 -50 0 -8
-8 5 -17 30 -9 25 -25 59 -35 77 -9 18 -17 36 -17 40 0 14 44 -60 57 -97z
m-5367 60 c0 -5 -4 -10 -10 -10 -5 0 -10 5 -10 10 0 6 5 10 10 10 6 0 10 -4
10 -10z m5494 -150 c25 -59 42 -108 33 -100 -5 5 -86 194 -93 220 -7 21 31
-54 60 -120z m-1464 82 c29 -12 32 -16 15 -20 -11 -2 -25 -8 -30 -12 -6 -5
-27 5 -50 25 l-40 35 35 -7 c19 -3 51 -13 70 -21z m2251 11 c13 -16 12 -17 -3
-4 -17 13 -22 21 -14 21 2 0 10 -8 17 -17z m-4001 -13 c0 -5 -4 -10 -10 -10
-5 0 -10 5 -10 10 0 6 5 10 10 10 6 0 10 -4 10 -10z m3529 -24 c-3 -3 -11 5
-18 17 -13 21 -12 21 5 5 10 -10 16 -20 13 -22z m-732 -23 c-3 -10 -5 -2 -5
17 0 19 2 27 5 18 2 -10 2 -26 0 -35z m766 4 c3 -8 -1 -14 -8 -14 -7 0 -11 6
-8 14 3 7 6 13 8 13 2 0 5 -6 8 -13z m-1713 -18 c0 -13 -34 -11 -54 4 -16 12
-14 13 18 9 20 -2 36 -8 36 -13z m-2950 -15 c0 -8 -5 -12 -10 -9 -6 4 -8 11
-5 16 9 14 15 11 15 -7z m4220 -17 c0 -5 -4 -5 -10 -2 -5 3 -10 14 -10 23 0
15 2 15 10 2 5 -8 10 -19 10 -23z m-1430 -9 c0 -13 -23 -5 -28 10 -2 7 2 10
12 6 9 -3 16 -11 16 -16z m17 -10 c-3 -8 -6 -5 -6 6 -1 11 2 17 5 13 3 -3 4
-12 1 -19z m1567 -28 l7 -25 -15 25 c-9 14 -15 32 -15 40 0 13 1 13 8 0 5 -8
12 -26 15 -40z m-1519 0 c3 -5 -3 -10 -14 -10 -12 0 -21 5 -21 10 0 6 6 10 14
10 8 0 18 -4 21 -10z m310 0 c-28 -12 -45 -12 -45 0 0 6 15 10 33 9 27 0 29
-2 12 -9z"/>
<path d="M6080 2500 c0 -5 5 -10 10 -10 6 0 10 5 10 10 0 6 -4 10 -10 10 -5 0
-10 -4 -10 -10z"/>
<path d="M5976 1412 c-5 -9 -3 -20 7 -29 10 -10 17 -11 21 -4 4 6 3 11 -3 11
-5 0 -11 8 -13 18 -3 13 -5 14 -12 4z"/>
<path d="M5910 1400 c0 -5 5 -10 10 -10 6 0 10 5 10 10 0 6 -4 10 -10 10 -5 0
-10 -4 -10 -10z"/>
<path d="M5855 1370 c-8 -13 15 -13 35 0 12 8 11 10 -7 10 -12 0 -25 -4 -28
-10z"/>
<path d="M5938 1343 c7 -3 16 -2 19 1 4 3 -2 6 -13 5 -11 0 -14 -3 -6 -6z"/>
<path d="M5340 1326 c0 -8 5 -18 10 -21 6 -3 10 1 10 9 0 8 -4 18 -10 21 -5 3
-10 -1 -10 -9z"/>
<path d="M5935 1280 c3 -5 8 -10 11 -10 2 0 4 5 4 10 0 6 -5 10 -11 10 -5 0
-7 -4 -4 -10z"/>
<path d="M5959 1226 c6 -8 22 -16 34 -20 21 -5 21 -4 -3 14 -29 23 -48 26 -31
6z"/>
<path d="M5895 1180 c3 -5 8 -10 11 -10 2 0 4 5 4 10 0 6 -5 10 -11 10 -5 0
-7 -4 -4 -10z"/>
<path d="M5930 1180 c0 -5 5 -10 10 -10 6 0 10 5 10 10 0 6 -4 10 -10 10 -5 0
-10 -4 -10 -10z"/>
<path d="M5415 1150 c3 -5 8 -10 11 -10 2 0 4 5 4 10 0 6 -5 10 -11 10 -5 0
-7 -4 -4 -10z"/>
<path d="M5716 1131 c-11 -16 20 -45 40 -36 12 4 14 9 7 12 -7 2 -9 11 -6 19
6 15 -32 21 -41 5z"/>
<path d="M4770 1090 c0 -5 5 -10 11 -10 5 0 7 5 4 10 -3 6 -8 10 -11 10 -2 0
-4 -4 -4 -10z"/>
<path d="M1100 813 c-13 -15 -12 -16 4 -10 10 4 20 7 22 7 2 0 4 5 4 10 0 15
-13 12 -30 -7z"/>
<path d="M1980 758 c0 -4 3 -8 8 -9 4 0 17 -2 30 -5 14 -2 22 1 22 9 0 8 -12
14 -30 14 -16 0 -30 -4 -30 -9z"/>
<path d="M1795 4100 c3 -5 8 -10 11 -10 2 0 4 5 4 10 0 6 -5 10 -11 10 -5 0
-7 -4 -4 -10z"/>
<path d="M1900 4071 c16 -31 27 -33 32 -6 4 21 1 25 -19 25 -20 0 -22 -3 -13
-19z"/>
<path d="M5240 4029 c0 -5 5 -7 10 -4 6 3 10 8 10 11 0 2 -4 4 -10 4 -5 0 -10
-5 -10 -11z"/>
<path d="M1980 4011 c0 -8 -6 -11 -16 -7 -10 4 -14 1 -12 -6 7 -19 25 -20 32
-2 4 9 4 19 1 22 -3 3 -5 0 -5 -7z"/>
<path d="M1955 3950 c-3 -5 -1 -10 4 -10 6 0 11 5 11 10 0 6 -2 10 -4 10 -3 0
-8 -4 -11 -10z"/>
<path d="M2042 3898 c14 -18 28 -43 32 -54 3 -12 15 -29 26 -39 11 -10 20 -24
20 -30 0 -7 6 -18 14 -24 11 -9 15 -8 20 4 3 8 9 15 13 14 23 -4 15 8 -57 81
-82 84 -110 103 -68 48z"/>
<path d="M1930 3898 c0 -15 5 -30 10 -33 6 -3 10 -14 10 -25 0 -10 7 -21 16
-24 18 -7 13 18 -17 74 -18 34 -18 34 -19 8z"/>
<path d="M1983 3894 c18 -34 44 -60 53 -51 4 3 -3 21 -15 39 -11 18 -21 29
-21 24 0 -5 -7 -2 -17 5 -15 13 -15 12 0 -17z"/>
<path d="M1691 3906 c2 -2 22 -6 44 -10 29 -5 36 -4 25 3 -13 10 -79 16 -69 7z"/>
<path d="M1568 3883 c7 -3 16 -2 19 1 4 3 -2 6 -13 5 -11 0 -14 -3 -6 -6z"/>
<path d="M3986 3851 c-4 -5 0 -12 6 -14 10 -4 9 -8 -2 -16 -11 -8 -11 -11 -2
-12 6 -1 18 -2 25 -3 6 -1 11 -9 9 -19 -2 -11 4 -17 18 -17 23 0 24 5 9 49 -7
21 -16 30 -25 27 -8 -3 -14 -1 -14 4 0 13 -17 13 -24 1z"/>
<path d="M6136 3841 c-9 -10 -46 -26 -81 -36 -36 -9 -65 -21 -65 -25 0 -13 54
-23 58 -11 2 6 22 11 45 11 51 0 107 31 107 60 0 26 -40 27 -64 1z"/>
<path d="M3930 3820 c-14 -11 -30 -20 -36 -20 -6 0 -17 -7 -25 -16 -11 -13 -9
-14 17 -8 16 3 34 13 40 20 6 8 19 14 28 14 9 0 16 7 16 15 0 20 -10 19 -40
-5z"/>
<path d="M2460 3796 c0 -13 -3 -33 -7 -43 -3 -10 -3 -15 1 -12 13 12 25 69 15
74 -5 4 -9 -5 -9 -19z"/>
<path d="M2546 3800 c-12 -31 -11 -63 2 -67 9 -4 11 2 6 23 -5 19 -4 25 5 20
13 -9 14 3 1 24 -8 13 -10 13 -14 0z"/>
<path d="M6782 3789 c-35 -4 -71 -14 -79 -21 -13 -11 -10 -15 23 -29 22 -10
45 -18 52 -18 7 -1 28 -11 45 -24 18 -13 51 -32 74 -42 24 -10 45 -26 48 -37
4 -10 10 -16 15 -13 5 3 27 -3 49 -14 50 -26 55 -15 37 71 -18 83 -33 113 -63
127 -27 12 -107 13 -201 0z"/>
<path d="M5147 3774 c-9 -10 2 -24 19 -24 8 0 14 7 14 15 0 15 -21 21 -33 9z"/>
<path d="M1990 3762 c0 -5 6 -17 14 -28 16 -21 30 -16 20 9 -6 16 -34 32 -34
19z"/>
<path d="M2075 3750 c3 -5 8 -10 11 -10 2 0 4 5 4 10 0 6 -5 10 -11 10 -5 0
-7 -4 -4 -10z"/>
<path d="M2160 3744 c0 -8 5 -12 10 -9 6 4 8 11 5 16 -9 14 -15 11 -15 -7z"/>
<path d="M6634 3727 c-17 -21 -24 -46 -12 -53 5 -4 29 -8 51 -10 23 -1 43 -7
45 -13 2 -6 10 -11 17 -11 8 0 19 -9 25 -19 6 -12 26 -22 50 -26 24 -4 44 -14
50 -25 6 -11 26 -22 45 -26 20 -3 42 -15 50 -26 14 -21 91 -42 100 -27 5 8
-38 41 -67 52 -10 4 -18 11 -18 17 0 5 -9 19 -20 30 -15 15 -25 18 -43 11 -20
-8 -29 -4 -57 26 -27 28 -31 37 -19 44 11 7 11 9 -3 9 -10 0 -18 -4 -18 -10 0
-5 -9 -10 -20 -10 -11 0 -20 5 -20 10 0 6 -7 10 -15 10 -8 0 -15 4 -15 9 0 11
-66 51 -83 51 -7 -1 -17 -6 -23 -13z"/>
<path d="M5140 3720 c0 -5 5 -10 10 -10 6 0 10 5 10 10 0 6 -4 10 -10 10 -5 0
-10 -4 -10 -10z"/>
<path d="M3920 3710 c0 -5 5 -10 10 -10 6 0 10 5 10 10 0 6 -4 10 -10 10 -5 0
-10 -4 -10 -10z"/>
<path d="M2651 3694 c0 -11 3 -14 6 -6 3 7 2 16 -1 19 -3 4 -6 -2 -5 -13z"/>
<path d="M1447 3674 c8 -4 10 -16 6 -35 -4 -21 -1 -30 11 -35 9 -3 16 -14 16
-24 0 -25 30 -80 43 -80 14 0 39 -49 31 -61 -3 -5 4 -9 15 -9 17 0 21 6 21 31
0 17 4 28 10 24 17 -10 11 -50 -9 -72 -20 -21 -20 -21 0 -26 10 -3 19 -1 19 4
0 5 14 9 30 9 20 0 30 5 30 15 0 18 36 20 44 3 3 -7 3 -3 0 10 -3 14 -1 22 8
22 8 0 22 15 33 33 10 17 23 35 29 40 7 4 2 14 -14 27 -20 16 -22 20 -7 20 9
0 17 4 17 9 0 14 -35 23 -95 23 -30 0 -55 5 -55 9 0 5 11 9 25 9 14 0 25 4 25
9 0 11 -25 21 -50 21 -10 0 -20 7 -24 15 -4 12 -23 15 -88 14 -46 0 -78 -3
-71 -5z m46 -24 c3 -11 1 -20 -4 -20 -5 0 -9 2 -9 4 0 2 -3 11 -6 20 -3 9 -2
16 4 16 5 0 12 -9 15 -20z m110 -37 c-7 -2 -19 -2 -25 0 -7 3 -2 5 12 5 14 0
19 -2 13 -5z m-58 -13 c-3 -5 -11 -10 -16 -10 -6 0 -7 5 -4 10 3 6 11 10 16
10 6 0 7 -4 4 -10z"/>
<path d="M2417 3659 c-5 -17 -9 -19 -26 -9 -32 17 -41 4 -41 -58 1 -50 2 -54
13 -35 9 16 16 20 27 13 13 -9 13 -11 0 -20 -13 -8 -13 -10 2 -10 41 0 48 11
48 70 0 59 -13 87 -23 49z"/>
<path d="M2451 3658 c0 -12 4 -41 8 -63 7 -38 10 -37 24 5 3 8 6 -5 8 -30 l2
-45 7 35 7 35 2 -37 c1 -27 6 -38 16 -38 8 0 15 4 15 10 0 5 10 12 23 15 12 3
41 25 64 48 33 34 38 44 28 54 -10 9 -17 8 -30 -7 -16 -18 -17 -18 -36 1 -13
13 -27 18 -40 14 -13 -4 -19 -2 -19 9 0 23 -17 19 -23 -5 -3 -12 -10 -18 -16
-15 -5 3 -12 -2 -14 -11 -3 -10 -5 -5 -4 11 1 16 -4 31 -10 33 -8 3 -13 -4
-12 -19z"/>
<path d="M3823 3659 c-25 -9 -30 -19 -10 -19 15 0 43 17 37 23 -3 3 -15 1 -27
-4z"/>
<path d="M2759 3632 c-38 -3 -121 -63 -107 -77 8 -8 55 12 103 45 17 11 38 20
47 20 9 0 19 4 22 8 5 8 -6 9 -65 4z"/>
<path d="M2975 3621 c-11 -5 -49 -12 -85 -16 -36 -4 -70 -12 -77 -17 -7 -5
-16 -7 -21 -4 -5 3 -14 -6 -20 -19 -7 -16 -17 -23 -27 -19 -8 4 -15 1 -15 -7
0 -7 -3 -9 -6 -6 -12 12 -42 -12 -52 -42 -9 -26 -8 -32 14 -46 13 -8 24 -24
24 -35 0 -11 7 -20 15 -20 8 0 15 -9 15 -21 0 -11 5 -17 10 -14 6 4 8 10 6 14
-3 4 -1 13 4 20 4 8 7 -28 6 -83 -1 -53 2 -96 6 -96 4 0 6 -6 4 -12 -1 -7 -1
-10 1 -5 8 14 32 7 37 -10 3 -10 8 -44 12 -76 5 -49 3 -61 -12 -78 -19 -21
-29 -103 -12 -93 5 3 6 -6 2 -21 -5 -19 -3 -25 7 -23 10 2 13 -5 11 -22 -4
-21 -2 -22 12 -11 9 7 14 16 11 20 -2 4 7 20 20 37 13 16 24 23 25 16 0 -7 -7
-20 -16 -29 -11 -11 -12 -19 -4 -27 8 -8 13 -7 20 4 5 8 12 11 17 7 4 -5 2
-12 -6 -16 -11 -7 -11 -12 0 -30 21 -33 26 -26 26 37 0 31 5 71 11 89 8 26 8
31 -4 26 -16 -6 -20 22 -4 32 13 8 13 75 0 75 -5 0 -7 -7 -4 -15 4 -8 1 -15
-6 -15 -20 0 -6 75 20 107 l22 28 -7 -32 c-4 -21 -3 -33 4 -33 6 0 11 11 11
24 0 13 5 26 10 28 6 2 13 30 15 62 3 33 8 62 11 65 4 3 4 -6 2 -21 -3 -16 1
-36 8 -45 12 -17 13 -16 14 4 0 12 5 25 10 28 6 3 10 17 10 31 0 15 6 24 15
24 10 0 15 10 15 28 -1 26 -1 26 -15 8 -15 -20 -15 -20 -16 0 -1 10 0 24 1 29
1 6 3 17 5 26 2 9 8 34 14 55 14 51 14 117 0 109 -6 -4 -17 1 -24 11 -11 15
-14 16 -15 4 0 -12 -3 -11 -11 3 -11 19 -15 19 -44 8z m-175 -96 c0 -8 -4 -15
-10 -15 -5 0 -7 7 -4 15 4 8 8 15 10 15 2 0 4 -7 4 -15z m-80 -45 c0 -5 -5
-10 -11 -10 -5 0 -7 5 -4 10 3 6 8 10 11 10 2 0 4 -4 4 -10z m290 -81 c0 -24
4 -38 10 -34 6 3 10 2 10 -3 0 -17 -13 -21 -26 -7 -16 16 -20 100 -4 90 6 -3
10 -24 10 -46z m-94 -446 c-10 -10 -19 5 -10 18 6 11 8 11 12 0 2 -7 1 -15 -2
-18z"/>
<path d="M2310 3600 c0 -5 5 -10 10 -10 6 0 10 5 10 10 0 6 -4 10 -10 10 -5 0
-10 -4 -10 -10z"/>
<path d="M3237 3603 c-10 -10 -8 -53 2 -53 5 0 16 -3 25 -6 12 -5 16 1 16 24
0 18 -6 32 -16 36 -19 7 -19 7 -27 -1z"/>
<path d="M3110 3591 c0 -6 5 -13 10 -16 6 -3 10 1 10 9 0 9 -4 16 -10 16 -5 0
-10 -4 -10 -9z"/>
<path d="M3101 3540 c0 -33 1 -34 11 -12 8 17 8 26 0 34 -9 9 -12 4 -11 -22z"/>
<path d="M3167 3481 c-2 -11 0 -24 5 -29 6 -6 4 -23 -6 -47 -9 -21 -16 -43
-15 -49 0 -6 5 0 10 13 12 30 22 21 21 -19 0 -17 4 -28 9 -25 5 4 9 -1 9 -9 0
-8 -4 -17 -9 -20 -5 -3 -4 -24 1 -48 5 -24 9 -49 10 -55 1 -7 5 -13 9 -13 17
0 11 -119 -9 -162 -17 -36 -59 -67 -71 -51 -3 4 -17 10 -30 11 -13 2 -31 10
-39 18 -19 19 -22 15 -103 -148 -13 -27 -26 -48 -29 -48 -3 0 -6 -8 -6 -17 -1
-10 -5 -27 -9 -37 -7 -16 -5 -18 8 -13 10 4 20 0 26 -11 9 -15 14 -13 40 17
16 18 33 31 37 29 5 -3 18 -2 29 3 19 7 19 8 -2 8 -27 1 -35 12 -22 31 8 13
11 12 20 -2 5 -10 17 -18 24 -18 18 0 19 -24 2 -42 -7 -7 -14 -27 -15 -43 -1
-17 -11 -55 -22 -85 -23 -63 -26 -94 -7 -87 19 7 47 -12 41 -28 -7 -18 9 -19
37 -4 14 7 29 7 52 0 18 -6 74 -11 125 -12 88 -1 94 -2 104 -24 9 -20 18 -24
49 -22 49 2 50 12 2 25 l-38 10 51 1 c42 1 57 7 91 36 23 19 51 35 64 35 12 0
31 8 42 18 14 12 21 14 24 5 3 -9 11 -8 29 3 13 9 33 14 44 11 22 -6 43 14 35
34 -4 8 -29 25 -58 39 -42 20 -48 25 -29 28 38 6 24 29 -22 36 -9 1 -26 11
-38 22 -13 10 -53 34 -90 52 -38 18 -68 37 -68 42 0 12 -52 22 -142 25 -43 2
-82 6 -85 9 -4 3 0 6 8 6 11 0 15 23 17 108 2 86 6 109 19 120 10 7 12 12 5
12 -7 0 -12 8 -12 18 0 14 2 15 10 2 8 -12 10 -12 15 2 4 10 14 20 23 22 11 4
17 17 17 35 0 19 -4 27 -12 24 -7 -3 -13 2 -13 10 0 10 12 15 42 15 26 1 45 6
50 16 5 8 15 22 23 30 19 19 19 46 1 46 -8 0 -22 -8 -31 -17 -16 -16 -17 -14
-10 25 5 29 3 42 -5 42 -7 0 -9 8 -5 21 13 39 -16 9 -36 -38 -23 -54 -24 -63
-3 -37 14 18 15 18 8 -6 -4 -14 -14 -36 -22 -49 -15 -22 -17 -22 -29 -6 -12
17 -13 17 -19 1 -5 -14 -9 -15 -15 -4 -7 10 -9 10 -9 1 0 -35 -48 5 -57 47 -5
28 -4 32 10 27 9 -3 18 1 21 9 10 25 7 82 -4 89 -5 3 -10 1 -10 -5 0 -6 -4 -8
-10 -5 -5 3 -10 19 -10 36 0 22 -5 29 -19 29 -10 0 -21 -9 -24 -19z m223 -197
c0 -8 -5 -12 -10 -9 -6 4 -8 11 -5 16 9 14 15 11 15 -7z m-155 -24 c3 -5 1
-10 -4 -10 -6 0 -11 5 -11 10 0 6 2 10 4 10 3 0 8 -4 11 -10z m-175 -689 c0
-5 -7 -11 -15 -15 -9 -3 -15 0 -15 9 0 8 7 15 15 15 8 0 15 -4 15 -9z"/>
<path d="M5212 3441 c-11 -31 -5 -51 14 -51 8 0 14 -5 14 -11 0 -6 -7 -9 -15
-5 -11 4 -15 -1 -15 -19 0 -13 -4 -27 -10 -30 -5 -3 -10 -11 -10 -17 0 -7 5
-7 14 1 11 9 15 6 18 -14 3 -14 -1 -30 -8 -36 -8 -6 -14 -19 -13 -28 0 -12 2
-12 10 4 8 17 9 16 6 -7 -5 -37 8 -36 22 2 5 17 15 30 20 30 6 0 11 7 11 16 0
8 5 12 10 9 6 -3 10 4 10 18 0 14 7 30 15 37 14 11 14 10 5 -14 -19 -50 -4
-66 20 -21 17 31 33 33 25 3 -6 -23 -6 -23 11 -3 16 19 16 18 10 -20 -5 -36
-4 -37 5 -12 15 38 32 35 24 -5 -5 -25 -4 -30 5 -22 23 22 33 215 12 222 -10
3 -12 -5 -8 -34 5 -29 4 -34 -3 -19 -10 20 -10 19 -17 -2 -3 -13 -10 -20 -15
-17 -5 3 -10 -5 -10 -18 -1 -18 -2 -19 -6 -5 -3 13 -10 16 -25 11 -18 -5 -19
-3 -13 25 5 24 3 31 -9 31 -9 0 -16 -4 -16 -10 0 -5 -7 -7 -15 -4 -9 4 -15 0
-15 -9 0 -10 -6 -13 -21 -10 -18 5 -19 7 -5 15 22 12 20 35 -3 41 -15 3 -22
-2 -29 -22z m66 -107 c-1 -9 -9 -19 -16 -22 -9 -3 -10 2 -3 21 5 14 8 27 7 30
-2 2 1 1 7 -3 5 -4 7 -16 5 -26z"/>
<path d="M5145 3440 c3 -5 8 -10 11 -10 2 0 4 5 4 10 0 6 -5 10 -11 10 -5 0
-7 -4 -4 -10z"/>
<path d="M3343 3425 c-21 -24 -14 -40 7 -17 11 12 20 24 20 27 0 10 -15 4 -27
-10z"/>
<path d="M4470 3430 c0 -5 5 -10 11 -10 5 0 7 5 4 10 -3 6 -8 10 -11 10 -2 0
-4 -4 -4 -10z"/>
<path d="M4510 3431 c0 -5 5 -13 10 -16 6 -3 10 -2 10 4 0 5 -4 13 -10 16 -5
3 -10 2 -10 -4z"/>
<path d="M4550 3420 c0 -3 7 -16 16 -29 19 -27 40 -15 30 17 -6 18 -46 28 -46
12z"/>
<path d="M5120 3415 c0 -8 -4 -15 -10 -15 -5 0 -10 -9 -10 -20 0 -25 16 -26
23 -2 2 9 8 25 12 35 4 10 3 17 -4 17 -6 0 -11 -7 -11 -15z"/>
<path d="M3300 3410 c0 -5 5 -10 10 -10 6 0 10 5 10 10 0 6 -4 10 -10 10 -5 0
-10 -4 -10 -10z"/>
<path d="M5171 3403 c3 -33 -1 -42 -16 -37 -11 5 -15 -1 -15 -21 0 -14 -4 -24
-9 -20 -17 10 -41 -26 -40 -58 l1 -32 10 33 c11 33 22 40 33 22 4 -6 11 -8 16
-4 6 3 5 -3 -3 -15 -7 -12 -16 -21 -20 -21 -5 0 -8 -19 -8 -42 0 -39 1 -41 14
-23 7 11 19 37 25 58 7 20 18 37 24 37 8 0 7 4 -1 12 -14 14 -16 68 -2 68 6 0
10 14 10 30 0 17 -5 30 -11 30 -5 0 -9 -8 -8 -17z"/>
<path d="M4240 3358 c0 -19 2 -20 10 -8 13 19 13 30 0 30 -5 0 -10 -10 -10
-22z"/>
<path d="M3280 3360 c-9 -6 -10 -10 -3 -10 6 0 15 5 18 10 8 12 4 12 -15 0z"/>
<path d="M4723 3325 c0 -27 2 -38 4 -22 2 15 2 37 0 50 -2 12 -4 0 -4 -28z"/>
<path d="M3830 3355 c0 -10 52 -25 63 -18 7 4 3 9 -9 14 -23 9 -54 11 -54 4z"/>
<path d="M4210 3341 c0 -11 5 -23 10 -26 6 -4 10 5 10 19 0 14 -4 26 -10 26
-5 0 -10 -9 -10 -19z"/>
<path d="M3935 3340 c3 -5 10 -10 16 -10 5 0 9 5 9 10 0 6 -7 10 -16 10 -8 0
-12 -4 -9 -10z"/>
<path d="M4668 3299 c-3 -45 10 -99 24 -99 10 0 -2 122 -13 134 -4 5 -9 -11
-11 -35z"/>
<path d="M4746 3283 c-6 -43 -2 -63 8 -52 9 9 16 99 7 99 -4 0 -11 -21 -15
-47z"/>
<path d="M3783 3313 c9 -2 23 -2 30 0 6 3 -1 5 -18 5 -16 0 -22 -2 -12 -5z"/>
<path d="M4615 3311 c-3 -5 -1 -12 5 -16 5 -3 10 1 10 9 0 18 -6 21 -15 7z"/>
<path d="M2461 3284 c0 -11 3 -14 6 -6 3 7 2 16 -1 19 -3 4 -6 -2 -5 -13z"/>
<path d="M3788 3283 c7 -3 16 -2 19 1 4 3 -2 6 -13 5 -11 0 -14 -3 -6 -6z"/>
<path d="M5007 3283 c-4 -3 -7 -20 -6 -37 l1 -31 8 35 c9 36 8 45 -3 33z"/>
<path d="M2752 3260 c0 -14 2 -19 5 -12 2 6 2 18 0 25 -3 6 -5 1 -5 -13z"/>
<path d="M3735 3260 c-3 -5 -2 -10 4 -10 5 0 13 5 16 10 3 6 2 10 -4 10 -5 0
-13 -4 -16 -10z"/>
<path d="M3445 3250 c-3 -6 1 -7 9 -4 18 7 21 14 7 14 -6 0 -13 -4 -16 -10z"/>
<path d="M2430 3218 c0 -9 5 -20 11 -23 17 -11 18 -2 3 19 -12 17 -14 17 -14
4z"/>
<path d="M5102 3200 c0 -14 2 -19 5 -12 2 6 2 18 0 25 -3 6 -5 1 -5 -13z"/>
<path d="M4603 3175 c6 -19 12 -33 14 -32 6 7 -9 67 -17 67 -5 0 -3 -16 3 -35z"/>
<path d="M5155 3179 c-9 -17 -15 -33 -13 -35 3 -2 12 12 21 31 21 43 13 47 -8
4z"/>
<path d="M4280 3189 c0 -5 5 -7 10 -4 6 3 10 8 10 11 0 2 -4 4 -10 4 -5 0 -10
-5 -10 -11z"/>
<path d="M5185 3188 c-19 -62 -24 -73 -34 -70 -7 1 -11 -13 -10 -35 0 -34 1
-35 10 -15 5 13 13 21 18 18 8 -6 21 33 27 87 4 27 -3 37 -11 15z"/>
<path d="M2725 3171 c-3 -5 -1 -12 5 -16 5 -3 10 1 10 9 0 18 -6 21 -15 7z"/>
<path d="M3000 3135 c0 -22 4 -34 10 -30 6 3 10 17 10 30 0 13 -4 27 -10 30
-6 4 -10 -8 -10 -30z"/>
<path d="M4642 3150 c0 -14 2 -19 5 -12 2 6 2 18 0 25 -3 6 -5 1 -5 -13z"/>
<path d="M3769 3158 c-7 -24 -5 -38 7 -38 8 0 14 9 14 20 0 11 -4 20 -10 20
-5 0 -10 -1 -11 -2z"/>
<path d="M4966 3138 c-3 -13 -1 -27 4 -32 7 -7 10 1 10 22 0 37 -5 41 -14 10z"/>
<path d="M5081 3144 c0 -11 3 -14 6 -6 3 7 2 16 -1 19 -3 4 -6 -2 -5 -13z"/>
<path d="M5106 3152 c-3 -5 -1 -22 4 -38 8 -29 8 -29 9 9 1 36 -3 45 -13 29z"/>
<path d="M3705 3140 c-3 -5 3 -10 14 -10 11 0 23 5 26 10 3 6 -3 10 -14 10
-11 0 -23 -4 -26 -10z"/>
<path d="M2045 3129 c-22 -4 -62 -9 -89 -10 -48 -2 -103 -22 -99 -36 1 -4 -12
-6 -29 -4 -29 3 -31 1 -18 -14 7 -9 28 -22 47 -30 24 -10 33 -20 33 -38 0 -45
31 -127 61 -161 38 -43 89 -62 204 -75 109 -13 278 -15 322 -6 29 6 32 10 27
34 -10 51 -27 101 -35 101 -4 0 -12 22 -19 49 -13 55 -39 84 -117 130 -88 51
-211 77 -288 60z m72 -105 c-3 -3 -12 -4 -19 -1 -8 3 -5 6 6 6 11 1 17 -2 13
-5z m3 -58 c0 -11 -19 -15 -25 -6 -3 5 1 10 9 10 9 0 16 -2 16 -4z"/>
<path d="M3658 3103 c-8 -10 -5 -13 11 -13 11 0 21 4 21 9 0 5 10 12 23 14 13
3 9 4 -11 4 -18 -1 -38 -7 -44 -14z"/>
<path d="M2811 3084 c0 -11 3 -14 6 -6 3 7 2 16 -1 19 -3 4 -6 -2 -5 -13z"/>
<path d="M4960 3060 c0 -5 5 -10 11 -10 5 0 7 5 4 10 -3 6 -8 10 -11 10 -2 0
-4 -4 -4 -10z"/>
<path d="M3638 3043 c7 -3 16 -2 19 1 4 3 -2 6 -13 5 -11 0 -14 -3 -6 -6z"/>
<path d="M5398 2961 c-3 -17 -1 -31 3 -31 11 0 19 44 10 53 -5 5 -11 -5 -13
-22z"/>
<path d="M2947 2931 c-31 -54 -14 -59 21 -6 15 24 18 35 9 35 -7 0 -20 -13
-30 -29z"/>
<path d="M2767 2874 c6 -16 19 -18 27 -5 3 5 -3 11 -13 14 -14 3 -18 1 -14 -9z"/>
<path d="M2801 2844 c0 -11 3 -14 6 -6 3 7 2 16 -1 19 -3 4 -6 -2 -5 -13z"/>
<path d="M4321 2843 c0 -4 4 -17 9 -28 8 -19 9 -19 9 2 1 12 -3 25 -9 28 -5 3
-10 3 -9 -2z"/>
<path d="M1840 2825 c0 -8 6 -15 14 -15 7 0 19 -7 26 -15 7 -8 17 -15 22 -15
6 0 -4 14 -22 30 -37 34 -40 36 -40 15z"/>
<path d="M1870 2836 c0 -2 7 -7 16 -10 8 -3 12 -2 9 4 -6 10 -25 14 -25 6z"/>
<path d="M2874 2822 c0 -10 8 -19 17 -19 16 -2 17 0 1 18 -9 10 -17 19 -17 19
0 0 -1 -8 -1 -18z"/>
<path d="M1920 2800 c0 -5 5 -10 10 -10 6 0 10 5 10 10 0 6 -4 10 -10 10 -5 0
-10 -4 -10 -10z"/>
<path d="M4340 2783 c0 -5 7 -18 15 -29 12 -16 14 -16 15 -3 0 9 -7 22 -15 29
-8 7 -15 8 -15 3z"/>
<path d="M5676 2755 c-22 -34 -16 -41 12 -15 29 27 47 26 28 -2 -9 -12 -16
-32 -16 -43 0 -12 -5 -26 -11 -32 -7 -7 -3 -9 15 -6 28 6 34 18 14 26 -7 2
-10 7 -7 11 14 15 187 -41 251 -81 15 -10 29 -15 33 -12 9 10 -6 39 -20 39 -8
0 -17 5 -21 11 -5 8 1 10 18 6 44 -11 41 18 -6 51 -44 32 -124 57 -217 68 -52
6 -56 5 -73 -21z"/>
<path d="M5689 2620 c-18 -14 -20 -19 -8 -20 20 0 69 23 69 33 0 14 -38 7 -61
-13z"/>
<path d="M1460 2579 c0 -5 5 -7 10 -4 6 3 10 8 10 11 0 2 -4 4 -10 4 -5 0 -10
-5 -10 -11z"/>
<path d="M1430 2570 c16 -10 15 -12 -22 -28 -38 -16 -35 -32 5 -32 25 0 36 6
44 23 11 24 -3 47 -29 47 -9 0 -9 -3 2 -10z"/>
<path d="M1911 2481 c-15 -10 43 -21 113 -21 67 0 55 7 -23 14 -35 4 -66 8
-70 10 -4 3 -13 1 -20 -3z"/>
<path d="M1853 2463 c9 -2 23 -2 30 0 6 3 -1 5 -18 5 -16 0 -22 -2 -12 -5z"/>
<path d="M2080 2460 c0 -5 9 -10 21 -10 11 0 17 5 14 10 -3 6 -13 10 -21 10
-8 0 -14 -4 -14 -10z"/>
<path d="M1725 2450 c3 -5 17 -10 31 -10 14 0 22 4 19 10 -3 6 -17 10 -31 10
-14 0 -22 -4 -19 -10z"/>
<path d="M3523 2453 c9 -2 23 -2 30 0 6 3 -1 5 -18 5 -16 0 -22 -2 -12 -5z"/>
<path d="M1920 2440 c36 -11 50 -11 50 0 0 6 -17 10 -37 9 -34 -1 -35 -2 -13
-9z"/>
<path d="M1980 2430 c0 -5 7 -10 16 -10 8 0 12 5 9 10 -3 6 -10 10 -16 10 -5
0 -9 -4 -9 -10z"/>
<path d="M1350 2420 c0 -13 11 -13 30 0 12 8 11 10 -7 10 -13 0 -23 -4 -23
-10z"/>
<path d="M1320 2409 c0 -5 5 -7 10 -4 6 3 10 8 10 11 0 2 -4 4 -10 4 -5 0 -10
-5 -10 -11z"/>
<path d="M3555 2400 c-3 -6 1 -7 9 -4 18 7 21 14 7 14 -6 0 -13 -4 -16 -10z"/>
<path d="M1657 2324 c6 -15 23 -19 23 -5 0 5 -7 11 -14 14 -10 4 -13 1 -9 -9z"/>
<path d="M3740 2320 c-11 -7 -5 -10 23 -10 20 0 37 5 37 10 0 13 -40 13 -60 0z"/>
<path d="M6768 2313 c7 -3 16 -2 19 1 4 3 -2 6 -13 5 -11 0 -14 -3 -6 -6z"/>
<path d="M6713 2303 c9 -2 23 -2 30 0 6 3 -1 5 -18 5 -16 0 -22 -2 -12 -5z"/>
<path d="M3559 2286 c-2 -2 -69 -11 -148 -20 -79 -9 -151 -21 -160 -27 -20
-12 95 -4 184 12 33 6 81 14 107 18 50 8 76 21 41 21 -11 0 -22 -2 -24 -4z"/>
<path d="M4595 2280 c3 -5 8 -10 11 -10 2 0 4 5 4 10 0 6 -5 10 -11 10 -5 0
-7 -4 -4 -10z"/>
<path d="M2028 2263 c6 -2 18 -2 25 0 6 3 1 5 -13 5 -14 0 -19 -2 -12 -5z"/>
<path d="M3075 2230 c3 -5 10 -10 16 -10 5 0 9 5 9 10 0 6 -7 10 -16 10 -8 0
-12 -4 -9 -10z"/>
<path d="M3347 2218 c-6 -4 17 -10 51 -14 37 -4 60 -11 59 -18 -3 -15 86 -20
138 -7 l40 9 -60 2 -60 3 75 7 c41 4 86 6 100 3 14 -2 36 0 50 6 23 9 22 10
-15 11 -164 5 -369 4 -378 -2z"/>
<path d="M3783 2194 c11 -11 123 -15 148 -5 18 7 3 10 -65 10 -49 1 -87 -2
-83 -5z"/>
<path d="M4815 2180 c3 -5 8 -10 11 -10 2 0 4 5 4 10 0 6 -5 10 -11 10 -5 0
-7 -4 -4 -10z"/>
<path d="M4858 2183 c7 -3 16 -2 19 1 4 3 -2 6 -13 5 -11 0 -14 -3 -6 -6z"/>
<path d="M5410 2170 c0 -5 7 -7 15 -4 8 4 15 8 15 10 0 2 -7 4 -15 4 -8 0 -15
-4 -15 -10z"/>
<path d="M2962 2132 c2 -28 3 -29 60 -29 44 0 58 4 58 15 0 11 8 13 34 8 19
-4 37 -2 40 3 6 9 -15 14 -137 26 l-57 6 2 -29z"/>
<path d="M5408 2113 c7 -3 16 -2 19 1 4 3 -2 6 -13 5 -11 0 -14 -3 -6 -6z"/>
<path d="M3368 2093 c7 -3 16 -2 19 1 4 3 -2 6 -13 5 -11 0 -14 -3 -6 -6z"/>
<path d="M4430 2030 c0 -5 5 -10 10 -10 6 0 10 5 10 10 0 6 -4 10 -10 10 -5 0
-10 -4 -10 -10z"/>
<path d="M4590 2000 c0 -5 5 -10 11 -10 5 0 7 -5 4 -10 -4 -7 -11 -7 -18 -2
-7 5 -19 9 -27 9 -8 0 -26 3 -40 8 -23 7 -23 6 6 -19 18 -14 37 -26 43 -26 6
0 11 -3 11 -7 0 -10 49 -33 68 -33 10 0 10 4 -3 16 -12 12 -13 19 -5 24 7 5 9
16 5 29 -3 12 -11 19 -16 16 -5 -4 -9 -1 -9 4 0 6 -7 11 -15 11 -8 0 -15 -4
-15 -10z"/>
<path d="M4696 1972 c-3 -5 -3 -17 0 -26 3 -9 1 -16 -5 -16 -6 0 -11 8 -12 18
0 11 -2 13 -6 4 -3 -8 -1 -24 5 -35 6 -12 13 -29 15 -38 3 -10 24 -25 46 -35
23 -10 41 -23 41 -30 0 -13 22 -24 48 -24 14 1 12 5 -7 20 -18 15 -19 20 -7
20 9 0 16 5 16 10 0 6 -7 10 -16 10 -9 0 -18 8 -21 18 -2 10 -18 23 -34 29
-17 7 -27 17 -24 25 6 17 -30 64 -39 50z m74 -96 c0 -3 -4 -8 -10 -11 -5 -3
-10 -1 -10 4 0 6 5 11 10 11 6 0 10 -2 10 -4z"/>
<path d="M4790 1970 c0 -5 5 -10 10 -10 6 0 10 5 10 10 0 6 -4 10 -10 10 -5 0
-10 -4 -10 -10z"/>
<path d="M4340 1958 c0 -4 6 -8 14 -8 8 0 21 -3 30 -6 9 -3 16 -2 16 4 0 5
-13 12 -30 14 -16 3 -30 1 -30 -4z"/>
<path d="M4425 1940 c-3 -6 6 -15 22 -21 15 -6 36 -17 45 -26 9 -8 22 -12 28
-8 11 7 -11 26 -57 53 -27 15 -30 15 -38 2z"/>
<path d="M3261 1874 c-21 -27 -28 -54 -13 -54 7 0 52 65 52 75 0 13 -21 2 -39
-21z"/>
<path d="M3355 1889 c4 -5 -1 -19 -10 -29 -10 -11 -12 -20 -6 -24 5 -4 12 2
16 13 3 11 12 22 20 25 22 8 18 26 -6 26 -12 0 -17 -4 -14 -11z"/>
<path d="M4445 1890 c3 -5 10 -10 16 -10 5 0 9 5 9 10 0 6 -7 10 -16 10 -8 0
-12 -4 -9 -10z"/>
<path d="M4856 1880 c-13 -4 -16 -9 -8 -14 7 -4 19 -3 28 2 21 12 5 22 -20 12z"/>
<path d="M4515 1860 c3 -5 15 -15 26 -21 18 -9 19 -9 7 10 -7 12 -19 21 -26
21 -7 0 -10 -4 -7 -10z"/>
<path d="M3145 1850 c-3 -5 1 -10 9 -10 9 0 16 5 16 10 0 6 -4 10 -9 10 -6 0
-13 -4 -16 -10z"/>
<path d="M4365 1840 c11 -5 16 -9 10 -9 -10 -1 109 -61 121 -61 4 0 13 -8 20
-17 12 -16 13 -16 14 -2 0 9 -22 28 -52 44 -29 15 -64 34 -78 41 -14 8 -32 14
-40 13 -10 0 -8 -3 5 -9z"/>
<path d="M3455 1830 c4 -6 11 -8 16 -5 14 9 11 15 -7 15 -8 0 -12 -5 -9 -10z"/>
<path d="M4860 1795 c7 -8 17 -12 22 -9 6 4 5 10 -3 15 -22 14 -33 10 -19 -6z"/>
<path d="M4678 1773 c7 -3 16 -2 19 1 4 3 -2 6 -13 5 -11 0 -14 -3 -6 -6z"/>
<path d="M2980 1746 c0 -9 5 -16 10 -16 6 0 10 4 10 9 0 6 -4 13 -10 16 -5 3
-10 -1 -10 -9z"/>
<path d="M4732 1734 c4 -4 3 -13 -3 -20 -8 -10 -2 -14 25 -20 36 -6 60 -24 34
-24 -7 0 2 -8 20 -17 21 -10 36 -13 43 -6 13 13 -19 48 -53 57 -16 3 -27 12
-25 18 1 7 -9 14 -23 16 -14 2 -22 1 -18 -4z"/>
<path d="M4950 1710 c-9 -6 -10 -10 -3 -10 6 0 15 5 18 10 8 12 4 12 -15 0z"/>
<path d="M4590 1695 c7 -8 16 -15 21 -15 5 0 6 7 3 15 -4 8 -13 15 -21 15 -13
0 -13 -3 -3 -15z"/>
<path d="M2960 1686 c0 -2 7 -6 15 -10 8 -3 15 -1 15 4 0 6 -7 10 -15 10 -8 0
-15 -2 -15 -4z"/>
<path d="M2905 1650 c3 -5 8 -10 11 -10 2 0 4 5 4 10 0 6 -5 10 -11 10 -5 0
-7 -4 -4 -10z"/>
<path d="M4880 1620 c0 -5 5 -10 11 -10 5 0 7 5 4 10 -3 6 -8 10 -11 10 -2 0
-4 -4 -4 -10z"/>
<path d="M4700 1600 c-6 -11 -9 -21 -8 -21 14 -6 96 -4 92 3 -3 4 -11 8 -18 8
-8 0 -19 7 -26 15 -17 20 -27 19 -40 -5z"/>
<path d="M4480 1596 c4 -4 21 -4 37 2 28 10 28 10 -9 8 -21 0 -33 -5 -28 -10z"/>
<path d="M3786 1576 c-9 -15 -12 -27 -6 -31 12 -8 47 28 42 43 -6 19 -18 14
-36 -12z"/>
<path d="M3990 1543 c0 -13 5 -23 10 -23 13 0 13 11 0 30 -8 12 -10 11 -10 -7z"/>
<path d="M4905 1550 c-3 -5 1 -10 10 -10 9 0 13 5 10 10 -3 6 -8 10 -10 10 -2
0 -7 -4 -10 -10z"/>
<path d="M3916 1451 c-4 -7 -5 -15 -2 -18 9 -9 19 4 14 18 -4 11 -6 11 -12 0z"/>
<path d="M3987 1453 c-4 -3 -7 -16 -6 -27 0 -19 1 -19 10 3 10 24 8 36 -4 24z"/>
<path d="M4008 1377 c-3 -19 -2 -25 4 -19 6 6 8 18 6 28 -3 14 -5 12 -10 -9z"/>
<path d="M295 1220 c3 -5 10 -10 16 -10 5 0 9 5 9 10 0 6 -7 10 -16 10 -8 0
-12 -4 -9 -10z"/>
<path d="M605 1140 c3 -5 14 -10 23 -10 15 0 15 2 2 10 -20 13 -33 13 -25 0z"/>
<path d="M4560 877 c0 -15 37 -40 44 -29 7 11 -6 27 -26 35 -11 4 -18 2 -18
-6z"/>
<path d="M4520 870 c0 -5 7 -10 16 -10 8 0 12 5 9 10 -3 6 -10 10 -16 10 -5 0
-9 -4 -9 -10z"/>
<path d="M4303 809 c-15 -15 0 -39 23 -39 17 0 18 11 1 33 -10 14 -15 15 -24
6z"/>
<path d="M4350 731 c0 -21 84 -111 104 -111 8 0 19 6 25 14 10 12 8 15 -11 18
-15 2 -22 9 -20 19 1 11 -9 19 -30 25 -19 6 -34 17 -36 28 -3 11 0 16 7 12 6
-4 11 -2 11 3 0 6 -11 11 -25 11 -18 0 -25 -5 -25 -19z"/>
<path d="M4200 719 c0 -5 5 -7 10 -4 6 3 10 8 10 11 0 2 -4 4 -10 4 -5 0 -10
-5 -10 -11z"/>
<path d="M4527 702 c-15 -9 -27 -20 -27 -23 0 -17 37 -34 72 -34 52 0 52 20
-2 62 -12 9 -21 8 -43 -5z"/>
<path d="M4238 678 c6 -6 18 -8 28 -6 14 3 12 5 -9 10 -19 3 -25 2 -19 -4z"/>
<path d="M4680 628 c0 -24 16 -38 50 -44 24 -5 31 -4 26 4 -4 7 -13 12 -21 12
-7 0 -17 9 -20 20 -7 22 -35 28 -35 8z"/>
<path d="M4317 622 c-5 -8 61 -88 67 -81 2 2 2 17 -1 32 -5 27 -57 66 -66 49z"/>
<path d="M3213 605 c-19 -21 -16 -27 7 -15 11 6 20 15 20 20 0 14 -13 12 -27
-5z"/>
<path d="M4460 600 c0 -6 7 -13 15 -16 8 -4 15 -10 15 -16 0 -5 -4 -7 -9 -4
-10 7 -25 -60 -16 -74 3 -6 16 -10 28 -10 17 0 19 -2 7 -10 -12 -7 -10 -12 9
-29 13 -12 36 -21 51 -21 14 0 42 -12 61 -26 25 -19 42 -24 66 -20 32 5 73
-19 73 -43 0 -14 33 -14 48 1 8 8 7 18 -5 39 -14 23 -22 27 -45 22 -21 -4 -39
2 -70 22 -23 16 -44 23 -46 17 -6 -20 -60 18 -81 59 -16 31 -19 44 -11 59 7
13 7 20 1 20 -5 0 -13 9 -16 20 -5 15 -15 20 -41 20 -19 0 -34 -5 -34 -10z"/>
<path d="M4800 581 c0 -11 26 -22 34 -14 3 3 3 10 0 14 -7 12 -34 11 -34 0z"/>
<path d="M4600 553 c0 -28 142 -94 155 -72 6 9 -26 29 -45 29 -7 0 -19 9 -28
19 -16 18 -82 38 -82 24z"/>
<path d="M4097 505 c17 -24 43 -34 43 -17 0 13 -34 42 -49 42 -8 0 -6 -8 6
-25z"/>
<path d="M4820 461 c0 -12 35 -41 48 -41 7 0 12 4 12 9 0 5 2 15 5 23 4 9 -5
14 -30 15 -19 1 -35 -2 -35 -6z"/>
<path d="M5155 460 c3 -5 15 -10 26 -10 11 0 17 5 14 10 -3 6 -15 10 -26 10
-11 0 -17 -4 -14 -10z"/>
<path d="M5403 414 c-22 -18 -24 -23 -10 -24 15 0 99 39 87 41 -36 6 -53 2
-77 -17z"/>
<path d="M5277 410 c-3 -11 -1 -20 4 -20 5 0 9 9 9 20 0 11 -2 20 -4 20 -2 0
-6 -9 -9 -20z"/>
<path d="M5304 408 c-3 -4 11 -8 30 -8 20 0 36 2 36 4 0 8 -61 12 -66 4z"/>
<path d="M2630 384 c0 -8 5 -12 10 -9 6 3 10 10 10 16 0 5 -4 9 -10 9 -5 0
-10 -7 -10 -16z"/>
<path d="M4970 387 c0 -11 10 -15 35 -14 39 1 35 12 -7 22 -21 6 -28 4 -28 -8z"/>
<path d="M4900 331 c0 -5 -8 -11 -17 -13 -15 -3 -15 -4 1 -20 10 -10 31 -18
47 -18 16 0 29 -5 29 -11 0 -5 5 -7 11 -4 6 4 17 -1 24 -11 14 -18 14 -17 15
7 0 23 -6 27 -54 39 -38 9 -53 17 -49 26 3 8 2 14 -1 14 -3 0 -6 -4 -6 -9z"/>
<path d="M2333 265 c18 -38 36 -31 21 9 -3 9 -12 16 -19 16 -10 0 -11 -5 -2
-25z"/>
<path d="M2055 241 c-49 -26 -63 -61 -24 -61 16 0 20 -5 16 -20 -3 -11 -1 -20
3 -20 9 0 25 39 22 55 -2 12 58 13 77 1 10 -6 18 -3 27 8 7 10 18 15 23 11 14
-8 51 3 51 16 0 5 -12 14 -26 20 -21 7 -31 6 -44 -6 -20 -18 -64 -20 -82 -2
-11 11 -18 10 -43 -2z"/>
<path d="M2280 236 c0 -9 5 -16 10 -16 6 0 10 4 10 9 0 6 -4 13 -10 16 -5 3
-10 -1 -10 -9z"/>
<path d="M2271 201 c-10 -7 -10 -10 -1 -16 6 -4 16 -3 22 3 13 13 -4 23 -21
13z"/>
<path d="M2090 180 c0 -5 4 -10 9 -10 6 0 13 5 16 10 3 6 -1 10 -9 10 -9 0
-16 -4 -16 -10z"/>
<path d="M1931 171 c-21 -13 -4 -33 18 -21 10 5 22 6 27 2 5 -4 2 1 -5 11 -15
19 -20 20 -40 8z"/>
<path d="M3446 153 c-4 -4 -30 -9 -59 -11 -72 -4 -134 -38 -175 -95 l-34 -47
219 0 218 0 0 35 c0 19 -3 35 -7 35 -5 0 -8 6 -8 13 0 14 -27 16 -48 3 -6 -4
-18 -4 -24 1 -14 8 -19 9 -57 11 -20 2 -23 6 -19 32 5 33 5 33 -6 23z"/>
<path d="M4084 15 c-18 -13 -16 -14 23 -15 46 0 73 8 73 21 0 15 -75 10 -96
-6z"/>
<path d="M4319 14 c-12 -14 -11 -16 5 -13 11 2 21 10 24 17 5 17 -13 15 -29
-4z"/>
<path d="M3675 10 c-3 -5 3 -10 15 -10 12 0 18 5 15 10 -3 6 -10 10 -15 10 -5
0 -12 -4 -15 -10z"/>
</g>
</svg>
