<?xml version="1.0" standalone="no"?>
<!DOCTYPE svg PUBLIC "-//W3C//DTD SVG 20010904//EN"
 "http://www.w3.org/TR/2001/REC-SVG-20010904/DTD/svg10.dtd">
<svg version="1.0" xmlns="http://www.w3.org/2000/svg"
 width="400.000000pt" height="400.000000pt" viewBox="0 0 616.000000 761.000000"
 preserveAspectRatio="xMidYMid meet">

<g transform="translate(0.000000,761.000000) scale(0.100000,-0.100000)"
fill="#000000" stroke="none">
<path d="M1837 7603 c-29 -7 -13 -28 19 -25 27 2 28 2 10 -12 -10 -9 -23 -13
-29 -9 -5 3 -7 0 -5 -8 3 -8 15 -13 27 -12 12 2 40 -11 63 -27 22 -17 46 -30
52 -30 6 0 22 -12 35 -25 13 -14 31 -25 41 -25 11 0 22 -4 25 -10 3 -5 17 -10
29 -10 36 0 50 44 41 130 l-7 70 -142 -1 c-77 -1 -149 -3 -159 -6z"/>
<path d="M2215 7573 c12 -66 24 -73 25 -15 0 41 -3 52 -16 52 -13 0 -15 -7 -9
-37z"/>
<path d="M4900 7596 c0 -8 -9 -17 -19 -21 -23 -7 -17 -35 8 -35 12 0 13 -2 3
-9 -10 -6 -8 -10 8 -14 29 -8 57 10 75 49 8 18 15 35 15 38 0 3 -20 6 -45 6
-32 0 -45 -4 -45 -14z"/>
<path d="M1 3738 l-1 -3738 334 0 c193 0 337 4 341 9 3 5 -1 16 -10 24 -13 13
-13 19 1 46 8 17 19 33 23 35 4 3 7 38 5 77 -1 53 -6 76 -18 84 -20 15 -20 34
-1 58 11 16 21 18 54 12 23 -4 39 -10 36 -15 -7 -11 21 -20 65 -20 21 0 41 6
43 13 4 8 6 6 6 -4 1 -12 8 -15 26 -11 35 6 53 -39 29 -76 -16 -24 -16 -25 8
-19 34 9 38 2 22 -41 -17 -49 -17 -82 0 -82 14 0 26 -29 26 -67 0 -23 2 -23
124 -23 110 0 125 2 129 17 4 16 5 16 6 1 1 -16 46 -17 630 -18 l630 0 73 38
c182 96 260 94 312 -7 l17 -31 784 0 c476 0 786 4 790 9 3 6 18 16 33 24 376
191 460 227 684 286 218 57 321 73 478 73 80 0 165 -5 190 -12 25 -6 61 -15
80 -20 51 -12 98 -30 144 -56 23 -13 47 -24 54 -24 9 0 12 59 12 260 l0 260
-40 0 c-22 0 -40 5 -40 10 0 6 15 8 40 4 32 -5 40 -4 40 9 0 11 -16 19 -52 27
-60 12 -91 28 -70 37 6 2 12 13 12 24 0 10 4 19 9 19 5 0 29 20 55 44 l46 45
0 240 c0 176 -3 241 -12 241 -6 0 -26 -11 -44 -25 -41 -31 -47 -31 -78 0 -28
28 -82 36 -72 10 4 -12 -1 -15 -22 -13 -15 1 -33 -2 -40 -6 -24 -14 -67 -14
-87 0 -17 13 -18 16 -5 24 8 5 21 10 28 10 6 0 12 7 12 15 0 8 -4 15 -10 15
-5 0 -10 -3 -10 -8 0 -12 -61 -35 -92 -34 -18 0 -28 -4 -25 -11 2 -7 15 -12
28 -13 44 -2 50 -4 44 -14 -3 -6 1 -7 9 -4 11 4 16 0 16 -15 0 -23 -15 -29
-23 -8 -4 9 -6 9 -6 0 -1 -16 -43 -17 -59 -1 -6 6 -29 11 -52 10 -22 -1 -40 3
-40 8 0 6 5 10 12 10 6 0 8 3 5 7 -4 3 -18 0 -31 -7 -23 -12 -28 -10 -55 15
-21 20 -27 33 -22 44 5 9 7 21 5 26 -6 15 57 50 65 37 19 -30 326 -3 441 39
97 36 121 50 109 66 -6 7 -19 13 -28 13 -9 0 -34 9 -56 20 -22 11 -52 20 -67
20 -15 0 -30 4 -33 10 -8 12 12 50 39 73 12 11 16 21 11 25 -6 4 -10 16 -10
26 0 18 -7 19 -70 17 -54 -2 -82 -9 -125 -31 -39 -20 -61 -26 -72 -19 -12 7
-36 -3 -90 -36 -79 -49 -121 -63 -182 -60 -32 2 -46 10 -87 55 -51 56 -59 79
-34 104 8 8 15 19 15 24 0 6 4 12 8 14 4 2 18 18 31 36 13 19 29 31 36 28 18
-6 75 15 75 29 0 5 4 5 8 -2 8 -13 79 -17 130 -7 25 5 43 20 75 63 23 31 46
59 50 62 5 3 15 19 23 34 13 25 13 30 0 37 -8 5 -22 15 -30 24 -27 26 -206 47
-206 23 0 -6 -9 -9 -20 -6 -26 7 -47 -18 -31 -37 10 -11 8 -19 -6 -35 -10 -12
-20 -31 -23 -44 -3 -12 -14 -24 -25 -26 -21 -4 -45 -25 -45 -40 0 -5 -4 -13
-10 -16 -8 -5 -40 54 -40 76 0 5 22 9 49 9 l48 0 0 41 c0 33 -3 39 -16 33 -9
-3 -58 -8 -110 -10 -91 -4 -165 -20 -155 -35 7 -13 -36 -21 -72 -14 -28 5 -36
2 -41 -12 -10 -29 -55 -64 -72 -57 -9 4 -24 6 -34 6 -13 -1 -16 4 -12 17 3 12
0 21 -10 25 -8 3 -15 12 -15 21 0 8 -7 15 -16 15 -21 0 -48 28 -49 52 -2 27
-30 42 -91 48 l-50 5 7 -48 c5 -26 6 -54 3 -61 -6 -16 -75 -29 -109 -20 -19 5
-30 -1 -49 -23 -14 -15 -28 -36 -31 -45 -8 -22 -31 -24 -38 -4 -6 15 -47 11
-47 -5 0 -5 -5 -9 -12 -9 -18 0 -58 -50 -58 -72 0 -10 -4 -18 -9 -18 -5 0 -14
-15 -20 -33 -12 -34 -86 -184 -101 -202 -4 -5 -14 -28 -22 -50 -35 -101 -91
-169 -210 -257 -109 -79 -144 -126 -164 -216 -25 -113 -93 -344 -107 -360 -6
-8 -11 -45 -10 -87 1 -74 10 -102 69 -205 49 -85 64 -140 64 -228 0 -82 -7
-106 -51 -182 -20 -35 -29 -40 -71 -40 -44 0 -68 8 -68 24 0 12 -35 38 -63 46
-10 3 -18 9 -17 13 0 5 -22 25 -49 45 -28 20 -51 41 -51 46 0 5 -6 17 -13 25
-40 48 -60 168 -32 191 8 7 15 21 15 31 0 10 4 20 10 24 5 3 6 13 3 21 -5 13
-7 13 -14 2 -7 -10 -9 -9 -9 4 0 9 4 19 9 22 5 3 11 17 13 30 4 18 0 26 -14
29 -19 5 -20 12 -23 187 -1 41 -5 87 -8 102 -7 25 -12 28 -53 28 -25 0 -52 -6
-59 -14 -8 -7 -34 -17 -58 -20 -34 -5 -47 -13 -55 -31 -9 -19 -19 -25 -42 -25
-21 0 -34 -8 -46 -25 -9 -14 -26 -25 -38 -25 -11 -1 -32 -7 -46 -15 -14 -8
-37 -14 -52 -15 -19 0 -30 -8 -40 -30 -15 -35 -29 -37 -66 -10 -38 27 -259 41
-294 18 -38 -24 -69 -28 -94 -11 -24 15 -64 21 -194 28 -112 5 -119 -2 -121
-133 -1 -59 -6 -97 -10 -90 -7 10 -9 9 -9 -4 0 -9 9 -19 19 -23 23 -7 33 -39
21 -68 -5 -14 -9 -16 -10 -7 0 8 -7 1 -16 -16 -8 -17 -20 -31 -27 -32 -7 -1
-36 -6 -64 -12 -39 -8 -58 -8 -74 1 -15 8 -19 8 -15 0 5 -7 -2 -11 -18 -11
-22 0 -24 4 -21 33 1 19 10 48 19 65 22 42 20 59 -8 77 -12 8 -32 32 -42 52
-10 21 -42 60 -69 88 -53 53 -115 162 -115 201 0 19 5 24 25 24 22 0 25 4 25
33 0 17 -7 43 -15 57 -7 14 -21 39 -29 55 -8 17 -29 55 -46 85 -21 39 -30 69
-30 101 0 40 -5 51 -40 87 -32 32 -43 52 -51 97 -5 30 -7 60 -4 66 4 5 8 21
10 35 2 18 -3 24 -19 25 -11 0 -15 3 -9 6 16 6 17 30 1 35 -6 2 -8 10 -4 16 4
7 16 10 27 7 22 -7 26 10 5 18 -8 3 -17 19 -21 36 -4 19 -11 28 -20 25 -26
-10 -43 201 -19 247 12 24 12 105 -1 219 -1 14 -3 31 -4 38 -2 23 -31 12 -41
-15 -6 -16 -14 -35 -19 -44 -6 -11 -6 -20 2 -28 6 -6 7 -14 2 -18 -4 -5 -10
-2 -12 5 -3 6 -10 9 -15 5 -7 -4 -9 2 -6 15 4 12 2 22 -2 22 -5 0 -11 9 -15
20 -10 30 -84 85 -97 72 -15 -15 -21 -119 -8 -127 21 -13 -10 -34 -41 -28 -21
4 -29 2 -29 -8 -1 -8 -7 -27 -14 -44 l-14 -30 -16 37 c-20 47 -21 89 -2 82 8
-3 17 -1 21 5 4 7 -3 11 -16 11 -28 0 -69 37 -62 56 3 9 -2 14 -13 14 -9 0
-14 3 -11 6 4 4 -8 14 -26 23 -17 9 -36 26 -42 38 -5 12 -21 24 -36 27 -15 3
-29 13 -32 26 -3 14 -10 18 -22 14 -13 -5 -16 -19 -14 -68 1 -33 5 -65 9 -71
12 -15 29 -139 21 -148 -4 -4 -14 -1 -21 8 -7 8 -19 15 -27 15 -20 0 -113 51
-113 61 0 5 -14 15 -30 24 l-30 16 0 127 c0 89 5 140 16 172 18 53 85 159 100
159 6 1 21 12 34 26 13 14 31 25 39 25 9 0 33 9 54 20 21 11 42 18 47 15 6 -4
10 -2 10 4 0 6 14 18 30 26 17 9 28 20 25 25 -3 4 1 10 7 13 7 2 -5 12 -27 21
-35 14 -43 23 -59 69 -10 29 -30 63 -47 77 -19 16 -29 35 -30 55 -2 47 -9 64
-29 75 -29 16 -67 2 -74 -26 -4 -13 -24 -36 -46 -50 -33 -22 -40 -32 -40 -60
0 -18 -7 -39 -15 -47 -8 -8 -16 -27 -19 -42 -3 -15 -10 -33 -16 -41 -7 -7 -10
-19 -8 -26 3 -7 -2 -19 -9 -27 -8 -7 -12 -20 -9 -28 10 -25 -5 -64 -23 -61 -9
2 -17 9 -17 16 -1 6 -2 19 -3 27 -2 22 -22 18 -28 -5 -3 -11 -8 -20 -12 -20
-3 0 -7 -36 -8 -80 -2 -48 1 -80 7 -80 6 0 10 7 10 15 0 8 5 15 10 15 6 0 10
-9 10 -20 0 -11 6 -19 13 -17 6 1 12 -7 12 -18 0 -11 -6 -21 -12 -21 -7 -1
-17 -2 -22 -3 -5 0 -11 -14 -14 -31 -4 -16 -12 -30 -18 -30 -6 0 -20 -10 -30
-22 -12 -13 -19 -16 -19 -8 0 7 -3 11 -6 7 -4 -3 -7 -32 -8 -63 -1 -49 -4 -58
-23 -65 -18 -6 -25 -4 -34 13 -12 22 -9 41 31 208 10 41 23 110 29 153 6 43
16 87 21 98 6 11 8 24 5 29 -11 17 -15 189 -5 195 14 9 12 39 -6 96 -14 43
-15 59 -5 102 18 76 9 134 -34 223 -38 78 -42 99 -33 197 1 12 -2 41 -6 64 -7
37 -5 44 18 64 15 13 29 41 36 71 12 46 11 51 -10 73 -13 14 -27 22 -31 19 -5
-3 -9 0 -9 5 0 20 -18 11 -23 -11 -8 -27 -12 -23 -20 20 -5 23 -3 32 7 32 31
0 62 89 36 105 -5 3 -10 11 -10 16 0 6 4 8 9 5 5 -3 5 15 0 41 -5 26 -7 55 -4
64 3 9 -1 23 -8 31 -19 19 -40 85 -33 104 3 9 2 23 -3 32 -4 9 -11 31 -15 47
-5 23 -4 27 5 15 8 -11 9 3 4 55 -10 102 -9 190 4 213 6 11 10 49 10 84 -1 35
4 83 11 108 6 25 14 55 17 68 4 18 11 22 32 20 31 -4 43 28 14 39 -10 3 -28
17 -40 30 -19 20 -21 29 -15 61 6 26 3 53 -8 92 -10 30 -29 95 -44 143 -16 51
-25 99 -22 112 3 13 2 26 -3 30 -14 8 -1 108 15 118 8 4 14 20 15 35 0 15 4
36 8 47 5 11 5 25 0 31 -13 15 11 59 43 80 15 11 32 30 37 44 5 14 10 19 10
12 1 -7 6 -10 11 -7 7 4 7 12 0 25 -5 10 -9 29 -9 42 1 20 2 21 6 3 9 -36 23
-41 23 -7 0 18 -4 32 -9 32 -5 0 -12 15 -16 33 -7 37 -26 86 -65 172 -40 87
-77 201 -88 270 -14 86 -59 261 -76 294 -8 15 -33 83 -56 152 -23 68 -45 133
-50 144 -23 49 -74 187 -97 260 -14 44 -36 112 -48 150 l-23 70 -1 -3737z
m346 1770 c-3 -7 -5 -2 -5 12 0 14 2 19 5 13 2 -7 2 -19 0 -25z m-107 -1408
c18 -16 21 -23 12 -32 -9 -9 -12 -8 -12 5 0 9 -4 17 -10 17 -5 0 -10 -6 -10
-14 0 -8 -7 -16 -15 -20 -8 -3 -15 -15 -15 -26 0 -27 -36 -27 -43 0 -3 12 -14
20 -26 20 -19 0 -20 3 -11 20 6 11 20 20 30 20 13 0 20 -7 20 -20 0 -11 5 -20
10 -20 9 0 14 23 13 58 -1 19 31 14 57 -8z m160 -1841 c0 -11 -4 -17 -10 -14
-5 3 -10 13 -10 21 0 8 5 14 10 14 6 0 10 -9 10 -21z m180 -53 c0 -3 -4 -8
-10 -11 -5 -3 -10 -1 -10 4 0 6 5 11 10 11 6 0 10 -2 10 -4z m-245 -111 c4
-27 14 -58 22 -67 12 -13 13 -18 3 -18 -21 0 -39 -33 -40 -73 0 -23 -4 -36
-10 -32 -6 4 -8 10 -6 14 3 4 -9 13 -26 20 -25 12 -32 11 -39 0 -6 -9 -9 5
-10 41 -1 30 -3 73 -4 96 -3 37 -1 40 19 37 15 -3 28 5 45 28 28 37 35 30 46
-46z m-135 16 c-1 -54 -40 -70 -40 -17 0 29 3 33 20 29 11 -3 20 -8 20 -12z
m579 -64 c33 -22 21 -48 -19 -45 -26 3 -36 -3 -61 -37 -26 -36 -28 -44 -19
-77 6 -20 17 -39 25 -42 8 -3 15 -14 15 -25 0 -10 9 -21 20 -24 12 -3 20 -14
20 -25 0 -12 5 -24 10 -27 6 -4 2 -18 -11 -36 -11 -16 -24 -27 -29 -24 -4 3
-10 -2 -14 -10 -9 -24 -53 -17 -86 13 -39 34 -54 92 -34 130 8 15 14 33 14 40
0 7 6 15 14 18 8 3 18 20 22 37 3 18 12 35 18 39 8 5 8 10 0 18 -8 8 -8 21 0
44 16 52 68 67 115 33z m311 -396 c0 -5 -7 -14 -15 -21 -17 -14 -20 -40 -4
-40 6 0 9 -6 6 -12 -2 -7 3 -21 11 -31 9 -10 17 -28 17 -40 4 -77 5 -78 25
-75 12 2 21 8 21 13 1 6 8 22 16 36 12 20 13 33 6 55 -6 16 -15 28 -21 27 -17
-4 -41 32 -36 54 7 25 31 21 64 -9 16 -15 20 -27 15 -49 -4 -18 -3 -29 4 -29
6 0 11 6 11 14 0 11 5 12 24 3 35 -17 63 -65 71 -122 4 -27 11 -53 17 -56 5
-3 13 -40 17 -83 6 -61 11 -79 28 -91 11 -8 23 -25 27 -39 3 -13 15 -26 26
-29 11 -3 18 -2 15 3 -2 4 4 15 14 24 18 16 22 16 70 -9 63 -31 65 -49 11
-106 -22 -24 -40 -52 -40 -62 0 -21 37 -87 48 -87 10 0 52 64 52 78 0 15 40
36 50 25 23 -24 19 -48 -10 -65 -26 -15 -29 -21 -23 -50 3 -18 10 -40 14 -50
11 -21 5 -226 -11 -396 -9 -88 -10 -140 -3 -155 5 -12 6 -33 2 -47 -4 -14 -7
-39 -8 -56 -1 -18 -7 -34 -16 -38 -8 -3 -15 -14 -15 -24 0 -58 -162 -104 -233
-67 -16 8 -51 17 -79 20 -44 4 -51 2 -55 -15 -6 -22 -11 -24 -32 -11 -8 5 -10
14 -6 21 4 7 2 16 -5 20 -7 4 6 10 33 14 38 6 45 10 40 24 -4 9 -12 21 -20 25
-7 4 -13 15 -13 23 0 10 -6 13 -19 9 -20 -6 -34 15 -25 39 4 11 -7 14 -55 15
-34 0 -65 2 -70 5 -5 3 -9 22 -9 42 0 23 -7 42 -21 55 -25 23 -29 24 -54 2
-19 -18 -19 -17 -14 12 17 88 18 135 4 167 -19 44 -51 130 -52 143 -1 6 -4 17
-7 25 -15 37 -16 62 -3 56 19 -7 29 10 49 84 10 36 24 83 31 105 7 22 12 78
11 125 -1 47 3 91 8 98 7 9 6 16 -2 21 -17 10 -5 38 18 44 13 3 21 19 26 53
11 63 11 154 1 178 -7 17 -10 14 -27 -19 -11 -21 -18 -41 -15 -43 2 -3 -5 -18
-17 -34 -17 -25 -19 -34 -9 -54 6 -14 11 -31 11 -39 0 -20 -39 -19 -46 0 -5
11 -11 12 -24 5 -30 -16 -38 -12 -50 25 -6 19 -20 40 -31 45 -26 15 -24 32 9
63 35 33 42 34 42 2 0 -32 13 -32 34 0 25 38 21 63 -9 60 -27 -3 -33 7 -12 21
12 9 92 10 131 3 17 -4 20 4 24 61 3 36 6 77 6 93 1 23 5 27 29 27 15 0 27 -4
27 -9z m-650 -80 c0 -11 -4 -23 -10 -26 -5 -3 -10 -19 -10 -35 0 -28 -1 -29
-40 -24 -44 5 -63 -14 -40 -41 15 -18 31 -10 23 10 -7 19 11 19 27 0 7 -8 28
-15 47 -15 19 0 41 -6 48 -14 22 -22 15 -75 -14 -107 -27 -29 -55 -34 -129
-25 -19 2 -38 -2 -47 -10 -16 -16 -35 -18 -35 -4 0 6 5 10 10 10 6 0 10 11 10
25 0 16 -6 25 -15 25 -10 0 -15 10 -15 30 0 36 19 80 35 80 7 0 18 14 25 30 8
18 20 30 31 30 11 0 19 4 19 9 0 16 51 71 66 71 8 0 14 -9 14 -19z m5317 3
c-3 -3 -12 -4 -19 -1 -8 3 -5 6 6 6 11 1 17 -2 13 -5z m-5332 -114 c3 -5 1
-10 -4 -10 -6 0 -11 5 -11 10 0 6 2 10 4 10 3 0 8 -4 11 -10z m256 -390 c10
-6 19 -18 19 -28 0 -27 20 -92 28 -91 22 4 69 -3 81 -10 12 -8 12 -12 -2 -25
-9 -9 -14 -23 -11 -30 3 -7 -2 -16 -10 -19 -9 -4 -16 -14 -16 -24 0 -22 45
-73 65 -73 10 0 14 -9 13 -25 -3 -29 -22 -32 -64 -10 -34 17 -54 19 -54 5 0
-15 -16 -12 -18 3 0 6 -4 22 -7 35 -5 15 -3 22 6 22 11 0 11 2 -1 10 -8 5 -27
10 -41 10 -24 0 -27 5 -34 47 -4 25 -13 56 -20 67 -11 17 -11 29 -1 66 23 84
29 90 67 70z m-351 -145 c0 -9 -9 -15 -22 -15 -22 1 -23 1 -4 15 25 19 26 19
26 0z m-10 -54 c0 -4 -11 -18 -25 -31 -14 -13 -25 -32 -25 -42 0 -13 -10 -19
-40 -24 -25 -4 -45 -14 -51 -25 -14 -27 -29 -23 -29 6 0 14 4 25 9 25 4 0 25
15 45 33 64 57 90 75 103 70 7 -3 13 -8 13 -12z m331 -460 c-10 -7 -8 -12 9
-24 13 -9 17 -17 11 -22 -6 -3 -8 -12 -4 -18 4 -7 -1 -6 -11 2 -9 8 -15 20
-12 27 3 7 1 16 -4 19 -16 10 -11 25 8 25 13 0 14 -2 3 -9z m-31 -27 c0 -16
-35 -19 -45 -5 -6 11 26 32 37 25 5 -3 8 -12 8 -20z m-90 9 c-1 -20 -18 -32
-38 -26 -24 6 -29 19 -9 26 19 8 47 8 47 0z m-90 -17 c0 -8 -4 -18 -10 -21 -5
-3 -10 3 -10 14 0 12 5 21 10 21 6 0 10 -6 10 -14z m200 -26 c0 -5 -7 -10 -15
-10 -8 0 -15 5 -15 10 0 6 7 10 15 10 8 0 15 -4 15 -10z m0 -41 c0 -11 -4 -17
-10 -14 -5 3 -10 13 -10 21 0 8 5 14 10 14 6 0 10 -9 10 -21z m547 -295 c-3
-3 -12 -4 -19 -1 -8 3 -5 6 6 6 11 1 17 -2 13 -5z"/>
<path d="M720 1769 c0 -9 -9 -24 -20 -34 -16 -14 -17 -20 -8 -27 20 -12 25
-10 38 23 10 22 10 33 1 42 -8 8 -11 7 -11 -4z"/>
<path d="M926 1425 c-9 -34 -4 -40 11 -16 6 10 8 23 3 30 -5 9 -10 4 -14 -14z"/>
<path d="M1158 1345 c-23 -31 -23 -44 1 -38 23 6 31 22 22 45 -5 14 -8 13 -23
-7z"/>
<path d="M1502 6599 c-35 -4 -69 -12 -75 -16 -19 -14 -79 -32 -126 -38 -24 -3
-50 -10 -58 -16 -7 -7 -28 -13 -46 -15 -17 -2 -33 -9 -35 -14 -2 -6 -11 -10
-19 -10 -17 0 -83 -68 -83 -85 0 -6 -9 -16 -20 -23 -11 -7 -20 -18 -20 -26 0
-7 -9 -33 -19 -57 -10 -24 -22 -64 -26 -89 -3 -25 -11 -55 -18 -68 -8 -18 -8
-28 2 -44 11 -18 11 -23 -1 -32 -16 -11 -26 -49 -35 -126 -4 -35 1 -56 21 -97
14 -28 26 -58 26 -67 0 -11 7 -15 23 -12 20 3 23 11 32 89 9 71 15 89 35 106
26 22 60 28 60 11 0 -5 7 -10 15 -10 16 0 41 -39 36 -55 -2 -5 -3 -53 -2 -105
2 -70 -2 -103 -14 -127 -11 -23 -15 -49 -11 -90 12 -151 31 -247 46 -223 5 8
16 3 36 -17 16 -16 52 -44 79 -63 28 -19 52 -38 55 -42 3 -3 19 -10 35 -13 17
-4 40 -14 53 -22 29 -18 66 -23 172 -24 88 0 98 2 215 46 39 15 83 29 100 32
16 3 53 23 82 44 29 22 59 39 67 39 22 0 76 33 76 48 0 6 11 12 25 12 13 0 28
6 32 13 4 6 21 19 37 27 15 8 38 27 50 43 11 16 38 47 58 71 29 33 38 52 40
89 2 26 6 47 9 47 23 0 13 293 -14 385 -20 70 -76 188 -93 198 -8 4 -14 12
-14 17 0 13 -28 40 -65 64 -17 11 -43 32 -60 47 -79 73 -95 85 -131 104 -22
11 -45 26 -52 32 -7 7 -24 13 -38 13 -14 0 -24 6 -24 14 0 9 -19 19 -52 26
-65 15 -280 20 -366 9z m-74 -618 c7 -4 15 -26 18 -47 10 -97 23 -328 19 -333
-11 -11 -38 30 -51 76 -7 26 -20 75 -29 108 -22 78 -24 183 -4 196 17 11 30
11 47 0z"/>
<path d="M5100 6426 c-50 -28 -132 -47 -147 -34 -10 8 -17 8 -25 0 -7 -7 -18
-12 -26 -12 -18 0 -131 -91 -131 -106 -1 -6 -11 -19 -23 -30 -11 -10 -41 -45
-65 -78 -35 -48 -43 -66 -43 -102 0 -23 -4 -45 -9 -48 -20 -13 -17 -84 7 -171
14 -49 28 -94 32 -98 4 -5 17 -4 28 2 20 10 20 7 27 -129 5 -99 12 -143 21
-151 8 -6 14 -17 14 -25 0 -20 73 -86 122 -110 82 -41 107 -46 181 -33 39 7
53 5 80 -11 17 -11 44 -20 58 -20 22 0 27 5 32 35 3 20 29 82 58 138 29 56 59
116 67 132 47 93 99 138 130 112 26 -21 -6 -122 -49 -157 -9 -7 -52 -82 -93
-161 -19 -36 -41 -71 -50 -78 -44 -36 10 -59 73 -30 21 9 44 25 50 36 6 10 11
13 11 6 0 -11 63 -10 126 3 24 4 37 37 22 52 -9 9 -15 53 -17 131 -1 25 -5 32
-16 27 -12 -4 -14 0 -9 22 4 15 11 31 15 37 15 15 10 40 -11 63 -20 21 -20 22
-2 22 17 0 18 6 15 48 -3 26 0 72 5 102 7 36 7 61 0 73 -9 18 1 53 33 110 8
14 6 23 -5 36 -19 20 -28 91 -14 109 8 9 6 12 -5 12 -17 0 -41 34 -43 60 -1 8
-2 27 -3 42 -1 34 -45 83 -66 74 -8 -3 -15 0 -15 7 0 7 -19 20 -41 31 -42 19
-48 19 -190 0 -44 -6 -47 -5 -53 20 -4 15 -14 26 -24 27 -10 0 -12 3 -4 6 13
5 17 23 5 23 -5 0 -19 -7 -33 -14z"/>
<path d="M975 5607 c-7 -47 -2 -139 11 -185 9 -30 63 -60 75 -40 13 19 11 36
-11 116 -11 39 -20 81 -20 93 0 12 -8 23 -19 26 -11 3 -22 12 -24 22 -2 9 -7
-6 -12 -32z"/>
<path d="M3170 4860 c-8 -5 -28 -10 -45 -10 -16 0 -39 -7 -49 -15 -10 -8 -23
-12 -27 -9 -5 3 -9 0 -9 -7 0 -8 -12 -10 -36 -6 -29 5 -40 2 -59 -17 -13 -13
-27 -21 -31 -17 -4 3 -5 1 -1 -4 7 -14 -18 -46 -33 -43 -14 3 -44 -73 -33 -81
5 -3 8 -10 9 -16 4 -65 19 -138 30 -142 8 -3 14 -10 14 -16 0 -21 82 -115 110
-127 17 -7 30 -19 30 -26 0 -8 4 -14 8 -14 5 0 15 -11 22 -25 7 -14 22 -25 32
-25 10 0 18 -7 18 -16 0 -8 5 -12 10 -9 6 3 15 -6 20 -20 5 -14 14 -24 19 -21
5 4 16 -1 24 -9 9 -8 18 -15 22 -15 16 0 65 -46 65 -62 0 -10 5 -15 13 -12 8
3 20 -2 27 -11 7 -8 19 -15 26 -15 8 0 14 -4 14 -10 0 -5 6 -10 13 -10 8 0 22
-9 32 -20 10 -11 26 -20 35 -20 9 0 21 -5 27 -11 11 -11 53 7 53 23 0 5 7 8
15 8 9 0 20 11 25 25 5 14 17 25 27 25 15 0 16 2 3 10 -10 6 -11 10 -2 10 6 0
12 6 12 14 0 13 20 26 41 26 5 0 9 -9 9 -21 0 -11 7 -27 15 -35 15 -15 20 -52
16 -106 -1 -15 3 -36 9 -48 6 -11 11 -45 12 -75 1 -31 5 -58 9 -60 10 -7 39
41 39 64 0 11 5 23 10 26 6 3 10 24 10 45 0 21 5 42 10 45 6 3 10 18 10 33 0
15 7 38 16 50 12 18 14 40 10 110 -3 48 -5 105 -6 126 0 36 -1 38 -13 21 -11
-14 -16 -15 -22 -5 -5 9 -4 15 3 18 17 5 15 32 -3 32 -10 0 -15 -10 -15 -27 0
-21 -3 -24 -10 -13 -5 8 -23 15 -41 16 -19 1 -27 -1 -19 -6 7 -4 10 -15 7 -25
-8 -19 -27 -11 -27 11 0 8 -8 14 -17 14 -13 0 -14 3 -5 12 18 18 14 38 -8 38
-11 0 -20 4 -20 10 0 5 -6 7 -14 4 -8 -3 -17 -1 -21 5 -3 7 2 11 14 11 24 0
26 8 7 32 -10 14 -27 18 -72 17 -32 -1 -65 -6 -72 -12 -34 -27 -43 38 -26 187
5 43 4 57 -5 52 -6 -4 -14 1 -18 11 -18 48 -66 108 -95 120 -26 11 -30 16 -18
23 8 5 11 10 5 10 -61 5 -83 8 -100 13 -11 4 -27 2 -35 -3z m350 -450 c0 -11
-7 -20 -15 -20 -18 0 -19 6 -2 25 16 19 17 18 17 -5z m184 -229 c-9 -47 -12
-51 -29 -44 -17 6 -21 33 -5 33 6 0 10 11 10 23 0 15 6 24 15 24 12 0 14 -8 9
-36z"/>
<path d="M756 4474 c-11 -28 -6 -45 19 -70 26 -26 26 -48 0 -37 -27 10 -16
-12 12 -25 31 -14 40 -8 52 36 9 30 8 32 -14 32 -22 0 -24 3 -20 40 3 36 2 40
-20 40 -12 0 -26 -7 -29 -16z"/>
<path d="M928 3867 c-28 -6 -48 -16 -48 -24 0 -7 -7 -13 -15 -13 -8 0 -15 -6
-15 -13 0 -13 85 -37 131 -37 31 0 55 18 62 47 9 40 -38 56 -115 40z"/>
<path d="M6127 3803 c-14 -13 -6 -33 13 -33 13 0 20 7 20 20 0 19 -20 27 -33
13z"/>
<path d="M3665 3380 c-8 -13 5 -13 25 0 13 8 13 10 -2 10 -9 0 -20 -4 -23 -10z"/>
<path d="M676 3363 c-3 -3 -17 -7 -31 -9 -62 -6 -78 -56 -38 -120 23 -35 35
-45 65 -50 26 -5 43 -15 56 -35 l18 -29 29 30 c25 26 29 38 28 84 -1 32 -8 65
-18 79 -16 24 -97 61 -109 50z"/>
<path d="M6043 3269 c-29 -8 -33 -14 -33 -43 0 -30 6 -38 48 -65 26 -16 59
-40 75 -51 l27 -22 0 96 0 96 -42 -1 c-24 0 -58 -5 -75 -10z"/>
<path d="M680 2996 c0 -22 3 -27 11 -19 8 8 8 16 0 30 -9 16 -10 14 -11 -11z"/>
<path d="M5455 2670 c-15 -30 -15 -33 2 -46 22 -17 65 -14 71 4 2 7 -5 16 -17
19 -11 3 -18 9 -15 14 3 5 10 7 15 4 5 -4 9 1 9 10 0 9 -5 13 -10 10 -6 -4
-17 -2 -25 5 -11 9 -17 5 -30 -20z"/>
<path d="M5394 2605 c-10 -24 4 -45 28 -44 13 0 17 3 11 6 -9 3 -10 10 -3 22
5 10 6 21 3 25 -11 11 -34 6 -39 -9z"/>
<path d="M5105 2513 c-11 -3 -23 -10 -27 -17 -11 -16 -10 -114 1 -121 11 -6
53 31 70 63 6 12 18 22 27 22 13 0 13 4 -1 30 -15 29 -28 33 -70 23z m46 -26
c-1 -12 -15 -9 -19 4 -3 6 1 10 8 8 6 -3 11 -8 11 -12z"/>
<path d="M6141 2368 c1 -24 5 -54 9 -68 6 -18 8 -7 9 43 1 38 -3 67 -9 67 -5
0 -10 -19 -9 -42z"/>
<path d="M1487 2313 c-13 -12 -7 -43 8 -43 8 0 15 6 15 13 0 18 -15 38 -23 30z"/>
<path d="M1522 2295 c0 -16 2 -22 5 -12 2 9 2 23 0 30 -3 6 -5 -1 -5 -18z"/>
<path d="M1596 1627 c3 -10 9 -15 12 -12 3 3 0 11 -7 18 -10 9 -11 8 -5 -6z"/>
</g>
</svg>
