<!DOCTYPE svg PUBLIC "-//W3C//DTD SVG 1.1//EN" "http://www.w3.org/Graphics/SVG/1.1/DTD/svg11.dtd">
<!-- Uploaded to: SVG Repo, www.svgrepo.com, Transformed by: SVG Repo Mixer Tools -->
<svg version="1.1" id="Icons" xmlns="http://www.w3.org/2000/svg" xmlns:xlink="http://www.w3.org/1999/xlink" viewBox="0 0 32 32" xml:space="preserve" width="64px" height="64px" fill="#231f22">
<g id="SVGRepo_bgCarrier" stroke-width="0"/>
<g id="SVGRepo_tracerCarrier" stroke-linecap="round" stroke-linejoin="round"/>
<g id="SVGRepo_iconCarrier"> <style type="text/css"> .st0{fill:none;stroke:#000000;stroke-width:2;stroke-linecap:round;stroke-linejoin:round;stroke-miterlimit:10;} .st1{fill:none;stroke:#000000;stroke-width:2;stroke-linecap:round;stroke-linejoin:round;} .st2{fill:none;stroke:#000000;stroke-width:2;stroke-linecap:round;stroke-linejoin:round;stroke-dasharray:6,6;} .st3{fill:none;stroke:#000000;stroke-width:2;stroke-linecap:round;stroke-linejoin:round;stroke-dasharray:4,4;} .st4{fill:none;stroke:#000000;stroke-width:2;stroke-linecap:round;} .st5{fill:none;stroke:#000000;stroke-width:2;stroke-linecap:round;stroke-dasharray:3.1081,3.1081;} .st6{fill:none;stroke:#000000;stroke-width:2;stroke-linecap:round;stroke-linejoin:round;stroke-miterlimit:10;stroke-dasharray:4,3;} </style> <circle class="st0" cx="13" cy="13" r="1"/> <line class="st0" x1="9" y1="20" x2="16" y2="16"/> <path class="st0" d="M27,12V8.8c1.2-0.4,2-1.5,2-2.8c0-1.7-1.3-3-3-3c-1.3,0-2.4,0.8-2.8,2H8.8C8.4,3.8,7.3,3,6,3C4.3,3,3,4.3,3,6 c0,1.3,0.8,2.4,2,2.8v14.4c-1.2,0.4-2,1.5-2,2.8c0,1.7,1.3,3,3,3c1.3,0,2.4-0.8,2.8-2H20"/> <polyline class="st0" points="20,23 9,23 9,9 23,9 23,12 "/> <line class="st0" x1="19" y1="19" x2="31" y2="19"/> <path class="st0" d="M30,19v8c0,1.1-0.9,2-2,2h-6c-1.1,0-2-0.9-2-2v-8"/> <path class="st0" d="M23,19v-2c0-1.1,0.9-2,2-2h0c1.1,0,2,0.9,2,2v2"/> <line class="st0" x1="23" y1="23" x2="23" y2="25"/> <line class="st0" x1="27" y1="23" x2="27" y2="25"/> </g>
</svg>