<?xml version="1.0" encoding="iso-8859-1"?>
<!-- Uploaded to: SVG Repo, www.svgrepo.com, Generator: SVG Repo Mixer Tools -->
<svg height="180px" width="180px" version="1.1" id="Layer_1" xmlns="http://www.w3.org/2000/svg" xmlns:xlink="http://www.w3.org/1999/xlink" 
	 viewBox="0 0 408.001 408.001" xml:space="preserve">
<g transform="translate(0 -1020.36)" shape-rendering="auto" image-rendering="auto" color-rendering="auto" color-interpolation="sRGB">
	<path style="fill:#484666;" d="M203.193,1120.19c-13.327-6.721-28.863-8.904-44.062-5.262
		c-18.012,4.316-32.691,16.102-41.156,31.615c-8.405-14.469-22.308-25.5-39.281-29.871c-25.51-6.57-52.578,2.965-68.031,24.111
		c-15.991,21.881-11.208,50.191-3.656,71.549c9.722,27.496,36.331,57.084,60.469,80.924c24.138,23.842,46.063,41.398,46.063,41.398
		c3.036,2.389,7.363,2.287,10.281-0.24c29.525-25.453,55.006-53.611,78.688-84.072c11.417,14.6,24.639,28.912,37.281,41.615
		c23.444,23.559,43.983,40.883,44.594,41.396c4.578,3.836,8.11,2.523,10.97,0.16c0.419-0.352,21.787-17.66,45.563-41.271
		c24.009-23.844,50.432-53.461,60.094-80.895c7.518-21.346,12.337-49.547-3.656-71.426c-15.453-21.133-42.52-30.773-68.031-24.201
		c-16.927,4.359-30.806,15.369-39.219,29.811c-6.043-11.043-15.279-20.279-26.906-26.197c-9.616-4.891-20.206-7.199-30.719-6.979
		c-10.806,0.385-20.725,3.557-29.283,7.881L203.193,1120.19z"/>
	<path style="fill:#D87070;" d="M232.818,1128.287c7.833-0.176,15.725,1.623,22.937,5.293c14.424,7.34,24.175,21.316,25.844,37.287
		c0.061,1.143,0.37,2.258,0.906,3.27c0.01,0.053,0.02,0.107,0.03,0.16c0.069,0.141,0.142,0.279,0.219,0.416
		c2.124,3.854,7.001,5.271,10.894,3.17c2.311-1.248,3.857-3.539,4.137-6.129c2.313-19.457,16.407-35.529,35.563-40.463
		c19.156-4.934,39.396,2.258,51,18.129c11.063,15.135,8.283,37.861,1.563,56.941c-7.721,21.924-32.979,51.617-56.344,74.82
		c-18.907,18.775-33.463,31.014-39.469,35.979c-5.888-5.049-20.081-17.371-38.844-36.227c-23.227-23.34-48.766-53.141-57.75-75.037
		c-6.542-15.945-9.357-36.535-3.438-49.559c1.893-3.969,0.178-8.705-3.832-10.58c-1.05-0.49-2.195-0.75-3.355-0.76
		c-3.232-0.045-6.175,1.834-7.469,4.766c-8.946,19.682-4.419,43.59,3.219,62.205c3.351,8.166,8.443,16.611,14.188,25.076
		c-22.574,29.396-47.121,55.949-74.656,80.395c-4.311-3.514-18.713-14.945-39.344-35.322c-23.49-23.199-48.92-53.006-56.688-74.977
		c-6.741-19.064-9.535-41.799,1.531-56.941c11.604-15.875,31.875-23.064,51.031-18.129c19.156,4.934,33.218,20.996,35.531,40.463
		c0.488,4.363,4.455,7.51,8.862,7.027c3.668-0.402,6.587-3.229,7.075-6.852l0,0c0.182-0.525,0.307-1.066,0.375-1.617
		c2.348-19.766,16.839-35.873,36.375-40.555c19.536-4.678,39.818,3.107,51.031,19.623c11.213,16.518,10.909,38.115-0.844,54.262
		c-2.615,3.555-1.825,8.535,1.765,11.125c3.59,2.588,8.62,1.807,11.235-1.748c15.648-21.496,16.118-50.523,1.187-72.516
		c-2.544-3.748-5.56-7.01-8.75-10.061c4.659-1.568,9.422-2.678,14.281-2.771L232.818,1128.287z"/>
	<path style="fill:#BD5858;" d="M232.813,1128.303L232.813,1128.303c-1.146,0-2.271,0.24-3.406,0.367
		c6.358,0.447,12.675,1.848,18.531,4.828c14.424,7.342,24.175,21.316,25.844,37.287c0.061,1.143,0.37,2.258,0.906,3.27
		c0.01,0.053,0.021,0.107,0.032,0.16c0.068,0.146,0.141,0.289,0.219,0.432c2.13,3.85,7.009,5.262,10.898,3.154
		c0.023-0.014,0.047-0.025,0.07-0.039c-1.328-0.723-2.422-1.803-3.156-3.115c-0.077-0.143-0.15-0.285-0.219-0.432
		c-0.011-0.053-0.022-0.107-0.032-0.16c-0.536-1.012-0.845-2.127-0.906-3.27c-1.669-15.969-11.419-29.943-25.844-37.287
		c-7.212-3.67-15.105-5.443-22.938-5.264V1128.303z M177.563,1129.199c-2.412-0.16-4.866-0.16-7.313,0
		c14.28,1.137,27.563,8.564,35.875,20.807c11.213,16.518,10.909,38.117-0.844,54.262c-2.604,3.563-1.799,8.539,1.798,11.119
		c2.536,1.816,5.907,2.012,8.639,0.5c-3.884-2.133-5.288-6.979-3.134-10.824c0.154-0.275,0.324-0.541,0.509-0.795
		c11.752-16.146,12.057-37.746,0.844-54.262c-8.41-12.387-21.903-19.879-36.375-20.869L177.563,1129.199z M347.781,1129.76
		c-2.138-0.16-4.31,0-6.469,0.16c13.814,1.057,26.792,7.943,35.219,19.469c11.063,15.133,8.283,37.859,1.563,56.939
		c-7.721,21.924-32.979,51.617-56.344,74.82c-16.394,16.281-28.386,26.613-35.5,32.582c1.052,0.912,3.07,2.732,3.844,3.395
		c6.006-4.963,20.562-17.201,39.469-35.979c23.365-23.203,48.622-52.896,56.344-74.82c6.72-19.08,9.501-41.807-1.563-56.939
		c-8.703-11.904-22.245-18.941-36.563-19.625V1129.76z M60.281,1130.543c-0.462,0-0.914,0.16-1.375,0.16
		c2.661,0.225,5.324,0.656,7.969,1.344c19.156,4.934,33.218,20.996,35.531,40.463c0.497,4.363,4.472,7.5,8.878,7.008
		c1.065-0.119,2.094-0.447,3.029-0.967c-2.27-1.24-3.794-3.49-4.094-6.041c-2.313-19.465-16.375-35.529-35.531-40.465
		c-4.789-1.232-9.631-1.723-14.406-1.488L60.281,1130.543z M175.063,1144.965c-3.232-0.045-6.175,1.834-7.469,4.766
		c-8.946,19.684-4.419,43.592,3.219,62.205c3.351,8.168,8.443,16.611,14.188,25.076c-21.537,28.049-44.959,53.43-70.969,76.939
		c1.112,0.912,3.468,2.922,4.125,3.457c27.535-24.447,52.082-50.998,74.656-80.396c-5.745-8.465-10.836-16.906-14.188-25.076
		c-7.637-18.613-12.165-42.521-3.219-62.205c0.709-1.615,1.94-2.953,3.5-3.801c-1.18-0.633-2.501-0.963-3.844-0.961V1144.965z"/>
</g>
</svg>